<?xml version="1.0" encoding="UTF-8" standalone="yes"?>
<svg width="25" height="25" viewBox="0 0 25 25" fill="none" xmlns="http://www.w3.org/2000/svg">
  <path opacity="0.4" d="M12.917 15.3167C14.758 15.3167 16.2503 13.8243 16.2503 11.9834C16.2503 10.1424 14.758 8.65005 12.917 8.65005C11.0761 8.65005 9.58368 10.1424 9.58368 11.9834C9.58368 13.8243 11.0761 15.3167 12.917 15.3167Z" stroke="#222222" stroke-linecap="round" stroke-linejoin="round"/>
  <path d="M16.1091 19.1851C14.4389 20.0775 13.8064 20.0765 12.3082 19.9621C10.531 19.8265 8.84993 19.1012 7.53183 17.9014C6.21373 16.7016 5.33406 15.096 5.0324 13.3393C4.73075 11.5826 5.02439 9.77545 5.86674 8.20465C6.70908 6.63384 8.05187 5.38933 9.68205 4.66859C11.3122 3.94784 13.1364 3.79214 14.8652 4.22619C16.5939 4.66025 18.1282 5.65919 19.2246 7.06452C20.3209 8.46985 20.9166 10.2011 20.917 11.9835C20.917 13.8251 20.2503 15.3168 18.5837 15.3168C16.917 15.3168 16.2503 13.8251 16.2503 11.9835L16.7345 9.18402" stroke="#222222" stroke-linecap="round" stroke-linejoin="round"/>
</svg>