<?xml version="1.0" encoding="UTF-8" standalone="yes"?>
<svg width="25" height="25" viewBox="0 0 25 25" fill="none" xmlns="http://www.w3.org/2000/svg">
  <path d="M14.7253 16.5724L13.492 18.6721C13.4316 18.7723 13.347 18.8551 13.2464 18.9125C13.1457 18.9699 13.0323 19 12.917 19C12.8017 19 12.6883 18.9699 12.5876 18.9125C12.487 18.8551 12.4024 18.7723 12.342 18.6721L11.1087 16.5724C11.0507 16.4717 10.9679 16.3881 10.8685 16.3299C10.7691 16.2718 10.6566 16.2411 10.542 16.2409H5.58366C5.40685 16.2409 5.23728 16.1693 5.11225 16.0417C4.98723 15.9142 4.91699 15.7412 4.91699 15.5609V4.68005C4.91699 4.49969 4.98723 4.32672 5.11225 4.19918C5.23728 4.07165 5.40685 4 5.58366 4H20.2503C20.4271 4 20.5967 4.07165 20.7217 4.19918C20.8468 4.32672 20.917 4.49969 20.917 4.68005V15.5609C20.917 15.7412 20.8468 15.9142 20.7217 16.0417C20.5967 16.1693 20.4271 16.2409 20.2503 16.2409H15.292C15.1774 16.2411 15.0649 16.2718 14.9655 16.3299C14.8661 16.3881 14.7833 16.4717 14.7253 16.5724V16.5724Z" stroke="#222222" stroke-linecap="round" stroke-linejoin="round"/>
</svg>