<?xml version="1.0" encoding="UTF-8" standalone="yes"?>
<svg width="25" height="25" viewBox="0 0 25 25" fill="none" xmlns="http://www.w3.org/2000/svg">
  <path d="M8.21699 12.4783L4.91699 15.087V4.65217C4.91699 4.47921 4.98723 4.31332 5.11225 4.19102C5.23728 4.06871 5.40685 4 5.58366 4H16.2503C16.4271 4 16.5967 4.06871 16.7217 4.19102C16.8468 4.31332 16.917 4.47921 16.917 4.65217V11.8261C16.917 11.9991 16.8468 12.1649 16.7217 12.2872C16.5967 12.4095 16.4271 12.4783 16.2503 12.4783H8.21699Z" stroke="#222222" stroke-linecap="round" stroke-linejoin="round"/>
  <path opacity="0.4" d="M8.91699 15.4783V15.7391C8.91699 15.9121 8.98723 16.078 9.11225 16.2003C9.23728 16.3226 9.40685 16.3913 9.58366 16.3913H17.617L20.917 19V8.56521C20.917 8.39225 20.8468 8.22636 20.7217 8.10406C20.5967 7.98175 20.4271 7.91304 20.2503 7.91304H19.917" stroke="#222222" stroke-linecap="round" stroke-linejoin="round"/>
</svg>