<?xml version="1.0" encoding="UTF-8" standalone="yes"?>
<svg width="25" height="25" viewBox="0 0 25 25" fill="none" xmlns="http://www.w3.org/2000/svg">
  <path d="M16.6093 13.2308H19.917C20.4693 13.2308 20.917 13.6785 20.917 14.2308V18.7692C20.917 19.0956 20.7873 19.4087 20.5565 19.6395C20.3257 19.8703 20.0126 20 19.6862 20H6.14776C5.82134 20 5.50829 19.8703 5.27748 19.6395C5.04666 19.4087 4.91699 19.0956 4.91699 18.7692V14.2308C4.91699 13.6785 5.36471 13.2308 5.91699 13.2308H9.22468C9.55111 13.2308 9.86416 13.3604 10.095 13.5913C10.3258 13.8221 10.4555 14.1351 10.4555 14.4615V15.3099C10.4555 15.8622 10.9032 16.3099 11.4555 16.3099H14.3785C14.9308 16.3099 15.3785 15.8622 15.3785 15.3099V14.4615C15.3785 14.1351 15.5082 13.8221 15.739 13.5913C15.9698 13.3604 16.2829 13.2308 16.6093 13.2308Z" stroke="#222222" stroke-linecap="round" stroke-linejoin="round"/>
  <path opacity="0.4" d="M9.84007 7.07692L12.917 4L15.9939 7.07692" stroke="#222222" stroke-linecap="round" stroke-linejoin="round"/>
  <path opacity="0.4" d="M12.917 11.3846V4" stroke="#222222" stroke-linecap="round" stroke-linejoin="round"/>
</svg>