<?xml version="1.0" encoding="UTF-8" standalone="yes"?>
<svg width="25" height="25" viewBox="0 0 25 25" fill="none" xmlns="http://www.w3.org/2000/svg">
  <path d="M16.8037 9.64653H20.7954V5.65485" stroke="#222222" stroke-linecap="round" stroke-linejoin="round"/>
  <path opacity="0.4" d="M7.62286 6.82743C8.30178 6.14753 9.10807 5.60814 9.99563 5.24012C10.8832 4.8721 11.8346 4.68268 12.7954 4.68268C13.7563 4.68268 14.7077 4.8721 15.5952 5.24012C16.4828 5.60814 17.2891 6.14753 17.968 6.82743L20.7954 9.64656" stroke="#222222" stroke-linecap="round" stroke-linejoin="round"/>
  <path d="M8.78709 14.3534H4.79541V18.3451" stroke="#222222" stroke-linecap="round" stroke-linejoin="round"/>
  <path opacity="0.4" d="M17.968 17.1725C17.2891 17.8524 16.4828 18.3918 15.5952 18.7598C14.7076 19.1278 13.7562 19.3173 12.7954 19.3173C11.8346 19.3173 10.8832 19.1278 9.99562 18.7598C9.10806 18.3918 8.30177 17.8524 7.62285 17.1725L4.79541 14.3534" stroke="#222222" stroke-linecap="round" stroke-linejoin="round"/>
</svg>