<?xml version="1.0" encoding="UTF-8" standalone="yes"?>
<svg width="25" height="25" viewBox="0 0 25 25" fill="none" xmlns="http://www.w3.org/2000/svg">
  <path d="M15.8723 17.3077V18.7692C15.8723 19.0956 15.7427 19.4087 15.5119 19.6395C15.281 19.8703 14.968 20 14.6416 20H6.02618C5.69975 20 5.38671 19.8703 5.15589 19.6395C4.92508 19.4087 4.79541 19.0956 4.79541 18.7692V5.23077C4.79541 4.90434 4.92508 4.5913 5.15589 4.36048C5.38671 4.12967 5.69975 4 6.02618 4H14.6416C14.968 4 15.281 4.12967 15.5119 4.36048C15.7427 4.5913 15.8723 4.90434 15.8723 5.23077V6.69231" stroke="#222222" stroke-linecap="round" stroke-linejoin="round"/>
  <path opacity="0.4" d="M12.18 12H20.7954" stroke="#222222" stroke-linecap="round" stroke-linejoin="round"/>
  <path opacity="0.4" d="M18.3339 9.53845L20.7954 12L18.3339 14.4615" stroke="#222222" stroke-linecap="round" stroke-linejoin="round"/>
</svg>