<svg width="25" height="24" viewBox="0 0 25 24" fill="none" xmlns="http://www.w3.org/2000/svg">
<path d="M11.7253 16.5724L10.492 18.6721C10.4316 18.7723 10.347 18.8551 10.2464 18.9125C10.1457 18.9699 10.0323 19 9.91699 19C9.80167 19 9.68828 18.9699 9.58762 18.9125C9.48696 18.8551 9.40239 18.7723 9.34199 18.6721L8.10866 16.5724C8.05065 16.4717 7.96786 16.3881 7.86848 16.3299C7.7691 16.2718 7.65656 16.2411 7.54199 16.2409H5.58366C5.40685 16.2409 5.23728 16.1693 5.11225 16.0417C4.98723 15.9142 4.91699 15.7412 4.91699 15.5609V4.68005C4.91699 4.49969 4.98723 4.32672 5.11225 4.19918C5.23728 4.07165 5.40685 4 5.58366 4H20.2503C20.4271 4 20.5967 4.07165 20.7217 4.19918C20.8468 4.32672 20.917 4.49969 20.917 4.68005V15.5609C20.917 15.7412 20.8468 15.9142 20.7217 16.0417C20.5967 16.1693 20.4271 16.2409 20.2503 16.2409H12.292C12.1774 16.2411 12.0649 16.2718 11.9655 16.3299C11.8661 16.3881 11.7833 16.4717 11.7253 16.5724Z" stroke="#222222" stroke-linecap="round" stroke-linejoin="round"/>
</svg>
