<svg width="25" height="24" viewBox="0 0 25 24" fill="none" xmlns="http://www.w3.org/2000/svg">
<path d="M17.417 20C19.35 20 20.917 18.433 20.917 16.5C20.917 14.567 19.35 13 17.417 13C15.484 13 13.917 14.567 13.917 16.5C13.917 18.433 15.484 20 17.417 20Z" stroke="#222222" stroke-linecap="round" stroke-linejoin="round"/>
<path d="M19.917 19L14.917 14" stroke="#222222" stroke-linecap="round" stroke-linejoin="round"/>
<path d="M11.2503 16H6.25033C5.8967 16 5.55757 15.8595 5.30752 15.6095C5.05747 15.3594 4.91699 15.0203 4.91699 14.6667V5.33333C4.91699 4.97971 5.05747 4.64057 5.30752 4.39052C5.55757 4.14048 5.8967 4 6.25033 4H19.5837C19.9373 4 20.2765 4.14048 20.5265 4.39052C20.7765 4.64057 20.917 4.97971 20.917 5.33333V11" stroke="#222222" stroke-linecap="round" stroke-linejoin="round"/>
<path d="M4.91699 5.5L12.917 11.3435L20.917 5.5" stroke="#222222" stroke-linecap="round" stroke-linejoin="round"/>
</svg>
