<svg width="25" height="24" viewBox="0 0 25 24" fill="none" xmlns="http://www.w3.org/2000/svg">
<path d="M5.57908 8.10203C5.14823 8.37773 4.88758 8.85398 4.88758 9.36549V18.2727C4.88758 18.5763 4.99098 18.8797 5.19278 19.1136C5.39657 19.3498 5.69019 19.5 6.01503 19.5H19.819C20.1438 19.5 20.4374 19.3498 20.6412 19.1136C20.843 18.8797 20.9464 18.5763 20.9464 18.2727V9.36549C20.9464 8.85398 20.6858 8.37773 20.2549 8.10203L13.7255 3.92376C13.2326 3.60837 12.6014 3.60837 12.1085 3.92376L5.57908 8.10203Z" stroke="#222222" stroke-linecap="round" stroke-linejoin="round"/>
<path d="M20.917 9.58824L16.5087 14.4374C16.3192 14.6459 16.0505 14.7647 15.7687 14.7647H10.0652C9.7835 14.7647 9.51483 14.6459 9.3253 14.4374L4.91699 9.58824" stroke="#222222" stroke-linecap="round" stroke-linejoin="round"/>
</svg>
