<svg width="25" height="24" viewBox="0 0 25 24" fill="none" xmlns="http://www.w3.org/2000/svg">
<path d="M12.3712 5.3218L5.99477 17.4917C5.93349 17.6026 5.90745 17.7296 5.92012 17.8557C5.93279 17.9818 5.98357 18.1011 6.0657 18.1976C6.14783 18.2941 6.25741 18.3633 6.37986 18.396C6.50231 18.4287 6.63181 18.4234 6.75113 18.3806L12.7065 16.901C12.8415 16.8464 12.9925 16.8464 13.1275 16.901L19.0829 18.3806C19.2022 18.4234 19.3317 18.4287 19.4541 18.396C19.5766 18.3633 19.6862 18.2941 19.7683 18.1976C19.8504 18.1011 19.9012 17.9818 19.9139 17.8557C19.9265 17.7296 19.9005 17.6026 19.8392 17.4917L13.4628 5.3218C13.4089 5.2243 13.3298 5.14303 13.2338 5.08644C13.1378 5.02985 13.0284 5 12.917 5C12.8056 5 12.6962 5.02985 12.6002 5.08644C12.5042 5.14303 12.4251 5.2243 12.3712 5.3218Z" stroke="#222222" stroke-linecap="round" stroke-linejoin="round"/>
<path d="M12.917 16.823V13.8327" stroke="#222222" stroke-linecap="round" stroke-linejoin="round"/>
</svg>
