<svg width="25" height="24" viewBox="0 0 25 24" fill="none" xmlns="http://www.w3.org/2000/svg">
<path d="M17.4093 17.725L20.917 12.5L17.4093 7.27502C17.3536 7.18982 17.2772 7.11995 17.1871 7.07188C17.097 7.02381 16.9962 6.99909 16.8939 7.00003H5.53238C5.36917 7.00003 5.21264 7.06441 5.09723 7.17902C4.98183 7.29362 4.91699 7.44906 4.91699 7.61113V17.3889C4.91699 17.5509 4.98183 17.7064 5.09723 17.821C5.21264 17.9356 5.36917 18 5.53238 18H16.8939C16.9962 18.0009 17.097 17.9762 17.1871 17.9281C17.2772 17.8801 17.3536 17.8102 17.4093 17.725V17.725Z" stroke="#222222" stroke-linecap="round" stroke-linejoin="round"/>
<circle cx="16.417" cy="12.5" r="0.5" stroke="#222222"/>
</svg>
