<svg width="25" height="24" viewBox="0 0 25 24" fill="none" xmlns="http://www.w3.org/2000/svg">
<path d="M9.84064 20H15.9938" stroke="#222222" stroke-linecap="round" stroke-linejoin="round"/>
<path d="M9.12531 15.0005C8.39278 14.4309 7.79948 13.7021 7.39037 12.8692C6.98127 12.0363 6.76708 11.1213 6.76404 10.1933C6.74866 6.85525 9.43297 4.07864 12.7711 4.00173C14.063 3.9711 15.3317 4.348 16.3974 5.07897C17.4631 5.80993 18.2715 6.85786 18.7082 8.07413C19.1448 9.2904 19.1874 10.6133 18.83 11.8551C18.4725 13.097 17.7332 14.1948 16.7168 14.9928C16.4922 15.1663 16.3104 15.3889 16.1851 15.6436C16.0598 15.8982 15.9943 16.1781 15.9938 16.4619V16.9233C15.9938 17.0865 15.9289 17.243 15.8136 17.3584C15.6982 17.4738 15.5416 17.5387 15.3785 17.5387H10.4559C10.2927 17.5387 10.1362 17.4738 10.0208 17.3584C9.90545 17.243 9.84062 17.0865 9.84062 16.9233V16.4619C9.83869 16.1802 9.7734 15.9026 9.64957 15.6496C9.52574 15.3966 9.34656 15.1748 9.12531 15.0005V15.0005Z" stroke="#222222" stroke-linecap="round" stroke-linejoin="round"/>
</svg>
