<svg width="25" height="24" viewBox="0 0 25 24" fill="none" xmlns="http://www.w3.org/2000/svg">
<path d="M9.84009 14.5909L19.2924 17.8157C19.4775 17.8782 19.6744 17.8948 19.867 17.8641C20.0595 17.8335 20.2423 17.7564 20.4001 17.6394C20.5591 17.5235 20.689 17.3706 20.7789 17.1931C20.8688 17.0157 20.9161 16.8189 20.917 16.619V6.25152C20.9161 6.05166 20.8688 5.85489 20.7789 5.67747C20.689 5.50006 20.5591 5.34706 20.4001 5.23114C20.2412 5.11618 20.0581 5.0414 19.8654 5.01293C19.673 4.98448 19.4765 5.00313 19.2924 5.06738L9.84009 8.29227V14.5909Z" stroke="#222222" stroke-linecap="round" stroke-linejoin="round"/>
<path d="M4.91699 11.4416C4.91699 11.8552 4.99658 12.2647 5.15121 12.6468C5.30584 13.0289 5.53249 13.3761 5.8182 13.6685C6.39523 14.2591 7.17787 14.5909 7.99392 14.5909H9.84007V8.29231H7.99392C7.58985 8.29231 7.18974 8.37377 6.81643 8.53204C6.44312 8.69031 6.10392 8.92229 5.8182 9.21472C5.24117 9.80533 4.91699 10.6064 4.91699 11.4416Z" stroke="#222222" stroke-linecap="round" stroke-linejoin="round"/>
<path d="M7.9939 14.5909V15.8507C7.9939 16.2643 8.07348 16.6738 8.22811 17.0559C8.38275 17.4379 8.60939 17.7851 8.8951 18.0775C9.18083 18.37 9.52003 18.6019 9.89333 18.7603C10.2666 18.9185 10.6668 19 11.0708 19" stroke="#222222" stroke-linecap="round" stroke-linejoin="round"/>
</svg>
