<svg width="25" height="24" viewBox="0 0 25 24" fill="none" xmlns="http://www.w3.org/2000/svg">
<path d="M8.30161 10.7692C10.1709 10.7692 11.6862 9.25388 11.6862 7.38462C11.6862 5.51535 10.1709 4 8.30161 4C6.43234 4 4.91699 5.51535 4.91699 7.38462C4.91699 9.25388 6.43234 10.7692 8.30161 10.7692Z" stroke="#222222" stroke-linecap="round" stroke-linejoin="round"/>
<path d="M17.5324 10.7692C19.4017 10.7692 20.917 9.25388 20.917 7.38462C20.917 5.51535 19.4017 4 17.5324 4C15.6631 4 14.1478 5.51535 14.1478 7.38462C14.1478 9.25388 15.6631 10.7692 17.5324 10.7692Z" stroke="#222222" stroke-linecap="round" stroke-linejoin="round"/>
<path d="M8.30161 20C10.1709 20 11.6862 18.4847 11.6862 16.6154C11.6862 14.7461 10.1709 13.2308 8.30161 13.2308C6.43234 13.2308 4.91699 14.7461 4.91699 16.6154C4.91699 18.4847 6.43234 20 8.30161 20Z" stroke="#222222" stroke-linecap="round" stroke-linejoin="round"/>
<path d="M17.5324 20C19.4017 20 20.917 18.4847 20.917 16.6154C20.917 14.7461 19.4017 13.2308 17.5324 13.2308C15.6631 13.2308 14.1478 14.7461 14.1478 16.6154C14.1478 18.4847 15.6631 20 17.5324 20Z" stroke="#222222" stroke-linecap="round" stroke-linejoin="round"/>
</svg>
