<svg width="25" height="24" viewBox="0 0 25 24" fill="none" xmlns="http://www.w3.org/2000/svg">
<path d="M11.7477 12.0433C11.7477 12.8717 12.4 13.5433 13.2046 13.5433C14.0092 13.5433 14.6614 12.8717 14.6614 12.0433C14.6614 11.2149 14.0092 10.5433 13.2046 10.5433C12.4 10.5433 11.7477 11.2149 11.7477 12.0433Z" fill="#222222"/>
<path d="M18.5464 12.0433C18.5464 12.8717 19.1987 13.5433 20.0033 13.5433C20.8079 13.5433 21.4601 12.8717 21.4601 12.0433C21.4601 11.2149 20.8079 10.5433 20.0033 10.5433C19.1987 10.5433 18.5464 11.2149 18.5464 12.0433Z" fill="#222222"/>
<path d="M5.3739 12.0433C5.3739 12.8717 6.04547 13.5433 6.8739 13.5433C7.70233 13.5433 8.3739 12.8717 8.3739 12.0433C8.3739 11.2149 7.70233 10.5433 6.8739 10.5433C6.04547 10.5433 5.3739 11.2149 5.3739 12.0433Z" fill="#222222"/>
</svg>
