<?xml version="1.0" encoding="UTF-8" standalone="yes"?>
<svg width="25" height="25" viewBox="0 0 25 25" fill="none" xmlns="http://www.w3.org/2000/svg">
  <path d="M6.11699 6.4C6.77973 6.4 7.31699 5.86274 7.31699 5.2C7.31699 4.53726 6.77973 4 6.11699 4C5.45425 4 4.91699 4.53726 4.91699 5.2C4.91699 5.86274 5.45425 6.4 6.11699 6.4Z" fill="#222222"/>
  <path d="M12.917 6.4C13.5797 6.4 14.117 5.86274 14.117 5.2C14.117 4.53726 13.5797 4 12.917 4C12.2542 4 11.717 4.53726 11.717 5.2C11.717 5.86274 12.2542 6.4 12.917 6.4Z" fill="#222222"/>
  <path d="M19.717 6.4C20.3797 6.4 20.917 5.86274 20.917 5.2C20.917 4.53726 20.3797 4 19.717 4C19.0543 4 18.517 4.53726 18.517 5.2C18.517 5.86274 19.0543 6.4 19.717 6.4Z" fill="#222222"/>
  <path d="M6.11699 13.2C6.77973 13.2 7.31699 12.6627 7.31699 12C7.31699 11.3372 6.77973 10.8 6.11699 10.8C5.45425 10.8 4.91699 11.3372 4.91699 12C4.91699 12.6627 5.45425 13.2 6.11699 13.2Z" fill="#222222"/>
  <path d="M12.917 13.2C13.5797 13.2 14.117 12.6627 14.117 12C14.117 11.3372 13.5797 10.8 12.917 10.8C12.2542 10.8 11.717 11.3372 11.717 12C11.717 12.6627 12.2542 13.2 12.917 13.2Z" fill="#222222"/>
  <path d="M19.717 13.2C20.3797 13.2 20.917 12.6627 20.917 12C20.917 11.3372 20.3797 10.8 19.717 10.8C19.0543 10.8 18.517 11.3372 18.517 12C18.517 12.6627 19.0543 13.2 19.717 13.2Z" fill="#222222"/>
  <path d="M6.11699 20C6.77973 20 7.31699 19.4627 7.31699 18.8C7.31699 18.1373 6.77973 17.6 6.11699 17.6C5.45425 17.6 4.91699 18.1373 4.91699 18.8C4.91699 19.4627 5.45425 20 6.11699 20Z" fill="#222222"/>
  <path d="M12.917 20C13.5797 20 14.117 19.4627 14.117 18.8C14.117 18.1373 13.5797 17.6 12.917 17.6C12.2542 17.6 11.717 18.1373 11.717 18.8C11.717 19.4627 12.2542 20 12.917 20Z" fill="#222222"/>
  <path d="M19.717 20C20.3797 20 20.917 19.4627 20.917 18.8C20.917 18.1373 20.3797 17.6 19.717 17.6C19.0543 17.6 18.517 18.1373 18.517 18.8C18.517 19.4627 19.0543 20 19.717 20Z" fill="#222222"/>
</svg>