<?xml version="1.0" encoding="UTF-8" standalone="yes"?>
<svg width="25" height="25" viewBox="0 0 25 25" fill="none" xmlns="http://www.w3.org/2000/svg">
  <path d="M13.417 13.7125C14.2454 13.7125 14.917 13.0602 14.917 12.2556C14.917 11.451 14.2454 10.7987 13.417 10.7987C12.5886 10.7987 11.917 11.451 11.917 12.2556C11.917 13.0602 12.5886 13.7125 13.417 13.7125Z" fill="#222222"/>
  <path d="M13.417 6.91374C14.2454 6.91374 14.917 6.26148 14.917 5.45687C14.917 4.65226 14.2454 4 13.417 4C12.5886 4 11.917 4.65226 11.917 5.45687C11.917 6.26148 12.5886 6.91374 13.417 6.91374Z" fill="#222222"/>
  <path d="M13.417 20.0863C14.2454 20.0863 14.917 19.4147 14.917 18.5863C14.917 17.7578 14.2454 17.0863 13.417 17.0863C12.5886 17.0863 11.917 17.7578 11.917 18.5863C11.917 19.4147 12.5886 20.0863 13.417 20.0863Z" fill="#222222"/>
</svg>