<?xml version="1.0" encoding="UTF-8" standalone="yes"?>
<svg width="25" height="25" viewBox="0 0 25 25" fill="none" xmlns="http://www.w3.org/2000/svg">
  <path d="M19.1896 8.04346H6.64436C6.49154 8.04416 6.34421 8.09938 6.22991 8.19881C6.11562 8.29823 6.04217 8.43504 6.02331 8.58367L4.92094 18.3228C4.91113 18.4077 4.91966 18.4936 4.94595 18.575C4.97225 18.6564 5.01573 18.7315 5.07358 18.7954C5.13142 18.8592 5.20233 18.9105 5.28169 18.9457C5.36105 18.981 5.4471 18.9995 5.53423 19H20.2998C20.3869 18.9995 20.4729 18.981 20.5523 18.9457C20.6317 18.9105 20.7026 18.8592 20.7604 18.7954C20.8183 18.7315 20.8617 18.6564 20.888 18.575C20.9143 18.4936 20.9229 18.4077 20.913 18.3228L19.8107 8.58367C19.7918 8.43504 19.7184 8.29823 19.6041 8.19881C19.4898 8.09938 19.3424 8.04416 19.1896 8.04346V8.04346Z" stroke="#222222" stroke-linecap="round" stroke-linejoin="round"/>
  <path opacity="0.4" d="M9.81174 10.4783V8.04348C9.81174 7.2363 10.1389 6.46218 10.7212 5.89141C11.3036 5.32065 12.0934 5 12.917 5C13.7406 5 14.5304 5.32065 15.1128 5.89141C15.6951 6.46218 16.0223 7.2363 16.0223 8.04348V10.4783" stroke="#222222" stroke-linecap="round" stroke-linejoin="round"/>
</svg>