<?xml version="1.0" encoding="UTF-8" standalone="yes"?>
<svg width="25" height="25" viewBox="0 0 25 25" fill="none" xmlns="http://www.w3.org/2000/svg">
  <path d="M19.1896 19H6.64436C6.49154 18.9993 6.34421 18.9441 6.22991 18.8446C6.11562 18.7452 6.04217 18.6084 6.02331 18.4598L4.92094 8.72063C4.91113 8.63577 4.91966 8.54985 4.94595 8.46843C4.97225 8.38701 5.01573 8.31193 5.07358 8.24806C5.13142 8.1842 5.20233 8.13297 5.28169 8.09772C5.36105 8.06247 5.4471 8.04398 5.53423 8.04346H20.2998C20.3869 8.04398 20.4729 8.06247 20.5523 8.09772C20.6317 8.13297 20.7026 8.1842 20.7604 8.24806C20.8183 8.31193 20.8617 8.38701 20.888 8.46843C20.9143 8.54985 20.9229 8.63577 20.913 8.72063L19.8107 18.4598C19.7918 18.6084 19.7184 18.7452 19.6041 18.8446C19.4898 18.9441 19.3424 18.9993 19.1896 19V19Z" stroke="#222222" stroke-linecap="round" stroke-linejoin="round"/>
  <path opacity="0.4" d="M9.81172 10.4783V8.04348C9.81172 7.2363 10.1389 6.46218 10.7212 5.89141C11.3036 5.32065 12.0934 5 12.917 5C13.7406 5 14.5304 5.32065 15.1127 5.89141C15.6951 6.46218 16.0223 7.2363 16.0223 8.04348V10.4783" stroke="#222222" stroke-linecap="round" stroke-linejoin="round"/>
</svg>