<?xml version="1.0" encoding="UTF-8" standalone="yes"?>
<svg width="25" height="25" viewBox="0 0 25 25" fill="none" xmlns="http://www.w3.org/2000/svg">
  <path d="M4.91699 4H7.92448L8.99587 14.6462C9.0404 14.9396 9.18956 15.2071 9.41586 15.3994C9.64216 15.5916 9.93036 15.6956 10.2273 15.6923H17.9857C18.2543 15.7063 18.52 15.6321 18.7423 15.481C18.9647 15.3298 19.1314 15.1101 19.2172 14.8554L20.855 9.93231C20.9161 9.74722 20.9324 9.55028 20.9023 9.35771C20.8724 9.16513 20.797 8.98242 20.6826 8.82462C20.5634 8.65684 20.4039 8.52161 20.219 8.4313C20.034 8.341 19.8292 8.2985 19.6235 8.30769H8.3555" stroke="#222222" stroke-linecap="round" stroke-linejoin="round"/>
  <path opacity="0.4" d="M17.776 20C17.4362 20 17.1606 19.7244 17.1606 19.3846C17.1606 19.0448 17.4362 18.7692 17.776 18.7692C18.1158 18.7692 18.3914 19.0448 18.3914 19.3846C18.3914 19.7244 18.1158 20 17.776 20Z" stroke="#222222" stroke-linecap="round" stroke-linejoin="round"/>
  <path opacity="0.4" d="M9.77136 20C9.43148 20 9.15598 19.7244 9.15598 19.3846C9.15598 19.0448 9.43148 18.7692 9.77136 18.7692C10.1112 18.7692 10.3867 19.0448 10.3867 19.3846C10.3867 19.7244 10.1112 20 9.77136 20Z" stroke="#222222" stroke-linecap="round" stroke-linejoin="round"/>
</svg>