<?xml version="1.0" encoding="UTF-8" standalone="yes"?>
<svg width="25" height="25" viewBox="0 0 25 25" fill="none" xmlns="http://www.w3.org/2000/svg">
  <path d="M13.417 20H6.14776C5.46803 20 4.91699 19.449 4.91699 18.7692V5.23077C4.91699 4.55103 5.46803 4 6.14776 4H19.6862C20.366 4 20.917 4.55103 20.917 5.23077V12.5" stroke="#222222" stroke-linecap="round" stroke-linejoin="round"/>
  <path opacity="0.4" d="M18.2882 14.7444L18.2882 19.1484" stroke="#222222" stroke-width="0.8" stroke-linecap="round" stroke-linejoin="round"/>
  <path opacity="0.4" d="M20.8052 17.2443L18.2884 20.0657L15.8052 17.2443" stroke="#222222" stroke-width="0.8" stroke-linecap="round" stroke-linejoin="round"/>
  <path d="M15.3785 4V9.39541C15.3785 9.53851 15.3137 9.67575 15.1983 9.77692C15.0829 9.87811 14.9263 9.93496 14.7631 9.93496L13.8401 8.93496L12.917 9.93496L11.9939 8.93496L11.0708 9.93496C10.9076 9.93496 10.7511 9.87811 10.6357 9.77692C10.5203 9.67575 10.4554 9.53851 10.4554 9.39541V4" stroke="#222222" stroke-linecap="round" stroke-linejoin="round"/>
</svg>