<?xml version="1.0" encoding="UTF-8" standalone="yes"?>
<svg width="25" height="25" viewBox="0 0 25 25" fill="none" xmlns="http://www.w3.org/2000/svg">
  <path d="M13.417 20H6.14776C5.46803 20 4.91699 19.449 4.91699 18.7692V5.23077C4.91699 4.55103 5.46803 4 6.14776 4H19.6862C20.366 4 20.917 4.55103 20.917 5.23077V12.5" stroke="#222222" stroke-linecap="round" stroke-linejoin="round"/>
  <path d="M15.3785 4V9.39541C15.3785 9.53851 15.3137 9.67575 15.1983 9.77692C15.0829 9.87811 14.9264 9.93496 14.7632 9.93496L13.8401 8.93496L12.917 9.93496L11.9939 8.93496L11.0708 9.93496C10.9076 9.93496 10.7511 9.87811 10.6357 9.77692C10.5203 9.67575 10.4555 9.53851 10.4555 9.39541V4" stroke="#222222" stroke-linecap="round" stroke-linejoin="round"/>
  <path opacity="0.4" d="M19.9087 16.537C20.0844 18.2348 17.4205 20.1538 17.4205 20.1538C17.4205 20.1538 14.6888 18.2653 14.9324 16.537C14.9324 15.1552 16.0653 14 17.4205 14C18.7757 14 19.9087 15.1552 19.9087 16.537Z" stroke="#222222" stroke-width="0.8" stroke-linecap="round" stroke-linejoin="round"/>
  <path opacity="0.4" d="M17.417 17.457C17.9379 17.457 18.3601 17.0265 18.3601 16.4955C18.3601 15.9645 17.9379 15.534 17.417 15.534C16.8962 15.534 16.474 15.9645 16.474 16.4955C16.474 17.0265 16.8962 17.457 17.417 17.457Z" stroke="#222222" stroke-width="0.8" stroke-linecap="round" stroke-linejoin="round"/>
</svg>