<?xml version="1.0" encoding="UTF-8" standalone="yes"?>
<svg width="25" height="25" viewBox="0 0 25 25" fill="none" xmlns="http://www.w3.org/2000/svg">
  <path d="M12.417 20H5.14776C4.46803 20 3.91699 19.449 3.91699 18.7692V5.23077C3.91699 4.55103 4.46803 4 5.14776 4H18.6862C19.366 4 19.917 4.55103 19.917 5.23077V12.5" stroke="#222222" stroke-linecap="round" stroke-linejoin="round"/>
  <path d="M14.3785 4V9.39541C14.3785 9.53851 14.3137 9.67575 14.1983 9.77692C14.0829 9.87811 13.9264 9.93496 13.7632 9.93496L12.8401 8.93496L11.917 9.93496L10.9939 8.93496L10.0708 9.93496C9.90763 9.93496 9.7511 9.87811 9.63571 9.77692C9.5203 9.67575 9.45546 9.53851 9.45546 9.39541V4" stroke="#222222" stroke-linecap="round" stroke-linejoin="round"/>
  <path opacity="0.4" d="M17.3169 14.6716V20.3285" stroke="#222222" stroke-width="0.8" stroke-linecap="round" stroke-linejoin="round"/>
  <path opacity="0.4" d="M20.1453 17.5001H14.4885" stroke="#222222" stroke-width="0.8" stroke-linecap="round" stroke-linejoin="round"/>
</svg>