<?xml version="1.0" encoding="UTF-8" standalone="yes"?>
<svg width="25" height="25" viewBox="0 0 25 25" fill="none" xmlns="http://www.w3.org/2000/svg">
  <path d="M13.161 20H5.89178C5.21204 20 4.66101 19.449 4.66101 18.7692V5.23077C4.66101 4.55103 5.21204 4 5.89178 4H19.4302C20.11 4 20.661 4.55103 20.661 5.23077V12.5" stroke="#222222" stroke-linecap="round" stroke-linejoin="round"/>
  <path d="M15.1226 4V9.39541C15.1226 9.53851 15.0577 9.67575 14.9423 9.77692C14.8269 9.87811 14.6704 9.93496 14.5072 9.93496L13.5841 8.93496L12.661 9.93496L11.7379 8.93496L10.8149 9.93496C10.6517 9.93496 10.4951 9.87811 10.3797 9.77692C10.2643 9.67575 10.1995 9.53851 10.1995 9.39541V4" stroke="#222222" stroke-linecap="round" stroke-linejoin="round"/>
  <path opacity="0.4" d="M19.0254 15.0369H20.4549C20.5084 15.0366 20.5607 15.0524 20.6051 15.0824C20.6494 15.1123 20.6836 15.155 20.7032 15.2047L21.173 16.3792" fill="#222222"/>
  <path opacity="0.4" d="M19.3274 19.5C19.7166 19.5 20.0321 19.1845 20.0321 18.7953C20.0321 18.4061 19.7166 18.0906 19.3274 18.0906C18.9382 18.0906 18.6227 18.4061 18.6227 18.7953C18.6227 19.1845 18.9382 19.5 19.3274 19.5Z" fill="#222222"/>
  <path opacity="0.4" d="M16.5981 19.5C16.9873 19.5 17.3028 19.1845 17.3028 18.7953C17.3028 18.4061 16.9873 18.0906 16.5981 18.0906C16.209 18.0906 15.8934 18.4061 15.8934 18.7953C15.8934 19.1845 16.209 19.5 16.5981 19.5Z" fill="#222222"/>
  <path opacity="0.4" d="M18.6227 18.7953L17.4745 18.7953" fill="#222222"/>
  <path opacity="0.4" d="M15.8055 18.7953H15.3177C15.2659 18.7953 15.2163 18.767 15.1797 18.7167C15.1431 18.6663 15.1225 18.598 15.1225 18.5268V14.7685C15.1225 14.6973 15.1431 14.629 15.1797 14.5786C15.2163 14.5283 15.2659 14.5 15.3177 14.5H19.0254V18.0973" fill="#222222"/>
  <path opacity="0.4" d="M19.0254 16.3792H21.173V18.5268C21.173 18.598 21.1448 18.6663 21.0944 18.7167C21.0441 18.767 20.9758 18.7953 20.9046 18.7953H20.2334" fill="#222222"/>
</svg>