<svg width="25" height="24" viewBox="0 0 25 24" fill="none" xmlns="http://www.w3.org/2000/svg">
<path d="M20.917 14.3077V18.7692C20.917 19.0956 20.7873 19.4087 20.5565 19.6395C20.3257 19.8703 20.0126 20 19.6862 20H16.2247" stroke="#222222" stroke-linecap="round" stroke-linejoin="round"/>
<path d="M16.2247 4H19.6862C20.0126 4 20.3257 4.12967 20.5565 4.36048C20.7873 4.5913 20.917 4.90434 20.917 5.23077V9.69231" stroke="#222222" stroke-linecap="round" stroke-linejoin="round"/>
<path d="M4.91699 9.69231V5.23077C4.91699 4.90434 5.04666 4.5913 5.27748 4.36048C5.50829 4.12967 5.82134 4 6.14776 4H9.6093" stroke="#222222" stroke-linecap="round" stroke-linejoin="round"/>
<path d="M9.6093 20H6.14776C5.82134 20 5.50829 19.8703 5.27748 19.6395C5.04666 19.4087 4.91699 19.0956 4.91699 18.7692V14.3077" stroke="#222222" stroke-linecap="round" stroke-linejoin="round"/>
<path d="M12.917 8.9231V13.2308H11.0709" stroke="#222222" stroke-linecap="round" stroke-linejoin="round"/>
<path d="M9.84009 15.6923C10.6704 16.481 11.7718 16.9208 12.917 16.9208C14.0622 16.9208 15.1636 16.481 15.9939 15.6923" stroke="#222222" stroke-linecap="round" stroke-linejoin="round"/>
<path d="M9.22468 9.23074C9.05475 9.23074 8.91699 9.09298 8.91699 8.92305C8.91699 8.75312 9.05475 8.61536 9.22468 8.61536" stroke="#222222" stroke-linecap="round" stroke-linejoin="round"/>
<path d="M9.22467 9.23074C9.3946 9.23074 9.53236 9.09298 9.53236 8.92305C9.53236 8.75312 9.3946 8.61536 9.22467 8.61536" stroke="#222222" stroke-linecap="round" stroke-linejoin="round"/>
<path d="M16.6093 9.23074C16.4394 9.23074 16.3016 9.09298 16.3016 8.92305C16.3016 8.75312 16.4394 8.61536 16.6093 8.61536" stroke="#222222" stroke-linecap="round" stroke-linejoin="round"/>
<path d="M16.6093 9.23074C16.7793 9.23074 16.917 9.09298 16.917 8.92305C16.917 8.75312 16.7793 8.61536 16.6093 8.61536" stroke="#222222" stroke-linecap="round" stroke-linejoin="round"/>
</svg>
