<svg width="25" height="24" viewBox="0 0 25 24" fill="none" xmlns="http://www.w3.org/2000/svg">
<path d="M17.0657 8.04464C15.8439 7.25067 14.4281 6.66077 12.917 6.66077C9.48316 6.66077 6.54158 9.70696 5.24928 11.2716C5.04521 11.526 4.93223 11.8566 4.93223 12.1993C4.93223 12.542 5.04521 12.8726 5.24928 13.127C5.96165 13.9895 7.17518 15.3021 8.69592 16.3066M11.0709 17.4542C11.6645 17.6338 12.2824 17.7378 12.917 17.7378C16.3509 17.7378 19.2924 14.6916 20.5847 13.127C20.7888 12.8726 20.9018 12.542 20.9018 12.1993C20.9018 11.8566 20.7888 11.526 20.5847 11.2716C20.1753 10.7759 19.6003 10.1314 18.8965 9.48227" stroke="#222222" stroke-linecap="round" stroke-linejoin="round"/>
<path d="M11.1764 13.9398C10.2151 12.9785 10.2151 11.42 11.1764 10.4587C12.1377 9.49741 13.6962 9.49741 14.6575 10.4587" stroke="#222222" stroke-linecap="round" stroke-linejoin="round"/>
<path d="M4.91699 20.1992L20.917 4.19922" stroke="#222222" stroke-linecap="round" stroke-linejoin="round"/>
</svg>
