<svg width="25" height="25" viewBox="0 0 25 25" fill="none" xmlns="http://www.w3.org/2000/svg">
<path d="M16.5206 8.28231C15.2988 7.48835 13.883 6.89844 12.3719 6.89844C8.93805 6.89844 5.99648 9.94463 4.70417 11.5093C4.50011 11.7637 4.38712 12.0942 4.38712 12.437C4.38712 12.7797 4.50011 13.1103 4.70417 13.3647C5.41654 14.2271 6.63008 15.5398 8.15082 16.5442M10.5257 17.6919C11.1194 17.8715 11.7373 17.9755 12.3719 17.9755C15.8057 17.9755 18.7473 14.9293 20.0396 13.3647C20.2437 13.1103 20.3567 12.7797 20.3567 12.437C20.3567 12.0942 20.2437 11.7637 20.0396 11.5093C19.6302 11.0135 19.0552 10.3691 18.3514 9.71994" stroke="#222222" stroke-linecap="round" stroke-linejoin="round"/>
<path d="M10.6312 14.1775C9.66988 13.2162 9.66988 11.6577 10.6312 10.6964C11.5925 9.73508 13.151 9.73508 14.1123 10.6964" stroke="#222222" stroke-linecap="round" stroke-linejoin="round"/>
<path d="M4.37183 20.4369L20.3718 4.43689" stroke="#222222" stroke-linecap="round" stroke-linejoin="round"/>
</svg>
