<svg width="25" height="24" viewBox="0 0 25 24" fill="none" xmlns="http://www.w3.org/2000/svg">
<path d="M17.8401 10.1539H7.99395C7.31422 10.1539 6.76318 10.7049 6.76318 11.3846V18.7693C6.76318 19.449 7.31422 20 7.99395 20H17.8401C18.5199 20 19.0709 19.449 19.0709 18.7693V11.3846C19.0709 10.7049 18.5199 10.1539 17.8401 10.1539Z" stroke="#222222" stroke-linecap="round" stroke-linejoin="round"/>
<path d="M17.2247 10.1538V8.30769C17.2247 7.16522 16.7709 6.06954 15.963 5.2617C15.1552 4.45384 14.0595 4 12.917 4C11.7745 4 10.6789 4.45384 9.87101 5.2617C9.06316 6.06954 8.60931 7.16522 8.60931 8.30769V10.1538" stroke="#222222" stroke-linecap="round" stroke-linejoin="round"/>
<path fill-rule="evenodd" clip-rule="evenodd" d="M12.917 13.9615C12.301 13.9615 11.8016 14.4609 11.8016 15.0769C11.8016 15.5132 12.0521 15.8909 12.417 16.0742V16.9226C12.417 17.1987 12.6409 17.4226 12.917 17.4226C13.1932 17.4226 13.417 17.1987 13.417 16.9226V16.0742C13.782 15.8909 14.0324 15.5132 14.0324 15.0769C14.0324 14.4609 13.533 13.9615 12.917 13.9615Z" fill="#222222"/>
</svg>
