<svg width="25" height="24" viewBox="0 0 25 24" fill="none" xmlns="http://www.w3.org/2000/svg">
<path d="M17.84 10.1539H7.99389C7.31416 10.1539 6.76312 10.7049 6.76312 11.3846V18.7693C6.76312 19.449 7.31416 20 7.99389 20H17.84C18.5198 20 19.0708 19.449 19.0708 18.7693V11.3846C19.0708 10.7049 18.5198 10.1539 17.84 10.1539Z" stroke="#222222" stroke-linecap="round" stroke-linejoin="round"/>
<path d="M17.2246 7.30769C16.782 6.27287 16.7709 6.06954 15.9629 5.2617C15.1551 4.45385 14.0594 4 12.9169 4C11.7745 4 10.6788 4.45385 9.87095 5.2617C9.0631 6.06954 8.60925 7.16522 8.60925 8.30769V10.1538" stroke="#222222" stroke-linecap="round" stroke-linejoin="round"/>
<path fill-rule="evenodd" clip-rule="evenodd" d="M12.917 13.9615C12.301 13.9615 11.8016 14.4609 11.8016 15.0769C11.8016 15.5132 12.052 15.8909 12.417 16.0742V16.9226C12.417 17.1987 12.6408 17.4226 12.917 17.4226C13.1931 17.4226 13.417 17.1987 13.417 16.9226V16.0742C13.7819 15.8909 14.0323 15.5132 14.0323 15.0769C14.0323 14.4609 13.533 13.9615 12.917 13.9615Z" fill="#222222"/>
</svg>
