<svg width="25" height="24" viewBox="0 0 25 24" fill="none" xmlns="http://www.w3.org/2000/svg">
<path d="M11.6862 7.0769H9.22467C8.54494 7.0769 7.9939 7.62794 7.9939 8.30767V10.7692C7.9939 11.4489 8.54494 12 9.22467 12H11.6862C12.3659 12 12.917 11.4489 12.917 10.7692V8.30767C12.917 7.62794 12.3659 7.0769 11.6862 7.0769Z" stroke="#222222" stroke-linecap="round" stroke-linejoin="round"/>
<path d="M7.99392 4H6.14776C5.82134 4 5.50829 4.12967 5.27748 4.36048C5.04666 4.5913 4.91699 4.90434 4.91699 5.23077V7.07692" stroke="#222222" stroke-linecap="round" stroke-linejoin="round"/>
<path d="M17.8401 4H19.6862C20.0126 4 20.3257 4.12967 20.5565 4.36048C20.7873 4.5913 20.917 4.90434 20.917 5.23077V7.07692" stroke="#222222" stroke-linecap="round" stroke-linejoin="round"/>
<path d="M7.99392 20H6.14776C5.82134 20 5.50829 19.8703 5.27748 19.6395C5.04666 19.4088 4.91699 19.0956 4.91699 18.7692V16.9231" stroke="#222222" stroke-linecap="round" stroke-linejoin="round"/>
<path d="M17.8401 20H19.6862C20.0126 20 20.3257 19.8703 20.5565 19.6395C20.7873 19.4088 20.917 19.0956 20.917 18.7692V16.9231" stroke="#222222" stroke-linecap="round" stroke-linejoin="round"/>
<path d="M7.9939 15.0769V16.9231H9.84005" stroke="#222222" stroke-linecap="round" stroke-linejoin="round"/>
<path d="M12.917 16.9231V15.0769H11.0709" stroke="#222222" stroke-linecap="round" stroke-linejoin="round"/>
<path d="M17.8401 8.92306H15.9939V7.0769" stroke="#222222" stroke-linecap="round" stroke-linejoin="round"/>
<path d="M17.8401 13.2308V11.3846H15.9939" stroke="#222222" stroke-linecap="round" stroke-linejoin="round"/>
<path d="M15.9939 15.0769V16.9231H17.8401" stroke="#222222" stroke-linecap="round" stroke-linejoin="round"/>
</svg>
