<svg width="25" height="25" viewBox="0 0 25 25" fill="none" xmlns="http://www.w3.org/2000/svg">
<path opacity="0.35" d="M13.5821 21.4165L12.7955 21.735C12.5118 21.8455 12.1992 21.8455 11.9155 21.735L11.1288 21.4165C9.13624 20.6053 7.42475 19.1903 6.2168 17.3557C5.00884 15.5209 4.36031 13.3513 4.35547 11.1287V7.27945C5.86546 7.50293 7.40554 7.29935 8.81347 6.69014C10.2214 6.08094 11.445 5.08867 12.3555 3.81787C14.0221 6.3379 16.7821 7.52868 20.3555 7.27945V11.1287C20.3507 13.3513 19.7021 15.5209 18.4941 17.3557C17.2861 19.1903 15.5747 20.6053 13.5821 21.4165Z" fill="#222222"/>
<path d="M13.5821 21.4165L12.7955 21.735C12.5118 21.8455 12.1992 21.8455 11.9155 21.735L11.1288 21.4165C9.13624 20.6053 7.42475 19.1903 6.2168 17.3557C5.00884 15.5209 4.36031 13.3513 4.35547 11.1287V7.27945C5.86546 7.50293 7.40554 7.29935 8.81347 6.69014C10.2214 6.08094 11.445 5.08867 12.3555 3.81787C14.0221 6.3379 16.7821 7.52868 20.3555 7.27945V11.1287C20.3507 13.3513 19.7021 15.5209 18.4941 17.3557C17.2861 19.1903 15.5747 20.6053 13.5821 21.4165Z" stroke="#222222" stroke-linecap="round" stroke-linejoin="round"/>
</svg>
