<svg width="25" height="24" viewBox="0 0 25 24" fill="none" xmlns="http://www.w3.org/2000/svg">
<path d="M20.417 4L4.91699 19.5" stroke="#222222" stroke-linecap="round" stroke-linejoin="round"/>
<path d="M7.917 16.5C9.62335 18.3923 11.5678 19.2308 12.2186 19.4384C12.3466 19.4844 12.4874 19.4844 12.6154 19.4384C13.7424 19.0769 19.4011 16.9384 19.4011 10.4769V5.96153C19.4011 5.79832 19.3342 5.64179 19.2152 5.52638C19.0961 5.41098 19.0854 5.49999 18.917 5.49999" stroke="#222222" stroke-linecap="round" stroke-linejoin="round"/>
<path d="M14.7582 5.34613H6.06776C5.89937 5.34613 5.73788 5.41097 5.61881 5.52637C5.49974 5.64178 5.43284 5.7983 5.43284 5.96151V10.4769C5.43284 12.0231 5.75824 13.3154 6.26618 14.4" stroke="#222222" stroke-linecap="round" stroke-linejoin="round"/>
</svg>
