<svg width="25" height="25" viewBox="0 0 25 25" fill="none" xmlns="http://www.w3.org/2000/svg">
<path d="M8.37842 5.81787H17.8267C17.4289 5.81787 17.099 5.97591 16.8177 6.25721C16.5364 6.53851 16.3784 6.92005 16.3784 7.31787V17.4049C16.3784 18.0268 15.7 18.4108 15.1668 18.0909L14.29 17.5648C14.0367 17.4128 13.7202 17.4128 13.4668 17.5648L11.79 18.5709C11.5367 18.7229 11.2202 18.7229 10.9668 18.5709L9.29001 17.5648C9.03667 17.4128 8.72017 17.4128 8.46682 17.5648L7.59001 18.0909C7.05679 18.4108 6.37842 18.0268 6.37842 17.4049V7.81787C6.37842 7.28744 6.58913 6.77873 6.96421 6.40366C7.33928 6.02859 7.84799 5.81787 8.37842 5.81787Z" stroke="#222222" stroke-linecap="round" stroke-linejoin="round"/>
<path opacity="0.4" d="M16.3784 7.31787C16.3784 6.92005 16.5364 6.53851 16.8177 6.25721C17.099 5.97591 17.4806 5.81787 17.8784 5.81787C18.2762 5.81787 18.6578 5.97591 18.9391 6.25721C19.2204 6.53851 19.3784 6.92005 19.3784 7.31787V10.0179C19.3784 10.4597 19.0202 10.8179 18.5784 10.8179H16.3784" stroke="#222222" stroke-linecap="round" stroke-linejoin="round"/>
</svg>
