<svg width="25" height="25" viewBox="0 0 25 25" fill="none" xmlns="http://www.w3.org/2000/svg">
<path d="M7.88501 5.77789H17.3333C16.9355 5.77789 16.6056 5.93593 16.3243 6.21723C16.043 6.49853 15.885 6.88007 15.885 7.27789V17.3649C15.885 17.9868 15.2066 18.3709 14.6734 18.0509L13.7966 17.5249C13.5433 17.3728 13.2268 17.3728 12.9734 17.5249L11.2966 18.5309C11.0433 18.6829 10.7268 18.6829 10.4734 18.5309L8.79661 17.5249C8.54326 17.3728 8.22676 17.3728 7.97341 17.5249L7.09661 18.0509C6.56339 18.3709 5.88501 17.9868 5.88501 17.3649V7.77789C5.88501 7.24746 6.09572 6.73875 6.4708 6.36368C6.84587 5.98861 7.35458 5.77789 7.88501 5.77789Z" stroke="#222222" stroke-linecap="round" stroke-linejoin="round"/>
<path opacity="0.4" d="M15.885 7.27789C15.885 6.88007 16.043 6.49853 16.3243 6.21723C16.6056 5.93593 16.9872 5.77789 17.385 5.77789C17.7828 5.77789 18.1644 5.93593 18.4457 6.21723C18.727 6.49853 18.885 6.88007 18.885 7.27789V9.97789C18.885 10.4197 18.5268 10.7779 18.085 10.7779H15.885" stroke="#222222" stroke-linecap="round" stroke-linejoin="round"/>
</svg>
