<?xml version="1.0" encoding="UTF-8" standalone="yes"?>
<svg width="25" height="25" viewBox="0 0 25 25" fill="none" xmlns="http://www.w3.org/2000/svg">
  <path d="M9.07715 11.68H14.8371C15.6858 11.68 16.4998 12.0172 17.0999 12.6173C17.7 13.2174 18.0371 14.0314 18.0371 14.88C18.0371 15.7287 17.7 16.5427 17.0999 17.1428C16.4998 17.7429 15.6858 18.08 14.8371 18.08H9.07715V5.92004H13.8771C14.641 5.92004 15.3735 6.22347 15.9136 6.76358C16.4537 7.30368 16.7571 8.03622 16.7571 8.80004C16.7571 9.56387 16.4537 10.2964 15.9136 10.8365C15.3735 11.3766 14.641 11.68 13.8771 11.68" stroke="#222222" stroke-linecap="round" stroke-linejoin="round"/>
  <path d="M7.79712 5.92004H9.07712" stroke="#222222" stroke-linecap="round" stroke-linejoin="round"/>
  <path d="M7.79712 18.08H9.07712" stroke="#222222" stroke-linecap="round" stroke-linejoin="round"/>
  <path opacity="0.4" d="M10.9971 5.92V4" stroke="#222222" stroke-linecap="round" stroke-linejoin="round"/>
  <path opacity="0.4" d="M13.5571 5.92V4" stroke="#222222" stroke-linecap="round" stroke-linejoin="round"/>
  <path opacity="0.4" d="M10.9971 20V18.08" stroke="#222222" stroke-linecap="round" stroke-linejoin="round"/>
  <path opacity="0.4" d="M13.5571 20V18.08" stroke="#222222" stroke-linecap="round" stroke-linejoin="round"/>
</svg>