<?xml version="1.0" encoding="UTF-8" standalone="yes"?>
<svg width="25" height="25" viewBox="0 0 25 25" fill="none" xmlns="http://www.w3.org/2000/svg">
  <path d="M12.917 20C17.3353 20 20.917 16.4183 20.917 12C20.917 7.58172 17.3353 4 12.917 4C8.49871 4 4.91699 7.58172 4.91699 12C4.91699 16.4183 8.49871 20 12.917 20Z" stroke="#222222" stroke-miterlimit="10"/>
  <path opacity="0.4" d="M14.6189 10.2225C14.5604 10.0569 14.4701 9.9063 14.3553 9.77806C14.1111 9.50528 13.7563 9.33362 13.3614 9.33362H12.3294C11.6721 9.33362 11.1392 9.86648 11.1392 10.5238C11.1392 11.0831 11.5287 11.5669 12.0751 11.6865L13.6464 12.0302C14.2585 12.1641 14.6948 12.7065 14.6948 13.3331C14.6948 14.0695 14.0978 14.6669 13.3614 14.6669H12.4726C11.892 14.6669 11.3981 14.2959 11.2151 13.7781" stroke="#222222" stroke-width="0.8" stroke-linecap="round" stroke-linejoin="round"/>
  <path opacity="0.4" d="M12.9171 9.33345V8.00012" stroke="#222222" stroke-width="0.8" stroke-linecap="round" stroke-linejoin="round"/>
  <path opacity="0.4" d="M12.9171 15.9999V14.6666" stroke="#222222" stroke-width="0.8" stroke-linecap="round" stroke-linejoin="round"/>
</svg>