<?xml version="1.0" encoding="UTF-8" standalone="yes"?>
<svg width="25" height="25" viewBox="0 0 25 25" fill="none" xmlns="http://www.w3.org/2000/svg">
  <path d="M12.917 19.9999C17.3353 19.9999 20.917 16.4182 20.917 11.9999C20.917 7.5816 17.3353 3.99988 12.917 3.99988C8.49871 3.99988 4.91699 7.5816 4.91699 11.9999C4.91699 16.4182 8.49871 19.9999 12.917 19.9999Z" stroke="#222222" stroke-miterlimit="10"/>
  <path opacity="0.4" d="M10.997 11.8398H13.877C14.3014 11.8398 14.7083 12.0084 15.0084 12.3085C15.3084 12.6085 15.477 13.0155 15.477 13.4398C15.477 13.8642 15.3084 14.2712 15.0084 14.5712C14.7083 14.8713 14.3014 15.0398 13.877 15.0398H10.997V8.95984H13.397C13.7789 8.95984 14.1452 9.11155 14.4152 9.38161C14.6853 9.65166 14.837 10.0179 14.837 10.3998C14.837 10.7818 14.6853 11.148 14.4152 11.4181C14.1452 11.6881 13.7789 11.8398 13.397 11.8398" stroke="#222222" stroke-width="0.8" stroke-linecap="round" stroke-linejoin="round"/>
  <path opacity="0.4" d="M10.357 8.95984H10.997" stroke="#222222" stroke-width="0.8" stroke-linecap="round" stroke-linejoin="round"/>
  <path opacity="0.4" d="M10.357 15.0399H10.997" stroke="#222222" stroke-width="0.8" stroke-linecap="round" stroke-linejoin="round"/>
  <path opacity="0.4" d="M11.957 8.95988V7.99988" stroke="#222222" stroke-width="0.8" stroke-linecap="round" stroke-linejoin="round"/>
  <path opacity="0.4" d="M13.237 8.95988V7.99988" stroke="#222222" stroke-width="0.8" stroke-linecap="round" stroke-linejoin="round"/>
  <path opacity="0.4" d="M11.957 15.9999V15.0399" stroke="#222222" stroke-width="0.8" stroke-linecap="round" stroke-linejoin="round"/>
  <path opacity="0.4" d="M13.237 15.9999V15.0399" stroke="#222222" stroke-width="0.8" stroke-linecap="round" stroke-linejoin="round"/>
</svg>