<?xml version="1.0" encoding="UTF-8" standalone="yes"?>
<svg width="25" height="25" viewBox="0 0 25 25" fill="none" xmlns="http://www.w3.org/2000/svg">
  <path d="M12.917 20C17.3353 20 20.917 16.4183 20.917 12C20.917 7.58172 17.3353 4 12.917 4C8.49871 4 4.91699 7.58172 4.91699 12C4.91699 16.4183 8.49871 20 12.917 20Z" stroke="#222222" stroke-miterlimit="10"/>
  <path opacity="0.4" d="M15.9795 15.8021C15.4226 16.3742 14.7131 16.7637 13.9408 16.9214C13.1685 17.0792 12.368 16.9982 11.6405 16.6886C10.9129 16.379 10.2911 15.8547 9.8535 15.182C9.4159 14.5093 9.1822 13.7185 9.18195 12.9093V11.0907C9.1822 10.2815 9.4159 9.49065 9.8535 8.81797C10.2911 8.14529 10.9129 7.62102 11.6405 7.31141C12.368 7.00181 13.1685 6.92078 13.9408 7.07856C14.7131 7.23634 15.4226 7.62585 15.9795 8.19786" stroke="#222222" stroke-width="0.8" stroke-linecap="round" stroke-linejoin="round"/>
  <path opacity="0.4" d="M7.85449 11.0907H13.1642" stroke="#222222" stroke-width="0.8" stroke-linecap="round" stroke-linejoin="round"/>
  <path opacity="0.4" d="M7.85449 12.9093H12.2793" stroke="#222222" stroke-width="0.8" stroke-linecap="round" stroke-linejoin="round"/>
</svg>