<?xml version="1.0" encoding="UTF-8" standalone="yes"?>
<svg width="25" height="25" viewBox="0 0 25 25" fill="none" xmlns="http://www.w3.org/2000/svg">
  <path d="M12.917 20C17.3353 20 20.917 16.4183 20.917 12C20.917 7.58172 17.3353 4 12.917 4C8.49871 4 4.91699 7.58172 4.91699 12C4.91699 16.4183 8.49871 20 12.917 20Z" stroke="#222222" stroke-miterlimit="10"/>
  <path opacity="0.4" d="M8.86938 12.381H12.6789" stroke="#222222" stroke-width="0.8" stroke-linecap="round" stroke-linejoin="round"/>
  <path opacity="0.4" d="M14.9646 16H8.86938C9.32404 16 9.76007 15.8194 10.0816 15.4979C10.4031 15.1764 10.5837 14.7404 10.5837 14.2857V10.0953C10.5837 9.53956 10.8044 9.00663 11.1973 8.6137C11.5903 8.22077 12.1232 8.00002 12.6789 8.00002C12.9542 7.99887 13.2269 8.0526 13.4812 8.15807C13.7355 8.26354 13.9662 8.41864 14.1598 8.6143" stroke="#222222" stroke-width="0.8" stroke-linecap="round" stroke-linejoin="round"/>
</svg>