<?xml version="1.0" encoding="UTF-8" standalone="yes"?>
<svg width="25" height="25" viewBox="0 0 25 25" fill="none" xmlns="http://www.w3.org/2000/svg">
  <path d="M19.6862 6.46155H6.14776C5.46803 6.46155 4.91699 7.01259 4.91699 7.69232V16.3077C4.91699 16.9875 5.46803 17.5385 6.14776 17.5385H19.6862C20.366 17.5385 20.917 16.9875 20.917 16.3077V7.69232C20.917 7.01259 20.366 6.46155 19.6862 6.46155Z" stroke="#222222" stroke-linecap="round" stroke-linejoin="round"/>
  <path opacity="0.4" d="M12.917 14.4615C14.2765 14.4615 15.3785 13.3595 15.3785 12C15.3785 10.6405 14.2765 9.53845 12.917 9.53845C11.5575 9.53845 10.4554 10.6405 10.4554 12C10.4554 13.3595 11.5575 14.4615 12.917 14.4615Z" stroke="#222222" stroke-linecap="round" stroke-linejoin="round"/>
  <path opacity="0.4" d="M7.71687 12.3076C7.54694 12.3076 7.40918 12.1699 7.40918 12C7.40918 11.83 7.54694 11.6923 7.71687 11.6923" stroke="#222222" stroke-linecap="round" stroke-linejoin="round"/>
  <path opacity="0.4" d="M7.71686 12.3076C7.88679 12.3076 8.02455 12.1699 8.02455 12C8.02455 11.83 7.88679 11.6923 7.71686 11.6923" stroke="#222222" stroke-linecap="round" stroke-linejoin="round"/>
  <path opacity="0.4" d="M18.1171 12.3076C17.9472 12.3076 17.8094 12.1699 17.8094 12C17.8094 11.83 17.9472 11.6923 18.1171 11.6923" stroke="#222222" stroke-linecap="round" stroke-linejoin="round"/>
  <path opacity="0.4" d="M18.1171 12.3076C18.2871 12.3076 18.4248 12.1699 18.4248 12C18.4248 11.83 18.2871 11.6923 18.1171 11.6923" stroke="#222222" stroke-linecap="round" stroke-linejoin="round"/>
</svg>