<?xml version="1.0" encoding="UTF-8" standalone="yes"?>
<svg width="24" height="25" viewBox="0 0 24 25" fill="none" xmlns="http://www.w3.org/2000/svg">
  <path d="M4.91821 19.9975L20.9158 4" stroke="#222222" stroke-linecap="round" stroke-linejoin="round"/>
  <path opacity="0.4" d="M8.60993 16.301H5.53347C6.07727 16.301 6.46502 16.0849 6.84946 15.7005C7.23401 15.316 7.44998 14.7945 7.44998 14.2508V9.46708C7.44998 8.01712 8.02602 6.62655 9.05122 5.60127C10.0765 4.576 11.4671 4 12.917 4C14.367 4 15.7576 4.576 16.7829 5.60127C17.205 6.02342 17.551 6.50749 17.812 7.03215" stroke="#222222" stroke-linecap="round" stroke-linejoin="round"/>
  <path d="M14.1476 20H11.6864" stroke="#222222" stroke-linecap="round" stroke-linejoin="round"/>
  <path d="M18.3841 10.153V14.2508C18.3841 14.7946 18.6001 15.316 18.9846 15.7005C19.369 16.085 19.7567 16.301 20.3005 16.301H12.3017" stroke="#222222" stroke-linecap="round" stroke-linejoin="round"/>
</svg>