<?xml version="1.0" encoding="UTF-8" standalone="yes"?>
<svg width="24" height="25" viewBox="0 0 24 25" fill="none" xmlns="http://www.w3.org/2000/svg">
  <path d="M20.917 11.9262C20.9182 11.7553 20.8837 11.5861 20.8159 11.4293C20.7481 11.2725 20.6484 11.1315 20.5231 11.0154L13.595 4.62533C13.212 4.2721 12.622 4.2721 12.239 4.62533L5.31087 11.0154C5.1856 11.1315 5.0859 11.2725 5.01809 11.4293C4.95028 11.5861 4.91586 11.7553 4.91702 11.9262V18.7692C4.91702 19.0956 5.04669 19.4087 5.2775 19.6395C5.50832 19.8703 5.82137 20 6.14778 20H19.6862C20.0126 20 20.3257 19.8703 20.5565 19.6395C20.7874 19.4087 20.917 19.0956 20.917 18.7692V11.9262Z" stroke="#222222" stroke-linecap="round" stroke-linejoin="round"/>
</svg>