<?xml version="1.0" encoding="UTF-8" standalone="yes"?>
<svg width="24" height="25" viewBox="0 0 24 25" fill="none" xmlns="http://www.w3.org/2000/svg">
  <path opacity="0.4" d="M10.009 14.9079L15.8248 9.0835" stroke="#222222" stroke-linecap="round" stroke-linejoin="round"/>
  <path d="M14.3753 16.3662L11.9477 18.7938C11.5653 19.1762 11.1113 19.4796 10.6116 19.6865C10.1119 19.8935 9.57634 20 9.03549 20C7.9432 20 6.89564 19.5661 6.12327 18.7938C5.3509 18.0214 4.91699 16.9738 4.91699 15.8815C4.91699 14.7892 5.3509 13.7417 6.12327 12.9693L8.55084 10.5417" stroke="#222222" stroke-linecap="round" stroke-linejoin="round"/>
  <path d="M17.2831 13.4583L19.7107 11.0307C20.4831 10.2584 20.917 9.2108 20.917 8.1185C20.917 7.02621 20.4831 5.97865 19.7107 5.20628C18.9383 4.43391 17.8908 4 16.7985 4C15.7062 4 14.6586 4.43391 13.8862 5.20628L11.4587 7.63385" stroke="#222222" stroke-linecap="round" stroke-linejoin="round"/>
</svg>