<?xml version="1.0" encoding="UTF-8" standalone="yes"?>
<svg width="24" height="25" viewBox="0 0 24 25" fill="none" xmlns="http://www.w3.org/2000/svg">
  <path d="M13.509 19.4709C14.148 19.8817 14.9086 20.0618 15.6643 19.9812C16.42 19.9005 17.1253 19.5642 17.6629 19.0278L18.1313 18.5601C18.339 18.3504 18.4556 18.0674 18.4556 17.7724C18.4556 17.4775 18.339 17.1944 18.1313 16.9847L16.1591 15.0277C15.9512 14.821 15.6698 14.705 15.3764 14.705C15.0831 14.705 14.8016 14.821 14.5937 15.0277C14.3837 15.2352 14.1003 15.3515 13.8049 15.3515C13.5095 15.3515 13.226 15.2352 13.016 15.0277L9.87288 11.8892C9.66513 11.6795 9.5486 11.3965 9.5486 11.1015C9.5486 10.8066 9.66513 10.5235 9.87288 10.3138C10.0799 10.1062 10.1961 9.82519 10.1961 9.53225C10.1961 9.23931 10.0799 8.9583 9.87288 8.7507L7.97473 6.78144C7.76469 6.57399 7.4812 6.45764 7.18586 6.45764C6.89041 6.45764 6.60691 6.57399 6.397 6.78144L5.92861 7.24914C5.38183 7.77843 5.03338 8.47894 4.94143 9.23379C4.84935 9.98863 5.01945 10.7522 5.42325 11.3969C7.57253 14.5831 10.3181 17.3247 13.509 19.4709Z" stroke="#222222" stroke-linecap="round" stroke-linejoin="round"/>
  <path opacity="0.4" d="M12.9051 4C13.9572 4 14.9991 4.20693 15.9711 4.60897C16.9432 5.01102 17.8264 5.60031 18.5704 6.34319C19.3143 7.08607 19.9045 7.96799 20.3071 8.93862C20.7098 9.90923 20.917 10.9495 20.917 12.0001" stroke="#222222" stroke-linecap="round" stroke-linejoin="round"/>
  <path opacity="0.4" d="M12.9051 7.07703C14.2127 7.07703 15.4668 7.59572 16.3914 8.51898C17.3161 9.44226 17.8355 10.6945 17.8355 12.0002" stroke="#222222" stroke-linecap="round" stroke-linejoin="round"/>
</svg>