<?xml version="1.0" encoding="UTF-8" standalone="yes"?>
<svg width="24" height="25" viewBox="0 0 24 25" fill="none" xmlns="http://www.w3.org/2000/svg">
  <path d="M17.8401 10.4C17.8401 9.04212 17.3214 7.73983 16.3981 6.77964C15.4749 5.81946 14.2227 5.28003 12.917 5.28003C11.6113 5.28003 10.3591 5.81946 9.43585 6.77964C8.5126 7.73983 7.99392 9.04212 7.99392 10.4V14.88C7.99392 15.3892 7.79941 15.8777 7.45319 16.2377C7.10698 16.5978 6.63739 16.8 6.14777 16.8H19.6862C19.1966 16.8 18.727 16.5978 18.3808 16.2377C18.0345 15.8777 17.8401 15.3892 17.8401 14.88V10.4Z" stroke="#222222" stroke-linecap="round" stroke-linejoin="round"/>
  <path opacity="0.4" d="M4.91699 10.2336C4.91766 9.01522 5.19703 7.81449 5.73206 6.73059C6.26707 5.64668 7.04237 4.71072 7.99392 4" stroke="#222222" stroke-linecap="round" stroke-linejoin="round"/>
  <path opacity="0.4" d="M20.917 10.2336C20.9164 9.01522 20.637 7.81449 20.102 6.73059C19.567 5.64668 18.7916 4.71072 17.8401 4" stroke="#222222" stroke-linecap="round" stroke-linejoin="round"/>
  <path opacity="0.4" d="M11.6862 20H14.1478" stroke="#222222" stroke-linecap="round" stroke-linejoin="round"/>
</svg>