<?xml version="1.0" encoding="UTF-8" standalone="yes"?>
<svg width="24" height="25" viewBox="0 0 24 25" fill="none" xmlns="http://www.w3.org/2000/svg">
  <path d="M9.39404 19.1564L16.7527 19.1564C16.8635 19.1558 16.9721 19.126 17.0677 19.07C17.1633 19.0141 17.2425 18.9338 17.2972 18.8375L20.9921 12.3034C21.0453 12.2112 21.0734 12.1065 21.0734 12C21.0734 11.8935 21.0453 11.7889 20.9921 11.6967L17.2972 5.16255C17.2425 5.06622 17.1633 4.98601 17.0677 4.93001C16.9721 4.87402 16.8635 4.84422 16.7527 4.84363L9.39404 4.84363C9.28325 4.84422 9.17458 4.87402 9.07898 4.93001C8.98339 4.98601 8.90424 5.06622 8.84953 5.16255L5.15465 11.6967C5.1014 11.7889 5.07336 11.8935 5.07336 12C5.07336 12.1065 5.1014 12.2112 5.15465 12.3034L8.84953 18.8375C8.90424 18.9338 8.98338 19.014 9.07898 19.07C9.17458 19.126 9.28325 19.1558 9.39404 19.1564V19.1564Z" stroke="#222222" stroke-linecap="round" stroke-linejoin="round"/>
  <path opacity="0.4" d="M13.0733 14.8004C14.6199 14.8004 15.8737 13.5466 15.8737 12C15.8737 10.4535 14.6199 9.19971 13.0733 9.19971C11.5268 9.19971 10.273 10.4535 10.273 12C10.273 13.5466 11.5268 14.8004 13.0733 14.8004Z" stroke="#222222" stroke-linecap="round" stroke-linejoin="round"/>
</svg>