<?xml version="1.0" encoding="UTF-8" standalone="yes"?>
<svg width="24" height="25" viewBox="0 0 24 25" fill="none" xmlns="http://www.w3.org/2000/svg">
  <path d="M5.53235 7.69226H20.3016" stroke="#222222" stroke-linecap="round" stroke-linejoin="round"/>
  <path d="M7.37848 7.69226H18.4554V18.7692C18.4554 19.0956 18.3257 19.4087 18.0949 19.6395C17.8641 19.8702 17.551 20 17.2246 20H8.60925C8.28282 20 7.96978 19.8702 7.73896 19.6395C7.50815 19.4087 7.37848 19.0956 7.37848 18.7692V7.69226Z" stroke="#222222" stroke-linecap="round" stroke-linejoin="round"/>
  <path opacity="0.4" d="M9.84003 7.69231V7.07692C9.84003 6.26087 10.1642 5.47824 10.7412 4.90121C11.3183 4.32417 12.1009 4 12.917 4C13.733 4 14.5156 4.32417 15.0927 4.90121C15.6697 5.47824 15.9939 6.26087 15.9939 7.07692V7.69231" stroke="#222222" stroke-linecap="round" stroke-linejoin="round"/>
</svg>