<?xml version="1.0" encoding="UTF-8" standalone="yes"?>
<svg width="24" height="25" viewBox="0 0 24 25" fill="none" xmlns="http://www.w3.org/2000/svg">
  <path opacity="0.4" d="M9.7179 6.40153V4.0022" stroke="#222222" stroke-linecap="round" stroke-linejoin="round"/>
  <path opacity="0.4" d="M16.1161 19.9977V17.5984" stroke="#222222" stroke-linecap="round" stroke-linejoin="round"/>
  <path opacity="0.4" d="M7.31852 8.8009H4.91919" stroke="#222222" stroke-linecap="round" stroke-linejoin="round"/>
  <path opacity="0.4" d="M20.9148 15.1991H18.5154" stroke="#222222" stroke-linecap="round" stroke-linejoin="round"/>
  <path d="M7.21858 12.04L6.08889 13.1697C5.33854 13.9201 4.91699 14.9378 4.91699 15.9989C4.91699 16.5244 5.02048 17.0447 5.22156 17.5301C5.42263 18.0155 5.71735 18.4566 6.08889 18.8282C6.46043 19.1997 6.90151 19.4944 7.38694 19.6955C7.87238 19.8966 8.39267 20.0001 8.9181 20.0001C9.97926 20.0001 10.997 19.5785 11.7473 18.8282L12.877 17.6985" stroke="#222222" stroke-linecap="round" stroke-linejoin="round"/>
  <path d="M18.6154 11.96L19.7451 10.8303C20.4954 10.08 20.917 9.06227 20.917 8.00111C20.917 6.93995 20.4954 5.92225 19.7451 5.1719C18.9947 4.42154 17.977 4 16.9159 4C15.8547 4 14.837 4.42154 14.0867 5.1719L12.957 6.30158" stroke="#222222" stroke-linecap="round" stroke-linejoin="round"/>
</svg>