<svg width="25" height="24" viewBox="0 0 25 24" fill="none" xmlns="http://www.w3.org/2000/svg">
<path d="M11.8549 5.15237L5.08198 17.5435C4.97408 17.7415 4.91718 17.966 4.91699 18.1945C4.9168 18.4231 4.97332 18.6477 5.08089 18.8458C5.18846 19.044 5.3433 19.2087 5.52989 19.3235C5.71649 19.4383 5.9283 19.4992 6.14409 19.5H19.6899C19.9057 19.4992 20.1175 19.4383 20.3041 19.3235C20.4907 19.2087 20.6455 19.044 20.7531 18.8458C20.8607 18.6477 20.9172 18.4231 20.917 18.1945C20.9168 17.966 20.8599 17.7415 20.752 17.5435L13.9791 5.15237C13.872 4.95417 13.7174 4.78945 13.5309 4.67489C13.3444 4.56033 13.1326 4.5 12.917 4.5C12.7014 4.5 12.4896 4.56033 12.3031 4.67489C12.1166 4.78945 11.962 4.95417 11.8549 5.15237V5.15237Z" stroke="#222222" stroke-linecap="round" stroke-linejoin="round"/>
<path d="M12.917 8.66675V13.3334" stroke="#222222" stroke-linecap="round" stroke-linejoin="round"/>
<path d="M12.917 17.3333C13.4693 17.3333 13.917 16.8855 13.917 16.3333C13.917 15.781 13.4693 15.3333 12.917 15.3333C12.3647 15.3333 11.917 15.781 11.917 16.3333C11.917 16.8855 12.3647 17.3333 12.917 17.3333Z" fill="#222222"/>
</svg>
