<svg width="25" height="24" viewBox="0 0 25 24" fill="none" xmlns="http://www.w3.org/2000/svg">
<path d="M14.8723 14.2168C15.1056 14.4551 15.419 14.5884 15.7453 14.5884C16.0716 14.5884 16.385 14.4551 16.6183 14.2168C16.8497 13.9794 17.1611 13.8463 17.4855 13.8463C17.8099 13.8463 18.1213 13.9794 18.3527 14.2168L20.5612 16.4991C20.7893 16.7427 20.917 17.0699 20.917 17.4107C20.917 17.7515 20.7893 18.0787 20.5612 18.3224L20.0408 18.8537C19.4456 19.4836 18.6609 19.8802 17.8186 19.977C16.9763 20.0739 16.1278 19.8647 15.4158 19.385C14.33 18.6199 13.2904 17.7904 12.3016 16.9015" stroke="#222222" stroke-linecap="round" stroke-linejoin="round"/>
<path d="M20.917 4L4.91699 20" stroke="#222222" stroke-linecap="round" stroke-linejoin="round"/>
<path d="M9.63255 15.0769C8.10752 13.4803 6.72738 11.7309 5.51314 9.85069C5.0481 9.09339 4.8454 8.19098 4.93925 7.29517C5.03297 6.39936 5.41751 5.5648 6.02809 4.93181L6.54315 4.37844C6.77931 4.13584 7.09644 4 7.4268 4C7.75716 4 8.07429 4.13584 8.31045 4.37844L10.5344 6.7149C10.7645 6.96098 10.8935 7.29218 10.8935 7.6372C10.8935 7.9822 10.7645 8.31341 10.5344 8.55948C10.4172 8.68076 10.3242 8.8253 10.2607 8.98469C10.1972 9.14408 10.1645 9.31514 10.1645 9.48792C10.1645 9.66071 10.1972 9.83176 10.2607 9.99115C10.3242 10.1505 10.4172 10.2951 10.5344 10.4164L12.3015 12.2729" stroke="#222222" stroke-linecap="round" stroke-linejoin="round"/>
</svg>
