<svg width="25" height="24" viewBox="0 0 25 24" fill="none" xmlns="http://www.w3.org/2000/svg">
<path d="M15.0735 19.3734C15.8299 19.862 16.7312 20.075 17.6259 19.9765C18.5206 19.8779 19.3541 19.4738 19.9863 18.8321L20.539 18.2908C20.7813 18.0426 20.917 17.7093 20.917 17.3622C20.917 17.015 20.7813 16.6816 20.539 16.4335L18.1932 14.1086C17.9474 13.8667 17.6166 13.7311 17.272 13.7311C16.9274 13.7311 16.5966 13.8667 16.3509 14.1086C16.103 14.3512 15.7702 14.4871 15.4236 14.4871C15.0769 14.4871 14.7441 14.3512 14.4963 14.1086L10.8117 10.4183C10.6888 10.297 10.5911 10.1524 10.5245 9.99296C10.4579 9.83353 10.4236 9.66241 10.4236 9.48958C10.4236 9.31674 10.4579 9.14563 10.5245 8.98619C10.5911 8.82675 10.6888 8.68217 10.8117 8.56086C11.0532 8.31472 11.1885 7.9834 11.1885 7.6383C11.1885 7.29318 11.0532 6.96187 10.8117 6.71572L8.47811 4.37856C8.23023 4.13588 7.89743 4 7.55085 4C7.20414 4 6.87134 4.13588 6.62346 4.37856L6.08303 4.9321C5.44242 5.56527 5.03897 6.40009 4.94051 7.29616C4.84205 8.19224 5.05472 9.09493 5.54272 9.85245C8.08512 13.6051 11.3201 16.8367 15.0735 19.3734Z" stroke="#222222" stroke-linecap="round" stroke-linejoin="round"/>
</svg>
