<svg width="25" height="24" viewBox="0 0 25 24" fill="none" xmlns="http://www.w3.org/2000/svg">
<path d="M11.3104 4.78769L10.7949 6.15385L9.02051 7.18769L7.6058 6.96615C7.37024 6.93333 7.13048 6.97313 6.91701 7.08052C6.70354 7.1879 6.52598 7.35801 6.4069 7.56923L5.92734 8.43077C5.80445 8.64535 5.74784 8.89315 5.76496 9.14144C5.78208 9.38974 5.87214 9.62687 6.02325 9.82154L6.92243 10.9662V13.0338L6.04723 14.1785C5.89612 14.3731 5.80605 14.6103 5.78893 14.8586C5.77181 15.1069 5.82843 15.3546 5.95131 15.5692L6.43088 16.4308C6.54996 16.642 6.72752 16.8121 6.94099 16.9195C7.15446 17.0268 7.39422 17.0667 7.62978 17.0338L9.04449 16.8123L10.7949 17.8462L11.3104 19.2123C11.3974 19.4436 11.5503 19.6426 11.7493 19.7831C11.9482 19.9237 12.1839 19.9993 12.4254 20H13.4325C13.674 19.9993 13.9097 19.9237 14.1086 19.7831C14.3076 19.6426 14.4605 19.4436 14.5475 19.2123L15.063 17.8462L16.8133 16.8123L18.228 17.0338C18.4636 17.0667 18.7034 17.0268 18.9169 16.9195C19.1303 16.8121 19.3079 16.642 19.427 16.4308L19.9065 15.5692C20.0294 15.3546 20.0861 15.1069 20.069 14.8586C20.0518 14.6103 19.9618 14.3731 19.8106 14.1785L18.9114 13.0338V10.9662L19.7866 9.82154C19.9378 9.62687 20.0278 9.38974 20.045 9.14144C20.0621 8.89315 20.0054 8.64535 19.8825 8.43077L19.403 7.56923C19.2839 7.35801 19.1064 7.1879 18.893 7.08052C18.6794 6.97313 18.4397 6.93333 18.2041 6.96615L16.7894 7.18769L15.039 6.15385L14.5235 4.78769C14.4365 4.55639 14.2836 4.35743 14.0846 4.21688C13.8857 4.07632 13.65 4.00073 13.4085 4H12.4254C12.1839 4.00073 11.9482 4.07632 11.7493 4.21688C11.5503 4.35743 11.3974 4.55639 11.3104 4.78769Z" stroke="#222222" stroke-linecap="round" stroke-linejoin="round"/>
<path d="M10.5192 12.0001C10.5192 12.487 10.6598 12.9629 10.9233 13.3677C11.1868 13.7725 11.5612 14.088 11.9994 14.2743C12.4375 14.4606 12.9196 14.5093 13.3848 14.4144C13.8499 14.3194 14.2771 14.0849 14.6125 13.7407C14.9478 13.3964 15.1762 12.9578 15.2687 12.4803C15.3612 12.0028 15.3138 11.5079 15.1323 11.0581C14.9508 10.6083 14.6434 10.2239 14.2491 9.95342C13.8548 9.68294 13.3912 9.53857 12.917 9.53857C12.281 9.53857 11.6711 9.79791 11.2215 10.2595C10.7718 10.7212 10.5192 11.3473 10.5192 12.0001Z" stroke="#222222" stroke-linecap="round" stroke-linejoin="round"/>
</svg>
