<svg width="25" height="25" viewBox="0 0 25 25" fill="none" xmlns="http://www.w3.org/2000/svg">
<path d="M20.686 4.69336L4.68604 20.6934" stroke="black" stroke-linecap="round" stroke-linejoin="round"/>
<path d="M11.186 13.6934V12.0441C11.186 11.8171 11.1088 11.5968 10.9669 11.4194L7.74516 7.39227C7.42685 6.99438 7.45862 6.42077 7.81893 6.06047L7.89314 5.98625C8.08068 5.79872 8.33503 5.69336 8.60025 5.69336H17.2718C17.537 5.69336 17.7914 5.79872 17.9789 5.98625L18.686 6.69336" stroke="black" stroke-linecap="round" stroke-linejoin="round"/>
<path d="M12.2164 16.1933V17.6045C12.2164 17.9679 12.4119 18.307 12.7444 18.4537C12.9986 18.5659 13.2878 18.6719 13.4731 18.6719C14.3371 18.6719 15.2424 17.8984 15.2424 17.3914C15.2424 16.8844 15.2424 13.1602 15.2424 13.1602" stroke="black" stroke-linecap="round" stroke-linejoin="round"/>
</svg>
