<svg xmlns="http://www.w3.org/2000/svg" width="124" height="72" viewBox="0 0 124 72" fill="none" >
<rect width="124" height="72" fill="#1E1E1E" style="fill:transparent"></rect><g clip-path="url(#clip0_0_1)"><rect width="1920" height="2055" transform="translate(-1692 -63)" fill="#0B0A0F" style="fill:transparent"></rect><g filter="url(#filter0_f_0_1)"><rect x="-1187" y="132" width="909" height="909" rx="454.5" fill="#9B59B6" fill-opacity="0.3"></rect></g><path d="M24.585 21.64H28.94V51.93C28.94 54.725 26.73 57 24 57H12.17C6.51496 57 1.83496 52.385 1.83496 46.73V29.375H6.25496V46.73C6.25496 49.98 8.91996 52.58 12.17 52.58H22.895C23.805 52.58 24.585 51.865 24.585 50.89V21.64ZM13.73 65.58C13.73 63.955 15.095 62.59 16.72 62.59C18.41 62.59 19.84 63.955 19.84 65.58C19.84 67.335 18.41 68.635 16.72 68.635C15.095 68.635 13.73 67.335 13.73 65.58Z" fill="black"></path><path d="M46.6286 57C41.5586 57 37.5936 52.97 37.5936 47.9V6.625H42.0136V47.9C42.0136 50.5 44.0936 52.58 46.6936 52.58H49.2936V57H46.6286Z" fill="black"></path><path d="M73.4903 52.515H81.6804V57H75.7004V60.835C75.7004 66.815 70.7604 71.625 64.6504 71.625C58.6054 71.625 53.6654 66.75 53.6654 60.64V57H47.7504V52.515H53.6654V32.625C53.6654 26.58 58.6054 21.64 64.6504 21.64C70.8254 21.64 75.5704 26.71 75.5704 32.755V46.08C75.5704 48.485 74.7904 50.695 73.4903 52.515ZM58.2154 32.625V52.515H64.6504C68.1604 52.515 71.0204 49.655 71.0204 46.08V32.625C71.0204 29.115 68.1604 26.255 64.6504 26.255C61.0754 26.255 58.2154 29.115 58.2154 32.625ZM64.6504 67.01C68.4204 67.01 71.1504 64.215 71.1504 60.64V54.855C69.3304 56.285 67.0554 57.065 64.6504 57.065H58.2154V60.835C58.3454 64.28 61.1404 67.01 64.6504 67.01Z" fill="black"></path><path d="M104.752 6.04C106.442 6.04 107.872 7.405 107.872 9.03C107.872 10.785 106.442 12.085 104.752 12.085C103.127 12.085 101.762 10.785 101.762 9.03C101.762 7.405 103.127 6.04 104.752 6.04ZM99.8773 14.75C101.567 14.75 102.997 16.115 102.997 17.74C102.997 19.43 101.567 20.795 99.8773 20.795C98.2523 20.795 96.8873 19.43 96.8873 17.74C96.8873 16.115 98.2523 14.75 99.8773 14.75ZM109.757 14.75C111.512 14.75 112.877 16.115 112.877 17.74C112.877 19.43 111.512 20.795 109.757 20.795C108.197 20.795 106.767 19.43 106.767 17.74C106.767 16.115 108.197 14.75 109.757 14.75ZM118.987 21.64H123.342V48.16C123.342 52.97 119.572 56.87 114.567 57H112.097C109.432 57 106.962 55.57 105.532 53.62C103.972 55.635 101.762 56.935 98.9673 57H97.3423C94.6123 57 91.9473 55.57 90.4523 53.555C89.0223 55.57 86.4873 57 83.6273 57H80.2473V52.58H83.6273C86.2923 52.58 88.4373 50.435 88.4373 47.77V29.375H92.8573V48.03C92.8573 50.565 94.6123 52.58 97.2123 52.58H98.9673C101.502 52.58 103.322 50.63 103.322 48.03V29.375H107.677V48.03C107.677 50.565 109.497 52.58 112.032 52.58H114.697C117.297 52.58 118.987 50.435 118.987 48.03V21.64Z" fill="black"></path><path d="M14.5942 0L9.05017 15.8817H5.58788L0 0H3.17742L7.31903 12.297L11.4168 0H14.5942Z" fill="#9B59B6"></path><path d="M15.4797 14.2936C15.4139 13.1592 16.0713 12.4331 17.1232 12.3651C18.2407 12.297 18.942 12.9096 19.0077 14.0667C19.0734 15.1557 18.4599 15.9271 17.3642 15.9952C16.2904 16.0633 15.5454 15.4053 15.4797 14.2936Z" fill="#9B59B6"></path><path d="M28 0V15.8817H25.1075V3.13097L21.3603 3.10828V0H28Z" fill="#9B59B6"></path><g opacity="0.14"></g></g><defs><filter id="filter0_f_0_1" x="-1567" y="-248" width="1669" height="1669" filterUnits="userSpaceOnUse" color-interpolation-filters="sRGB"><feFlood flood-opacity="0" result="BackgroundImageFix"></feFlood><feBlend mode="normal" in="SourceGraphic" in2="BackgroundImageFix" result="shape"></feBlend><feGaussianBlur stdDeviation="190" result="effect1_foregroundBlur_0_1"></feGaussianBlur></filter><clipPath id="clip0_0_1"><rect width="1920" height="2055" fill="black" transform="translate(-1692 -63)"></rect></clipPath></defs>
</svg>