<?xml version="1.0" standalone="no"?>
<!DOCTYPE svg PUBLIC "-//W3C//DTD SVG 20010904//EN"
 "http://www.w3.org/TR/2001/REC-SVG-20010904/DTD/svg10.dtd">
<svg version="1.0" xmlns="http://www.w3.org/2000/svg"
 width="124.000000pt" height="124.000000pt" viewBox="0 0 124.000000 124.000000"
 preserveAspectRatio="xMidYMid meet">
<metadata>
Created by potrace 1.14, written by Peter Selinger 2001-2017
</metadata>
<g transform="translate(0.000000,124.000000) scale(0.100000,-0.100000)"
fill="#000000" stroke="none">
<path d="M8 958 c37 -120 46 -139 66 -136 14 2 25 21 43 72 27 81 27 86 10 86
-8 0 -22 -26 -32 -61 l-19 -62 -22 59 c-12 33 -29 60 -37 62 -12 2 -14 -2 -9
-20z"/>
<path d="M210 965 c0 -8 9 -15 20 -15 18 0 20 -7 20 -65 0 -51 3 -65 15 -65
12 0 15 16 15 80 l0 80 -35 0 c-24 0 -35 -5 -35 -15z"/>
<path d="M379 910 c-7 -28 -3 -422 4 -443 12 -35 54 -57 111 -57 44 0 44 0 44
-35 0 -87 90 -136 169 -94 26 14 53 66 53 103 0 25 3 26 53 26 28 0 60 7 70
14 16 12 22 12 45 0 35 -18 82 -18 108 1 19 12 24 12 40 0 46 -35 138 -7 151
46 6 23 9 256 4 291 -1 3 -9 5 -18 4 -16 -3 -19 -20 -23 -147 -5 -144 -5 -144
-32 -156 -32 -16 -78 -2 -79 24 0 10 -2 59 -2 108 -2 88 -4 92 -35 87 -4 -1
-8 -47 -9 -103 0 -58 -5 -105 -11 -111 -16 -16 -72 -14 -83 3 -5 8 -9 60 -9
116 0 101 0 103 -22 99 -22 -3 -23 -8 -24 -92 -1 -137 -1 -136 -99 -137 -30
-1 -39 3 -36 14 11 40 8 198 -4 226 -35 83 -153 87 -195 7 -9 -17 -14 -61 -14
-132 -1 -59 -5 -110 -9 -113 -14 -10 -77 -1 -93 12 -11 9 -14 54 -14 228 0
210 -1 217 -20 217 -11 0 -21 -3 -21 -6z m291 -200 c5 0 16 -7 24 -16 12 -12
16 -37 16 -109 0 -87 -2 -95 -24 -112 -15 -12 -39 -19 -63 -18 l-38 1 0 113
c0 107 1 114 24 132 13 11 31 17 38 14 8 -3 18 -5 23 -5z m40 -320 c0 -47 -27
-80 -64 -80 -29 0 -64 40 -62 72 1 20 7 24 53 28 28 3 55 9 59 13 12 12 14 8
14 -33z"/>
<path d="M1024 905 c-8 -20 2 -45 18 -45 26 0 40 17 33 39 -7 24 -43 29 -51 6z"/>
<path d="M161 846 c-12 -14 -5 -26 16 -26 15 0 18 26 4 34 -5 3 -14 0 -20 -8z"/>
<path d="M977 824 c-14 -15 -6 -43 14 -49 23 -8 41 9 36 35 -2 16 -38 26 -50
14z"/>
<path d="M1074 815 c-8 -21 2 -45 19 -45 20 0 40 27 33 45 -7 19 -45 20 -52 0z"/>
<path d="M249 757 c-1 -7 -2 -73 -3 -147 0 -74 -4 -140 -8 -146 -4 -6 -35 -10
-74 -9 -89 2 -102 17 -102 117 0 119 0 117 -22 115 -19 -1 -20 -8 -20 -107 1
-148 21 -170 159 -170 114 0 112 -4 109 193 -3 144 -5 160 -20 163 -10 1 -18
-3 -19 -9z"/>
<path d="M151 350 c-17 -10 -7 -59 11 -56 22 3 38 17 38 31 0 19 -33 36 -49
25z"/>
</g>
</svg>
