<svg width="25" height="24" viewBox="0 0 25 24" fill="none" xmlns="http://www.w3.org/2000/svg">
<path d="M9.10309 7.69231V4" stroke="#222222" stroke-linecap="round" stroke-linejoin="round"/>
<path d="M12.7954 7.69231V4" stroke="#222222" stroke-linecap="round" stroke-linejoin="round"/>
<path d="M16.4877 7.69231V4" stroke="#222222" stroke-linecap="round" stroke-linejoin="round"/>
<path d="M19.5646 5.84613H6.02618C5.34644 5.84613 4.79541 6.39717 4.79541 7.0769V18.7692C4.79541 19.449 5.34644 20 6.02618 20H19.5646C20.2444 20 20.7954 19.449 20.7954 18.7692V7.0769C20.7954 6.39717 20.2444 5.84613 19.5646 5.84613Z" stroke="#222222" stroke-linecap="round" stroke-linejoin="round"/>
<path d="M9.54541 11.5H12.2219L10.6925 13.4118C10.9442 13.4113 11.1921 13.473 11.4142 13.5914C11.6364 13.7097 11.8259 13.8811 11.9659 14.0902C12.106 14.2994 12.1922 14.5399 12.217 14.7903C12.2419 15.0408 12.2045 15.2935 12.1082 15.5261C12.012 15.7587 11.8598 15.9639 11.6652 16.1235C11.4706 16.2832 11.2396 16.3924 10.9927 16.4413C10.7459 16.4903 10.4907 16.4776 10.2499 16.4044C10.0091 16.3311 9.79009 16.1995 9.61232 16.0213" stroke="#222222" stroke-width="0.8" stroke-linecap="round" stroke-linejoin="round"/>
<path d="M14.516 12.6471L16.0454 11.5V16.4706" stroke="#222222" stroke-width="0.8" stroke-linecap="round" stroke-linejoin="round"/>
</svg>
