<?xml version="1.0" encoding="UTF-8" standalone="yes"?>
<svg width="25" height="25" viewBox="0 0 25 25" fill="none" xmlns="http://www.w3.org/2000/svg">
  <path opacity="0.4" d="M9.1031 7.69231V4" stroke="#222222" stroke-linecap="round" stroke-linejoin="round"/>
  <path opacity="0.4" d="M12.7954 7.69231V4" stroke="#222222" stroke-linecap="round" stroke-linejoin="round"/>
  <path opacity="0.4" d="M16.4877 7.69231V4" stroke="#222222" stroke-linecap="round" stroke-linejoin="round"/>
  <path d="M19.5646 5.84613H6.02618C5.34644 5.84613 4.79541 6.39717 4.79541 7.0769V18.7692C4.79541 19.449 5.34644 20 6.02618 20H19.5646C20.2444 20 20.7954 19.449 20.7954 18.7692V7.0769C20.7954 6.39717 20.2444 5.84613 19.5646 5.84613Z" stroke="#222222" stroke-linecap="round" stroke-linejoin="round"/>
  <path opacity="0.4" d="M13.044 10.1524L13.8806 11.8354C13.8993 11.8779 13.929 11.9148 13.9666 11.9421C14.0042 11.9695 14.0484 11.9863 14.0946 11.991L15.9527 12.2731C16.0058 12.28 16.0559 12.3019 16.097 12.3363C16.1382 12.3706 16.1687 12.4159 16.185 12.4669C16.2013 12.5179 16.2028 12.5725 16.1892 12.6244C16.1757 12.6762 16.1476 12.7231 16.1084 12.7595L14.7367 14.0631C14.7162 14.1021 14.7055 14.1455 14.7055 14.1896C14.7055 14.2336 14.7162 14.277 14.7367 14.316L14.9993 16.1644C15.0105 16.2178 15.006 16.2733 14.9863 16.3242C14.9666 16.3751 14.9325 16.4192 14.8882 16.4511C14.8439 16.483 14.7913 16.5014 14.7368 16.5041C14.6823 16.5067 14.6282 16.4934 14.581 16.4659L12.9273 15.5904C12.8845 15.5711 12.838 15.5611 12.7911 15.5611C12.7441 15.5611 12.6977 15.5711 12.6549 15.5904L11.0011 16.4659C10.954 16.4934 10.8998 16.5067 10.8453 16.5041C10.7908 16.5014 10.7382 16.483 10.6939 16.4511C10.6496 16.4192 10.6156 16.3751 10.5958 16.3242C10.5761 16.2733 10.5716 16.2178 10.5828 16.1644L10.8941 14.316C10.9075 14.2731 10.91 14.2276 10.9016 14.1835C10.8931 14.1393 10.8738 14.098 10.8454 14.0631L9.47378 12.7498C9.4374 12.713 9.41186 12.6668 9.39997 12.6164C9.38808 12.566 9.3903 12.5133 9.40637 12.464C9.42245 12.4148 9.45176 12.371 9.49111 12.3373C9.53046 12.3036 9.57831 12.2814 9.62943 12.2731L11.4875 12.0007C11.5338 11.9961 11.5779 11.9792 11.6155 11.9518C11.6531 11.9245 11.6828 11.8877 11.7015 11.8451L12.5381 10.1621C12.5605 10.1145 12.5958 10.0741 12.64 10.0454C12.6841 10.0168 12.7354 10.0011 12.788 10.0001C12.8407 9.99904 12.8925 10.0128 12.9378 10.0397C12.983 10.0666 13.0198 10.1057 13.044 10.1524Z" stroke="#222222" stroke-linecap="round" stroke-linejoin="round"/>
</svg>