<svg width="25" height="24" viewBox="0 0 25 24" fill="none" xmlns="http://www.w3.org/2000/svg">
<path d="M19.2503 5.5H6.58366C6.21547 5.5 5.91699 5.79101 5.91699 6.15L4.91699 17.85C4.91699 18.209 5.21547 18.5 5.58366 18.5H20.2503C20.6185 18.5 20.917 18.209 20.917 17.85L19.917 6.15C19.917 5.79101 19.6185 5.5 19.2503 5.5Z" stroke="#222222" stroke-linecap="round" stroke-linejoin="round"/>
<path d="M16.2503 8.75C16.2503 9.61195 15.8991 10.4386 15.274 11.0481C14.6489 11.6576 13.8011 12 12.917 12C12.0329 12 11.1851 11.6576 10.56 11.0481C9.93485 10.4386 9.58366 9.61195 9.58366 8.75" stroke="#222222" stroke-linecap="round" stroke-linejoin="round"/>
</svg>
