<svg width="25" height="24" viewBox="0 0 25 24" fill="none" xmlns="http://www.w3.org/2000/svg">
<path d="M19.1896 18.5H6.64436C6.49154 18.4992 6.34421 18.4336 6.22991 18.3157C6.11562 18.1977 6.04217 18.0354 6.02331 17.859L4.92094 6.30347C4.91113 6.20279 4.91966 6.10083 4.94595 6.00423C4.97225 5.90763 5.01573 5.81855 5.07358 5.74277C5.13142 5.66699 5.20233 5.60621 5.28169 5.56439C5.36105 5.52256 5.4471 5.50062 5.53423 5.5H20.2998C20.3869 5.50062 20.4729 5.52256 20.5523 5.56439C20.6317 5.60621 20.7026 5.66699 20.7604 5.74277C20.8183 5.81855 20.8617 5.90763 20.888 6.00423C20.9143 6.10083 20.9229 6.20279 20.913 6.30347L19.8107 17.859C19.7918 18.0354 19.7184 18.1977 19.6041 18.3157C19.4898 18.4336 19.3424 18.4992 19.1896 18.5V18.5Z" stroke="#222222" stroke-linecap="round" stroke-linejoin="round"/>
<path d="M16.2503 7.72827C16.2503 8.59023 15.8991 9.41688 15.274 10.0264C14.6489 10.6359 13.801 10.9783 12.917 10.9783C12.0329 10.9783 11.1851 10.6359 10.56 10.0264C9.93484 9.41688 9.58365 8.59023 9.58365 7.72827" stroke="#222222" stroke-linecap="round" stroke-linejoin="round"/>
</svg>
