<svg width="25" height="24" viewBox="0 0 25 24" fill="none" xmlns="http://www.w3.org/2000/svg">
<path d="M19.2935 12.6154H9.22581L7.99504 6.46155H20.3027C20.3928 6.46188 20.4815 6.48194 20.563 6.52034C20.6444 6.55873 20.7164 6.61452 20.7738 6.68376C20.8314 6.75299 20.873 6.83402 20.8958 6.92108C20.9186 7.00816 20.922 7.09916 20.9058 7.1877L19.8965 12.1108C19.873 12.2531 19.7992 12.3823 19.6885 12.4749C19.5779 12.5675 19.4377 12.6173 19.2935 12.6154Z" stroke="#222222" stroke-linecap="round" stroke-linejoin="round"/>
<path d="M7.99504 6.46154L7.47812 4.49231C7.44975 4.35331 7.37422 4.22838 7.26432 4.13867C7.15443 4.04896 7.01691 3.99997 6.87504 4H4.91812" stroke="#222222" stroke-linecap="round" stroke-linejoin="round"/>
<path d="M9.22581 12.6154L9.74274 15.2C9.77111 15.339 9.84664 15.4639 9.95653 15.5536C10.0664 15.6433 10.204 15.6923 10.3458 15.6923H17.8412" stroke="#222222" stroke-linecap="round" stroke-linejoin="round"/>
<path d="M17.2258 20C16.886 20 16.6104 19.7244 16.6104 19.3846C16.6104 19.0448 16.886 18.7692 17.2258 18.7692C17.5657 18.7692 17.8412 19.0448 17.8412 19.3846C17.8412 19.7244 17.5657 20 17.2258 20Z" stroke="#222222" stroke-linecap="round" stroke-linejoin="round"/>
<path d="M11.072 20C10.7321 20 10.4566 19.7244 10.4566 19.3846C10.4566 19.0448 10.7321 18.7692 11.072 18.7692C11.4118 18.7692 11.6874 19.0448 11.6874 19.3846C11.6874 19.7244 11.4118 20 11.072 20Z" stroke="#222222" stroke-linecap="round" stroke-linejoin="round"/>
</svg>
