<svg width="25" height="24" viewBox="0 0 25 24" fill="none" xmlns="http://www.w3.org/2000/svg">
<path d="M19.3208 9.07075H6.53712C6.36658 9.06925 6.19771 9.10554 6.04189 9.17714C5.88609 9.24874 5.74699 9.354 5.63396 9.48582C5.52094 9.61764 5.43662 9.77294 5.38671 9.94126C5.33679 10.1096 5.32244 10.287 5.34462 10.4615L6.21514 17.2307C6.25298 17.5286 6.39514 17.8021 6.61481 17.9993C6.83448 18.1966 7.11648 18.304 7.40764 18.3014H18.4264C18.7175 18.304 18.9995 18.1966 19.2192 17.9993C19.4388 17.8021 19.581 17.5286 19.6189 17.2307L20.4894 10.4615C20.5112 10.289 20.4975 10.1137 20.449 9.94715C20.4005 9.78055 20.3183 9.62647 20.2079 9.49506C20.0974 9.36364 19.9613 9.25788 19.8084 9.18474C19.6555 9.1116 19.4893 9.07275 19.3208 9.07075Z" stroke="#222222" stroke-linecap="round" stroke-linejoin="round"/>
<path d="M15.5381 5.71744L18.8915 9.07078" stroke="#222222" stroke-linecap="round" stroke-linejoin="round"/>
<path d="M6.96646 9.07079L10.3387 5.69855" stroke="#222222" stroke-linecap="round" stroke-linejoin="round"/>
</svg>
