<svg width="25" height="24" viewBox="0 0 25 24" fill="none" xmlns="http://www.w3.org/2000/svg">
<path d="M19.3208 9.07078H6.53713C6.36659 9.06928 6.19772 9.10557 6.04191 9.17717C5.88611 9.24877 5.747 9.35403 5.63398 9.48585C5.52095 9.61767 5.43663 9.77297 5.38672 9.94129C5.3368 10.1096 5.32245 10.287 5.34463 10.4615L6.21515 17.2307C6.25299 17.5287 6.39515 17.8022 6.61482 17.9993C6.83449 18.1966 7.11649 18.3041 7.40765 18.3015H18.4264C18.7175 18.3041 18.9995 18.1966 19.2192 17.9993C19.4388 17.8022 19.581 17.5287 19.6189 17.2307L20.4894 10.4615C20.5113 10.2891 20.4975 10.1138 20.449 9.94718C20.4005 9.78058 20.3183 9.6265 20.2079 9.49509C20.0975 9.36367 19.9613 9.25791 19.8084 9.18477C19.6555 9.11163 19.4893 9.07278 19.3208 9.07078Z" stroke="#222222" stroke-linecap="round" stroke-linejoin="round"/>
<path d="M9.94772 12.1476V15.2246" stroke="#222222" stroke-linecap="round" stroke-linejoin="round"/>
<path d="M12.929 12.1476V15.2246" stroke="#222222" stroke-linecap="round" stroke-linejoin="round"/>
<path d="M15.9102 12.1476V15.2246" stroke="#222222" stroke-linecap="round" stroke-linejoin="round"/>
<path d="M15.5381 5.71741L18.8915 9.07075" stroke="#222222" stroke-linecap="round" stroke-linejoin="round"/>
<path d="M6.96646 9.07079L10.3387 5.69855" stroke="#222222" stroke-linecap="round" stroke-linejoin="round"/>
</svg>
