<svg width="25" height="24" viewBox="0 0 25 24" fill="none" xmlns="http://www.w3.org/2000/svg">
<path d="M13.417 20H6.14776C5.46803 20 4.91699 19.449 4.91699 18.7692V5.23077C4.91699 4.55103 5.46803 4 6.14776 4H19.6862C20.366 4 20.917 4.55103 20.917 5.23077V12.5" stroke="#222222" stroke-linecap="round" stroke-linejoin="round"/>
<path d="M15.3785 4V9.39541C15.3785 9.53851 15.3137 9.67575 15.1983 9.77692C15.0829 9.87811 14.9264 9.93496 14.7632 9.93496L13.8401 8.93496L12.917 9.93496L11.9939 8.93496L11.0708 9.93496C10.9076 9.93496 10.7511 9.87811 10.6357 9.77692C10.5203 9.67575 10.4555 9.53851 10.4555 9.39541V4" stroke="#222222" stroke-linecap="round" stroke-linejoin="round"/>
<path d="M19.6696 16.5205H20.917V15.2731" stroke="#222222" stroke-width="0.8" stroke-linecap="round" stroke-linejoin="round"/>
<path d="M16.8006 15.6395C17.0127 15.427 17.2647 15.2585 17.5421 15.1435C17.8194 15.0285 18.1167 14.9693 18.417 14.9693C18.7173 14.9693 19.0146 15.0285 19.2919 15.1435C19.5693 15.2585 19.8213 15.427 20.0334 15.6395L20.917 16.5205" stroke="#222222" stroke-width="0.8" stroke-linecap="round" stroke-linejoin="round"/>
<path d="M17.1644 17.9914H15.917V19.2388" stroke="#222222" stroke-width="0.8" stroke-linecap="round" stroke-linejoin="round"/>
<path d="M20.0334 18.8723C19.8213 19.0848 19.5693 19.2534 19.2919 19.3684C19.0146 19.4834 18.7173 19.5426 18.417 19.5426C18.1167 19.5426 17.8194 19.4834 17.5421 19.3684C17.2647 19.2534 17.0127 19.0848 16.8006 18.8723L15.917 17.9914" stroke="#222222" stroke-width="0.8" stroke-linecap="round" stroke-linejoin="round"/>
</svg>
