<svg width="25" height="24" viewBox="0 0 25 24" fill="none" xmlns="http://www.w3.org/2000/svg">
<path d="M12.417 20H5.14776C4.46803 20 3.91699 19.449 3.91699 18.7692V5.23077C3.91699 4.55103 4.46803 4 5.14776 4H18.6862C19.366 4 19.917 4.55103 19.917 5.23077V12.5" stroke="#222222" stroke-linecap="round" stroke-linejoin="round"/>
<path d="M13.917 18L15.4103 19.8419C15.4476 19.8904 15.4954 19.9299 15.5502 19.9573C15.6049 19.9846 15.6651 19.9992 15.7263 20C15.7865 20.0007 15.8461 19.9879 15.9008 19.9627C15.9555 19.9375 16.0039 19.9004 16.0424 19.8541L20.417 15" stroke="#222222" stroke-width="0.8" stroke-linecap="round" stroke-linejoin="round"/>
<path d="M14.3785 4V9.39541C14.3785 9.53851 14.3137 9.67575 14.1983 9.77692C14.0829 9.87811 13.9264 9.93496 13.7631 9.93496L12.8401 8.93496L11.917 9.93496L10.9939 8.93496L10.0708 9.93496C9.90762 9.93496 9.7511 9.87811 9.6357 9.77692C9.52029 9.67575 9.45545 9.53851 9.45545 9.39541V4" stroke="#222222" stroke-linecap="round" stroke-linejoin="round"/>
</svg>
