<svg width="25" height="24" viewBox="0 0 25 24" fill="none" xmlns="http://www.w3.org/2000/svg">
<path d="M19.6862 4H6.14776C5.46803 4 4.91699 4.55103 4.91699 5.23077V18.7692C4.91699 19.449 5.46803 20 6.14776 20H19.6862C20.366 20 20.917 19.449 20.917 18.7692V5.23077C20.917 4.55103 20.366 4 19.6862 4Z" stroke="#222222" stroke-linecap="round" stroke-linejoin="round"/>
<path d="M15.3785 4V9.39541C15.3785 9.53851 15.3137 9.67575 15.1983 9.77692C15.0829 9.87811 14.9263 9.93496 14.7631 9.93496L13.8401 8.93496L12.917 9.93496L11.9939 8.93496L11.0708 9.93496C10.9076 9.93496 10.7511 9.87811 10.6357 9.77692C10.5203 9.67575 10.4554 9.53851 10.4554 9.39541V4" stroke="#222222" stroke-linecap="round" stroke-linejoin="round"/>
<path d="M14.7632 16.9231H17.8401" stroke="#222222" stroke-linecap="round" stroke-linejoin="round"/>
</svg>
