<svg width="25" height="24" viewBox="0 0 25 24" fill="none" xmlns="http://www.w3.org/2000/svg">
<path d="M11.4223 4.53114C12.2929 3.82291 13.5411 3.82291 14.4117 4.53114L14.8276 4.86949L15.357 4.78443C16.4651 4.6064 17.546 5.23046 17.9458 6.27912L18.1369 6.7801L18.6379 6.97112C19.6865 7.37098 20.3106 8.45191 20.1325 9.55999L20.0474 10.0894L20.3859 10.5053C21.094 11.3759 21.094 12.6241 20.3859 13.4947L20.0474 13.9106L20.1325 14.44C20.3106 15.548 19.6865 16.6289 18.6379 17.0289L18.1369 17.2199L17.9458 17.7208C17.546 18.7695 16.4651 19.3936 15.357 19.2155L14.8276 19.1305L14.4117 19.4688C13.5411 20.1771 12.2929 20.1771 11.4223 19.4688L11.0064 19.1305L10.477 19.2155C9.36893 19.3936 8.28801 18.7695 7.88815 17.7208L7.69711 17.2199L7.19614 17.0289C6.14749 16.6289 5.52342 15.548 5.70146 14.44L5.78651 13.9106L5.44817 13.4947C4.73993 12.6241 4.73993 11.3759 5.44817 10.5053L5.78651 10.0894L5.70146 9.55999C5.52342 8.45191 6.14749 7.37098 7.19614 6.97112L7.69711 6.7801L7.88815 6.27912C8.28801 5.23046 9.36893 4.6064 10.477 4.78443L11.0064 4.86949L11.4223 4.53114Z" stroke="#222222" stroke-linecap="round" stroke-linejoin="round"/>
<path d="M9.79242 15.1245L16.0416 8.8754" stroke="#222222" stroke-linecap="round" stroke-linejoin="round"/>
<path d="M10.4173 10.1252C10.7625 10.1252 11.0422 9.84544 11.0422 9.50031C11.0422 9.15518 10.7625 8.8754 10.4173 8.8754C10.0722 8.8754 9.79242 9.15518 9.79242 9.50031C9.79242 9.84544 10.0722 10.1252 10.4173 10.1252Z" fill="#222222" stroke="#222222" stroke-linecap="round" stroke-linejoin="round"/>
<path d="M15.4167 15.1246C15.7618 15.1246 16.0416 14.8448 16.0416 14.4996C16.0416 14.1545 15.7618 13.8747 15.4167 13.8747C15.0715 13.8747 14.7917 14.1545 14.7917 14.4996C14.7917 14.8448 15.0715 15.1246 15.4167 15.1246Z" fill="#222222" stroke="#222222" stroke-linecap="round" stroke-linejoin="round"/>
</svg>
