<svg width="25" height="24" viewBox="0 0 25 24" fill="none" xmlns="http://www.w3.org/2000/svg">
<path d="M19.4697 13.8261C19.4697 7.57136 13.946 4.6776 11.3443 4C12.3179 6.4347 12.265 8.23701 11.0082 10.4581C10.8047 10.8176 10.31 10.8533 10.0367 10.5434L8.43795 8.73018C4.25612 13.1737 6.66368 20.3211 13.2855 19.9888C18.3519 19.676 19.4697 16.3018 19.4697 13.8261Z" stroke="#222222" stroke-linecap="round" stroke-linejoin="round"/>
<path d="M11.253 16.8998L15.3531 12.7997" stroke="#222222" stroke-linecap="round" stroke-linejoin="round"/>
<path d="M11.7496 13.3957C11.5772 13.3957 11.4374 13.2559 11.4374 13.0835C11.4374 12.9111 11.5772 12.7713 11.7496 12.7713" stroke="#222222" stroke-linecap="round" stroke-linejoin="round"/>
<path d="M11.7496 13.3957C11.922 13.3957 12.0618 13.2559 12.0618 13.0835C12.0618 12.9111 11.922 12.7713 11.7496 12.7713" stroke="#222222" stroke-linecap="round" stroke-linejoin="round"/>
<path d="M15.07 16.9287C14.8976 16.9287 14.7579 16.7888 14.7579 16.6165C14.7579 16.444 14.8976 16.3043 15.07 16.3043" stroke="#222222" stroke-linecap="round" stroke-linejoin="round"/>
<path d="M15.07 16.9287C15.2425 16.9287 15.3822 16.7888 15.3822 16.6165C15.3822 16.444 15.2425 16.3043 15.07 16.3043" stroke="#222222" stroke-linecap="round" stroke-linejoin="round"/>
</svg>
