<svg width="25" height="24" viewBox="0 0 25 24" fill="none" xmlns="http://www.w3.org/2000/svg">
<path d="M19.6862 7.0769H6.14776C5.46803 7.0769 4.91699 7.62794 4.91699 8.30767V10.7692C4.91699 11.4489 5.46803 12 6.14776 12H19.6862C20.366 12 20.917 11.4489 20.917 10.7692V8.30767C20.917 7.62794 20.366 7.0769 19.6862 7.0769Z" stroke="#222222" stroke-linecap="round" stroke-linejoin="round"/>
<path d="M19.6862 12V18.7692C19.6862 19.0956 19.5565 19.4087 19.3257 19.6395C19.095 19.8703 18.7819 20 18.4555 20H7.37853C7.0521 20 6.73906 19.8703 6.50824 19.6395C6.27743 19.4087 6.14776 19.0956 6.14776 18.7692V12" stroke="#222222" stroke-linecap="round" stroke-linejoin="round"/>
<path d="M12.917 7.0769V11.9286" stroke="#222222" stroke-linecap="round" stroke-linejoin="round"/>
<path d="M16.6093 4L12.917 7.07692L9.22469 4" stroke="#222222" stroke-linecap="round" stroke-linejoin="round"/>
</svg>
