<svg width="25" height="24" viewBox="0 0 25 24" fill="none" xmlns="http://www.w3.org/2000/svg">
<path d="M4.91699 16.9231C4.91699 17.6028 5.46711 18.1539 6.14571 18.1539H19.6883C20.3668 18.1539 20.917 17.6028 20.917 16.9231V14.4197C19.8532 14.1309 19.0707 13.157 19.0707 12C19.0707 10.843 19.8532 9.86915 20.917 9.58035V7.07693C20.917 6.3972 20.3668 5.84616 19.6883 5.84616H6.14571C5.46711 5.84616 4.91699 6.39719 4.91699 7.07693V9.57494C5.99108 9.85682 6.78353 10.8357 6.78353 12C6.78353 13.1643 5.99108 14.1432 4.91699 14.4251V16.9231Z" stroke="#222222" stroke-linecap="round" stroke-linejoin="round"/>
<path d="M9.86531 15.0769L16.0192 8.9231" stroke="#222222" stroke-linecap="round" stroke-linejoin="round"/>
<path d="M10.4807 10.1539C10.8206 10.1539 11.0961 9.87834 11.0961 9.53848C11.0961 9.19862 10.8206 8.9231 10.4807 8.9231C10.1408 8.9231 9.86531 9.19862 9.86531 9.53848C9.86531 9.87834 10.1408 10.1539 10.4807 10.1539Z" fill="#222222" stroke="#222222" stroke-linecap="round" stroke-linejoin="round"/>
<path d="M15.4038 15.0769C15.7436 15.0769 16.0192 14.8014 16.0192 14.4615C16.0192 14.1217 15.7436 13.8462 15.4038 13.8462C15.0639 13.8462 14.7884 14.1217 14.7884 14.4615C14.7884 14.8014 15.0639 15.0769 15.4038 15.0769Z" fill="#222222" stroke="#222222" stroke-linecap="round" stroke-linejoin="round"/>
</svg>
