<?xml version="1.0" encoding="UTF-8" standalone="yes"?>
<svg width="25" height="25" viewBox="0 0 25 25" fill="none" xmlns="http://www.w3.org/2000/svg">
  <path opacity="0.4" d="M6.48196 10.5714H19.2514" stroke="#222222" stroke-linecap="round" stroke-linejoin="round"/>
  <path opacity="0.4" d="M19.9249 10.6051L20.6273 9.74304" stroke="#222222" stroke-linecap="round" stroke-linejoin="round"/>
  <path opacity="0.4" d="M6.10046 10.3816L5.2065 9.51956" stroke="#222222" stroke-linecap="round" stroke-linejoin="round"/>
  <path d="M19.7238 12.815V16.8571C19.7238 17.0086 19.6636 17.154 19.5565 17.2611C19.4493 17.3683 19.304 17.4285 19.1524 17.4285H17.4381C17.2866 17.4285 17.1412 17.3683 17.0341 17.2611C16.9269 17.154 16.8667 17.0086 16.8667 16.8571V15.1428" stroke="#222222" stroke-linecap="round" stroke-linejoin="round"/>
  <path d="M8.86671 15.1428V16.8571C8.86671 17.0086 8.80651 17.1539 8.69934 17.2611C8.59218 17.3683 8.44683 17.4285 8.29528 17.4285H6.581C6.42944 17.4285 6.2841 17.3683 6.17693 17.2611C6.06977 17.1539 6.00957 17.0086 6.00957 16.8571L6.00957 11.9923" stroke="#222222" stroke-linecap="round" stroke-linejoin="round"/>
  <path opacity="0.4" d="M8.29527 12.8571H9.43813" stroke="#222222" stroke-linecap="round" stroke-linejoin="round"/>
  <path opacity="0.4" d="M16.2953 12.8571H17.4381" stroke="#222222" stroke-linecap="round" stroke-linejoin="round"/>
  <path d="M19.7239 11.1023C19.7239 10.7543 19.6331 10.4125 19.4605 10.1103L17.6024 6.85707C17.553 6.77001 17.4813 6.69766 17.3947 6.64745C17.3081 6.59724 17.2097 6.57098 17.1096 6.57135H8.62385C8.52374 6.57098 8.42533 6.59724 8.33872 6.64745C8.25211 6.69766 8.18042 6.77001 8.131 6.85707L6.27288 10.1103C6.10033 10.4125 6.00957 10.7543 6.00957 11.1023V13.1428C6.00957 14.2474 6.905 15.1428 8.00957 15.1428H17.7239C18.8284 15.1428 19.7239 14.2474 19.7239 13.1428V11.1023Z" stroke="#222222" stroke-linecap="round" stroke-linejoin="round"/>
</svg>