<?xml version="1.0" encoding="UTF-8" standalone="yes"?>
<svg width="25" height="25" viewBox="0 0 25 25" fill="none" xmlns="http://www.w3.org/2000/svg">
  <path d="M20.9155 4.00299L4.91848 20" stroke="#222222" stroke-linecap="round" stroke-linejoin="round"/>
  <path opacity="0.4" d="M12.3645 12.5537C11.2714 12.3027 10.4561 11.3239 10.4561 10.1546C10.4561 8.79509 11.5581 7.69302 12.9176 7.69302C14.0869 7.69302 15.0658 8.50832 15.3168 9.60147" stroke="#222222" stroke-linecap="round" stroke-linejoin="round"/>
  <path opacity="0.4" d="M18.2368 6.68156C17.0136 5.05145 15.0857 4 12.9169 4C9.22014 4 6.22338 7.05488 6.22338 10.8233C6.22338 12.9803 7.25496 14.8882 8.50825 16.4101" stroke="#222222" stroke-linecap="round" stroke-linejoin="round"/>
  <path d="M19.3478 8.92401C19.5189 9.52691 19.6106 10.1642 19.6106 10.8232C19.6106 15.3032 15.1605 18.7084 13.5173 19.8131C13.1512 20.0592 12.6827 20.0592 12.3167 19.8131C11.7984 19.4646 11.001 18.8874 10.152 18.1199" stroke="#222222" stroke-linecap="round" stroke-linejoin="round"/>
</svg>