<?xml version="1.0" encoding="UTF-8" standalone="yes"?>
<svg width="25" height="25" viewBox="0 0 25 25" fill="none" xmlns="http://www.w3.org/2000/svg">
  <path d="M12.917 17.5385C15.9758 17.5385 18.4554 15.0588 18.4554 12C18.4554 8.9412 15.9758 6.46155 12.917 6.46155C9.85818 6.46155 7.37852 8.9412 7.37852 12C7.37852 15.0588 9.85818 17.5385 12.917 17.5385Z" stroke="#222222" stroke-linecap="round" stroke-linejoin="round"/>
  <path d="M12.917 12.6154C13.2569 12.6154 13.5324 12.3399 13.5324 12C13.5324 11.6601 13.2569 11.3846 12.917 11.3846C12.5771 11.3846 12.3016 11.6601 12.3016 12C12.3016 12.3399 12.5771 12.6154 12.917 12.6154Z" stroke="#222222" stroke-linecap="round" stroke-linejoin="round"/>
  <path opacity="0.4" d="M12.917 6.46154V4" stroke="#222222" stroke-linecap="round" stroke-linejoin="round"/>
  <path opacity="0.4" d="M12.917 20V17.5385" stroke="#222222" stroke-linecap="round" stroke-linejoin="round"/>
  <path opacity="0.4" d="M18.4555 12H20.917" stroke="#222222" stroke-linecap="round" stroke-linejoin="round"/>
  <path opacity="0.4" d="M4.91699 12H7.37853" stroke="#222222" stroke-linecap="round" stroke-linejoin="round"/>
</svg>