<?xml version="1.0" encoding="UTF-8" standalone="yes"?>
<svg width="25" height="25" viewBox="0 0 25 25" fill="none" xmlns="http://www.w3.org/2000/svg">
  <path opacity="0.4" d="M12.9171 17.7143H20.9171" stroke="#222222" stroke-linecap="round" stroke-linejoin="round"/>
  <path d="M18.6313 15.4286L20.9171 17.7143L18.6313 20" stroke="#222222" stroke-linecap="round" stroke-linejoin="round"/>
  <path d="M6.63123 7.42895C7.57811 7.42895 8.34571 6.66135 8.34571 5.71447C8.34571 4.7676 7.57811 4 6.63123 4C5.68435 4 4.91676 4.7676 4.91676 5.71447C4.91676 6.66135 5.68435 7.42895 6.63123 7.42895Z" stroke="#222222" stroke-linecap="round" stroke-linejoin="round"/>
  <path d="M14.6315 13.1435C15.5784 13.1435 16.346 12.3759 16.346 11.429C16.346 10.4821 15.5784 9.71451 14.6315 9.71451C13.6846 9.71451 12.9171 10.4821 12.9171 11.429C12.9171 12.3759 13.6846 13.1435 14.6315 13.1435Z" stroke="#222222" stroke-linecap="round" stroke-linejoin="round"/>
  <path d="M11.2026 19.429C12.1495 19.429 12.9171 18.6614 12.9171 17.7146C12.9171 16.7677 12.1495 16.0001 11.2026 16.0001C10.2557 16.0001 9.48811 16.7677 9.48811 17.7146C9.48811 18.6614 10.2557 19.429 11.2026 19.429Z" stroke="#222222" stroke-linecap="round" stroke-linejoin="round"/>
  <path opacity="0.4" d="M12.9171 11.4291H8.05988C6.32412 11.4291 4.91699 12.8363 4.91699 14.572C4.91699 16.3078 6.32412 17.7149 8.05988 17.7149H9.48847" stroke="#222222" stroke-linecap="round" stroke-linejoin="round"/>
  <path opacity="0.4" d="M16.3456 11.4289H18.06C19.638 11.4289 20.9171 10.1497 20.9171 8.57174C20.9171 6.99377 19.638 5.71457 18.06 5.71457L8.35812 5.71457" stroke="#222222" stroke-linecap="round" stroke-linejoin="round"/>
</svg>