<?xml version="1.0" encoding="UTF-8" standalone="yes"?>
<svg width="25" height="25" viewBox="0 0 25 25" fill="none" xmlns="http://www.w3.org/2000/svg">
  <path d="M16.3456 7.82151H19.3884C19.5023 7.82077 19.6137 7.85449 19.708 7.91823C19.8024 7.98197 19.8752 8.07275 19.917 8.17866L20.917 10.6787" stroke="#222222" stroke-miterlimit="10"/>
  <path d="M16.9884 17.3215C17.8168 17.3215 18.4884 16.6499 18.4884 15.8215C18.4884 14.9931 17.8168 14.3215 16.9884 14.3215C16.16 14.3215 15.4884 14.9931 15.4884 15.8215C15.4884 16.6499 16.16 17.3215 16.9884 17.3215Z" stroke="#222222" stroke-miterlimit="10"/>
  <path d="M8.44295 17.3215C9.27137 17.3215 9.94295 16.6499 9.94295 15.8215C9.94295 14.9931 9.27137 14.3215 8.44295 14.3215C7.61452 14.3215 6.94295 14.9931 6.94295 15.8215C6.94295 16.6499 7.61452 17.3215 8.44295 17.3215Z" stroke="#222222" stroke-linecap="round" stroke-linejoin="round"/>
  <path d="M15.4884 15.8215H10.3456" stroke="#222222" stroke-linecap="round" stroke-linejoin="round"/>
  <path opacity="0.4" d="M6.91699 15.8215H5.48842C5.33687 15.8215 5.19152 15.7613 5.08436 15.6541C4.9772 15.547 4.91699 15.4016 4.91699 15.2501V7.25008C4.91699 7.09853 4.9772 6.95318 5.08436 6.84602C5.19152 6.73885 5.33687 6.67865 5.48842 6.67865H16.3456V14.3358" stroke="#222222" stroke-linecap="round" stroke-linejoin="round"/>
  <path opacity="0.4" d="M16.3456 10.6786H20.917V15.2501C20.917 15.4016 20.8568 15.547 20.7496 15.6541C20.6425 15.7613 20.4971 15.8215 20.3456 15.8215H18.917" stroke="#222222" stroke-linecap="round" stroke-linejoin="round"/>
</svg>