<?xml version="1.0" encoding="UTF-8" standalone="yes"?>
<svg width="25" height="25" viewBox="0 0 25 25" fill="none" xmlns="http://www.w3.org/2000/svg">
  <path d="M20.5993 11.0788C20.8038 11.3314 20.917 11.6597 20.917 12C20.917 12.3404 20.8038 12.6686 20.5993 12.9213C19.3046 14.475 16.3574 17.5 12.917 17.5C9.47661 17.5 6.52946 14.475 5.23469 12.9213C5.03019 12.6686 4.91699 12.3404 4.91699 12C4.91699 11.6597 5.03019 11.3314 5.23469 11.0788C6.52946 9.525 9.47661 6.5 12.917 6.5C16.3574 6.5 19.3046 9.525 20.5993 11.0788Z" stroke="#222222" stroke-linecap="round" stroke-linejoin="round"/>
  <path opacity="0.4" d="M12.917 14.5C14.2977 14.5 15.417 13.3807 15.417 12C15.417 10.6193 14.2977 9.5 12.917 9.5C11.5363 9.5 10.417 10.6193 10.417 12C10.417 13.3807 11.5363 14.5 12.917 14.5Z" stroke="#222222" stroke-linecap="round" stroke-linejoin="round"/>
</svg>