<?xml version="1.0" encoding="UTF-8" standalone="yes"?>
<svg width="25" height="25" viewBox="0 0 25 25" fill="none" xmlns="http://www.w3.org/2000/svg">
  <path d="M6.98102 16.7816C7.69246 15.3036 8.06132 13.6753 8.05849 12.0251C8.05916 11.2227 8.23418 10.4307 8.57066 9.70738C8.90715 8.98403 9.39652 8.34775 10.0028 7.84534" stroke="#222222" stroke-linecap="round" stroke-linejoin="round"/>
  <path d="M13.2433 12.0251C13.2468 14.745 12.5776 17.4209 11.299 19.7994" stroke="#222222" stroke-linecap="round" stroke-linejoin="round"/>
  <path d="M10.6509 12.0251C10.6509 11.3156 10.924 10.6352 11.4102 10.1335C11.8963 9.63187 12.5557 9.35004 13.2433 9.35004C13.9308 9.35004 14.5902 9.63187 15.0764 10.1335C15.5626 10.6352 15.8357 11.3156 15.8357 12.0251C15.841 14.7826 15.2516 17.5067 14.1101 20" stroke="#222222" stroke-linecap="round" stroke-linejoin="round"/>
  <path d="M20.583 16.7064C20.8733 15.1639 21.0197 13.5963 21.0205 12.0251C21.0205 9.8967 20.2011 7.85549 18.7426 6.35049C17.2841 4.8455 15.3059 4 13.2433 4C11.1806 4 9.20248 4.8455 7.74397 6.35049C6.28546 7.85549 5.46608 9.8967 5.46608 12.0251C5.4684 12.9366 5.31764 13.8417 5.02051 14.7001" stroke="#222222" stroke-linecap="round" stroke-linejoin="round"/>
  <path d="M10.3916 14.7001C10.1118 16.1067 9.61682 17.4583 8.92529 18.7043" stroke="#222222" stroke-linecap="round" stroke-linejoin="round"/>
  <path d="M12.5952 6.71685C12.8103 6.69017 13.0267 6.67621 13.2433 6.67505C14.6184 6.67505 15.9372 7.23871 16.9095 8.24204C17.8819 9.24537 18.4281 10.6062 18.4281 12.0251C18.4274 12.9194 18.3733 13.8127 18.2661 14.7001" stroke="#222222" stroke-linecap="round" stroke-linejoin="round"/>
  <path d="M17.7719 17.3751C17.6504 17.8683 17.5127 18.3615 17.3588 18.838" stroke="#222222" stroke-linecap="round" stroke-linejoin="round"/>
</svg>