<svg width="25" height="25" viewBox="0 0 25 25" fill="none" xmlns="http://www.w3.org/2000/svg">
<path opacity="0.4" d="M16.5125 8.54171C15.2906 7.74774 13.8748 7.15784 12.3637 7.15784C8.92989 7.15784 5.98832 10.204 4.69601 11.7687C4.49195 12.0231 4.37896 12.3536 4.37896 12.6964C4.37896 13.0391 4.49195 13.3697 4.69601 13.6241C5.40838 14.4865 6.62192 15.7992 8.14265 16.8036" stroke="#222222" stroke-linecap="round" stroke-linejoin="round"/>
<path d="M10.5177 17.9512C11.1114 18.1308 11.7292 18.2348 12.3638 18.2348C15.7977 18.2348 18.7392 15.1886 20.0315 13.624C20.2356 13.3696 20.3486 13.039 20.3486 12.6963C20.3486 12.3535 20.2356 12.023 20.0315 11.7686C19.6221 11.2728 19.0471 10.6284 18.3434 9.97925" stroke="#222222" stroke-linecap="round" stroke-linejoin="round"/>
<path opacity="0.4" d="M10.6231 14.4369C9.66182 13.4756 9.66182 11.9171 10.6231 10.9558C11.5844 9.99448 13.143 9.99448 14.1042 10.9558" stroke="#222222" stroke-linecap="round" stroke-linejoin="round"/>
<path d="M4.36377 20.6963L20.3638 4.69629" stroke="#222222" stroke-linecap="round" stroke-linejoin="round"/>
</svg>
