<svg width="25" height="25" viewBox="0 0 25 25" fill="none" xmlns="http://www.w3.org/2000/svg">
<path opacity="0.4" d="M16.9755 8.86251C15.7536 8.06855 14.3379 7.47864 12.8267 7.47864C9.3929 7.47864 6.45133 10.5248 5.15902 12.0895C4.95496 12.3439 4.84197 12.6744 4.84197 13.0172C4.84197 13.3599 4.95496 13.6905 5.15902 13.9449C5.87139 14.8073 7.08493 16.12 8.60567 17.1244" stroke="#222222" stroke-linecap="round" stroke-linejoin="round"/>
<path d="M10.9806 18.272C11.5743 18.4516 12.1921 18.5556 12.8267 18.5556C16.2606 18.5556 19.2021 15.5094 20.4944 13.9448C20.6985 13.6904 20.8115 13.3598 20.8115 13.0171C20.8115 12.6744 20.6985 12.3438 20.4944 12.0894C20.085 11.5936 19.51 10.9492 18.8062 10.3" stroke="#222222" stroke-linecap="round" stroke-linejoin="round"/>
<path opacity="0.4" d="M11.0861 14.7577C10.1248 13.7964 10.1248 12.2379 11.0861 11.2766C12.0474 10.3153 13.606 10.3153 14.5673 11.2766" stroke="#222222" stroke-linecap="round" stroke-linejoin="round"/>
<path d="M4.82666 21.0171L20.8267 5.01709" stroke="#222222" stroke-linecap="round" stroke-linejoin="round"/>
</svg>
