<svg width="25" height="25" viewBox="0 0 25 25" fill="none" xmlns="http://www.w3.org/2000/svg">
<path opacity="0.35" d="M4.82666 10.4922V5.05842C4.82666 4.86201 4.90328 4.67365 5.03967 4.53477C5.17606 4.39589 5.36105 4.31787 5.55393 4.31787H20.0994C20.2923 4.31787 20.4773 4.39589 20.6136 4.53477C20.75 4.67365 20.8267 4.86201 20.8267 5.05842V10.4922C20.8267 18.2679 14.3448 20.8413 13.0539 21.2764C12.9073 21.3317 12.746 21.3317 12.5994 21.2764C11.3085 20.8413 4.82666 18.2679 4.82666 10.4922Z" fill="#222222"/>
<path d="M4.82666 10.4922V5.05842C4.82666 4.86201 4.90328 4.67365 5.03967 4.53477C5.17606 4.39589 5.36105 4.31787 5.55393 4.31787H20.0994C20.2923 4.31787 20.4773 4.39589 20.6136 4.53477C20.75 4.67365 20.8267 4.86201 20.8267 5.05842V10.4922C20.8267 18.2679 14.3448 20.8413 13.0539 21.2764C12.9073 21.3317 12.746 21.3317 12.5994 21.2764C11.3085 20.8413 4.82666 18.2679 4.82666 10.4922Z" stroke="#222222" stroke-linecap="round" stroke-linejoin="round"/>
</svg>
