<svg width="25" height="25" viewBox="0 0 25 25" fill="none" xmlns="http://www.w3.org/2000/svg">
<path opacity="0.35" d="M14.0533 21.4165L13.2667 21.735C12.983 21.8455 12.6704 21.8455 12.3867 21.735L11.6 21.4165C9.60743 20.6053 7.89594 19.1903 6.68799 17.3557C5.48003 15.5209 4.8315 13.3513 4.82666 11.1287V7.27945C6.33665 7.50293 7.87673 7.29935 9.28466 6.69014C10.6926 6.08094 11.9162 5.08867 12.8267 3.81787C14.4933 6.3379 17.2533 7.52868 20.8267 7.27945V11.1287C20.8219 13.3513 20.1733 15.5209 18.9653 17.3557C17.7573 19.1903 16.0459 20.6053 14.0533 21.4165Z" fill="#222222"/>
<path d="M14.0533 21.4165L13.2667 21.735C12.983 21.8455 12.6704 21.8455 12.3867 21.735L11.6 21.4165C9.60743 20.6053 7.89594 19.1903 6.68799 17.3557C5.48003 15.5209 4.8315 13.3513 4.82666 11.1287V7.27945C6.33665 7.50293 7.87673 7.29935 9.28466 6.69014C10.6926 6.08094 11.9162 5.08867 12.8267 3.81787C14.4933 6.3379 17.2533 7.52868 20.8267 7.27945V11.1287C20.8219 13.3513 20.1733 15.5209 18.9653 17.3557C17.7573 19.1903 16.0459 20.6053 14.0533 21.4165Z" stroke="#222222" stroke-linecap="round" stroke-linejoin="round"/>
</svg>
