<svg width="25" height="25" viewBox="0 0 25 25" fill="none" xmlns="http://www.w3.org/2000/svg">
<path opacity="0.35" d="M4.35547 10.5832V5.14948C4.35547 4.95308 4.43209 4.76472 4.56848 4.62584C4.70487 4.48696 4.88986 4.40894 5.08274 4.40894H19.6282C19.8211 4.40894 20.0061 4.48696 20.1425 4.62584C20.2788 4.76472 20.3555 4.95308 20.3555 5.14948V10.5832C20.3555 18.359 13.8737 20.9324 12.5827 21.3675C12.4361 21.4228 12.2748 21.4228 12.1282 21.3675C10.8373 20.9324 4.35547 18.359 4.35547 10.5832Z" fill="#222222"/>
<path d="M4.35547 10.5832V5.14948C4.35547 4.95308 4.43209 4.76472 4.56848 4.62584C4.70487 4.48696 4.88986 4.40894 5.08274 4.40894H19.6282C19.8211 4.40894 20.0061 4.48696 20.1425 4.62584C20.2788 4.76472 20.3555 4.95308 20.3555 5.14948V10.5832C20.3555 18.359 13.8737 20.9324 12.5827 21.3675C12.4361 21.4228 12.2748 21.4228 12.1282 21.3675C10.8373 20.9324 4.35547 18.359 4.35547 10.5832Z" stroke="#222222" stroke-linecap="round" stroke-linejoin="round"/>
</svg>
