<svg width="25" height="24" viewBox="0 0 25 24" fill="none" xmlns="http://www.w3.org/2000/svg">
<path d="M16.1093 20H5.64776C4.96801 20 4.41699 19.449 4.41699 18.7692V8.30769C4.41699 7.62795 4.96801 7.07692 5.64776 7.07692H16.1093C16.789 7.07692 17.3401 7.62795 17.3401 8.30769V18.7692C17.3401 19.449 16.789 20 16.1093 20Z" stroke="#222222" stroke-linecap="round" stroke-linejoin="round"/>
<path d="M18.917 16.3077C19.7454 16.3077 20.417 15.6361 20.417 14.8077V5.23077C20.417 4.90434 20.2873 4.5913 20.0565 4.36048C19.8257 4.12967 19.5126 4 19.1862 4H9.34007C8.66033 4 8.1093 4.55103 8.1093 5.23077" stroke="#222222" stroke-linecap="round" stroke-linejoin="round"/>
</svg>
