<svg width="25" height="24" viewBox="0 0 25 24" fill="none" xmlns="http://www.w3.org/2000/svg">
<path d="M18.747 12V8.91051C18.747 8.64749 18.6434 8.39505 18.4586 8.20789L14.5973 4.29739C14.4094 4.1071 14.1531 4 13.8857 4H6.41699C5.86471 4 5.41699 4.44772 5.41699 5V19C5.41699 19.5523 5.86471 20 6.41699 20H11.417" stroke="#222222" stroke-linecap="round" stroke-linejoin="round"/>
<path d="M9.41699 12.6667H13.6452" stroke="#222222" stroke-linecap="round" stroke-linejoin="round"/>
<path d="M9.41699 15.3333H13.6736" stroke="#222222" stroke-linecap="round" stroke-linejoin="round"/>
<path d="M13.417 18L14.9103 19.8419C14.9476 19.8904 14.9954 19.9299 15.0502 19.9573C15.1049 19.9846 15.1651 19.9992 15.2263 20C15.2865 20.0007 15.3461 19.9879 15.4008 19.9627C15.4555 19.9375 15.5039 19.9004 15.5424 19.8541L19.917 15" stroke="#222222" stroke-width="0.8" stroke-linecap="round" stroke-linejoin="round"/>
</svg>
