<svg width="25" height="24" viewBox="0 0 25 24" fill="none" xmlns="http://www.w3.org/2000/svg">
<path d="M20.417 12V7.5C20.417 6.94772 19.9693 6.5 19.417 6.5H12.594C12.1851 6.5 11.8174 6.25105 11.6655 5.87139L11.1684 4.62861C11.0166 4.24895 10.6489 4 10.24 4H5.41699C4.86471 4 4.41699 4.44772 4.41699 5V19C4.41699 19.5523 4.86471 20 5.41699 20H12.417" stroke="#222222" stroke-linecap="round" stroke-linejoin="round"/>
<path d="M14.417 18L15.9103 19.8419C15.9476 19.8904 15.9954 19.9299 16.0502 19.9573C16.1049 19.9846 16.1651 19.9992 16.2263 20C16.2865 20.0007 16.3461 19.9879 16.4008 19.9627C16.4555 19.9375 16.5039 19.9004 16.5424 19.8541L20.917 15" stroke="#222222" stroke-width="0.8" stroke-linecap="round" stroke-linejoin="round"/>
</svg>
