<svg width="25" height="24" viewBox="0 0 25 24" fill="none" xmlns="http://www.w3.org/2000/svg">
<path d="M4.41699 18.1543V5.2313C4.41699 4.90487 4.54666 4.59183 4.77748 4.36101C5.00829 4.13019 5.32134 4.00052 5.64776 4.00052H10.1893C10.4704 3.99233 10.7459 4.08069 10.9699 4.25088C11.1938 4.42107 11.3527 4.66283 11.4201 4.93591L11.8016 6.46207H19.1862C19.5126 6.46207 19.8257 6.59173 20.0565 6.82255C20.2873 7.05336 20.417 7.36641 20.417 7.69283V18.1543C20.417 18.4808 20.2873 18.7938 20.0565 19.0246C19.8257 19.2555 19.5126 19.3851 19.1862 19.3851H5.64776C5.32134 19.3851 5.00829 19.2555 4.77748 19.0246C4.54666 18.7938 4.41699 18.4808 4.41699 18.1543Z" stroke="#222222" stroke-linecap="round" stroke-linejoin="round"/>
</svg>
