<?xml version="1.0" encoding="UTF-8" standalone="yes"?>
<svg width="24" height="25" viewBox="0 0 24 25" fill="none" xmlns="http://www.w3.org/2000/svg">
  <path d="M15.5615 7.16455H19.8825C20.2099 7.16455 20.524 7.29452 20.7555 7.52584C20.987 7.75718 21.1171 8.07095 21.1171 8.3981V18.2665C21.1171 18.5936 20.987 18.9073 20.7555 19.1388C20.524 19.37 20.2099 19.5001 19.8825 19.5001H8.77143C8.08958 19.5001 7.53687 18.9477 7.53687 18.2665V13.3323" stroke="#222222" stroke-linecap="round" stroke-linejoin="round"/>
  <path d="M21.1172 10.2483H13.0925" stroke="#222222" stroke-linecap="round" stroke-linejoin="round"/>
  <path d="M16.1789 12.7153L18.0308 14.5657L16.1789 16.416" stroke="#222222" stroke-linecap="round" stroke-linejoin="round"/>
  <path d="M14.1172 12.5L13.1172 16.5" stroke="#222222" stroke-linecap="round" stroke-linejoin="round"/>
  <path opacity="0.4" d="M12.6283 7.73593C13.0616 7.66062 13.0616 7.03919 12.6283 6.96388C11.0587 6.69105 9.81036 5.49652 9.46967 3.94151L9.44356 3.82232C9.34981 3.39448 8.74018 3.39182 8.64265 3.81882L8.61092 3.95773C8.25771 5.5054 7.00895 6.68984 5.44376 6.96191C5.00833 7.03761 5.00833 7.6622 5.44376 7.73789C7.00895 8.00998 8.25771 9.19441 8.61092 10.7421L8.64265 10.881C8.74018 11.308 9.34981 11.3053 9.44356 10.8775L9.46967 10.7583C9.81036 9.20328 11.0587 8.00877 12.6283 7.73593Z" stroke="#222222" stroke-linecap="round" stroke-linejoin="round"/>
</svg>