<?xml version="1.0" encoding="UTF-8" standalone="yes"?>
<svg width="24" height="25" viewBox="0 0 24 25" fill="none" xmlns="http://www.w3.org/2000/svg">
  <path d="M10.8771 11.606L13.3432 13.3125C13.5643 13.4424 13.843 13.5135 14.1309 13.5135C14.4187 13.5135 14.6974 13.4424 14.9186 13.3125L22.1309 8.97501" stroke="#222222" stroke-linecap="round" stroke-linejoin="round"/>
  <path opacity="0.4" d="M4.03085 8.82633C3.5938 8.75023 3.5938 8.1228 4.03085 8.04683C5.6142 7.77134 6.87354 6.56534 7.21721 4.99538L7.24355 4.87503C7.33811 4.44309 7.95318 4.4404 8.05144 4.87151L8.08345 5.01175C8.43988 6.57429 9.69948 7.77012 11.2785 8.04484C11.7178 8.12118 11.7178 8.75185 11.2785 8.82819C9.69948 9.10293 8.43988 10.2988 8.08345 11.8614L8.05144 12.0016C7.95318 12.4326 7.33811 12.43 7.24355 11.998L7.21721 11.8777C6.87354 10.3077 5.6142 9.10169 4.03085 8.82633Z" stroke="#222222" stroke-linecap="round" stroke-linejoin="round"/>
  <path d="M14.1308 7.39139H21.1065C21.6588 7.39139 22.1065 7.8391 22.1065 8.39139V18.4504C22.1065 19.0027 21.6588 19.4504 21.1065 19.4504H7.09436C6.54208 19.4504 6.09436 19.0027 6.09436 18.4504V14.5" stroke="#222222" stroke-linecap="round" stroke-linejoin="round"/>
</svg>