<?xml version="1.0" encoding="UTF-8" standalone="yes"?>
<svg width="24" height="25" viewBox="0 0 24 25" fill="none" xmlns="http://www.w3.org/2000/svg">
  <path d="M11.417 13.4167H16.7503" stroke="#222222" stroke-linecap="round" stroke-linejoin="round"/>
  <path d="M11.417 16.0833H16.7503" stroke="#222222" stroke-linecap="round" stroke-linejoin="round"/>
  <path d="M14.0713 4.75C14.0713 4.75 14.8526 4.75 15.5028 4.75C15.768 4.75 16.0223 4.85536 16.2099 5.04289L20.1241 8.95711C20.3116 9.14464 20.417 9.399 20.417 9.66421V19.25C20.417 19.8023 19.9693 20.25 19.417 20.25H8.41699C7.86471 20.25 7.41699 19.8023 7.41699 19.25V13.75" stroke="#222222" stroke-linecap="round" stroke-linejoin="round"/>
  <path opacity="0.4" d="M5.74478 8.02671C5.30773 7.95061 5.30773 7.32318 5.74478 7.24721C7.32813 6.97171 8.58747 5.76572 8.93114 4.19575L8.95748 4.07541C9.05204 3.64347 9.66711 3.64078 9.76537 4.07189L9.79738 4.21213C10.1538 5.77467 11.4134 6.97049 12.9925 7.24522C13.4317 7.32156 13.4317 7.95223 12.9925 8.02857C11.4134 8.30331 10.1538 9.49914 9.79738 11.0617L9.76537 11.202C9.66711 11.633 9.05204 11.6304 8.95748 11.1984L8.93114 11.0781C8.58747 9.50811 7.32813 8.30206 5.74478 8.02671Z" stroke="#222222" stroke-linecap="round" stroke-linejoin="round"/>
</svg>