<?xml version="1.0" encoding="UTF-8" standalone="yes"?>
<svg width="24" height="25" viewBox="0 0 24 25" fill="none" xmlns="http://www.w3.org/2000/svg">
  <path d="M10.8951 14.5603C11.4721 15.1374 12.2547 15.4615 13.0708 15.4615C13.8868 15.4615 14.6695 15.1374 15.2465 14.5603C15.8235 13.9833 16.1477 13.2007 16.1477 12.3846V8.07692C16.1477 7.26087 15.8235 6.47824 15.2465 5.90121C14.6695 5.32417 13.8868 5 13.0708 5" stroke="#222222" stroke-linecap="round" stroke-linejoin="round"/>
  <path d="M19.2247 13C19.2263 13.7278 19.0841 14.4487 18.8064 15.1214C18.5287 15.7941 18.1208 16.4053 17.6061 16.9199C17.0915 17.4345 16.4803 17.8425 15.8076 18.1201C15.1349 18.3979 14.414 18.5401 13.6862 18.5385H12.4554C11.7277 18.5401 11.0067 18.3979 10.334 18.1201C9.66136 17.8425 9.05016 17.4345 8.53554 16.9199C8.02092 16.4053 7.61303 15.7941 7.33527 15.1214" stroke="#222222" stroke-linecap="round" stroke-linejoin="round"/>
  <path d="M13.0708 18.5386V21.0001" stroke="#222222" stroke-linecap="round" stroke-linejoin="round"/>
  <path opacity="0.4" d="M4.24478 8.27671C3.80773 8.20061 3.80773 7.57318 4.24478 7.49721C5.82813 7.22171 7.08747 6.01572 7.43114 4.44575L7.45748 4.32541C7.55204 3.89347 8.16711 3.89078 8.26537 4.32189L8.29738 4.46213C8.65381 6.02467 9.91341 7.22049 11.4925 7.49522C11.9317 7.57156 11.9317 8.20223 11.4925 8.27857C9.91341 8.55331 8.65381 9.74914 8.29738 11.3117L8.26537 11.452C8.16711 11.883 7.55204 11.8804 7.45748 11.4484L7.43114 11.3281C7.08747 9.75811 5.82813 8.55206 4.24478 8.27671Z" stroke="#222222" stroke-linecap="round" stroke-linejoin="round"/>
</svg>