<?xml version="1.0" encoding="UTF-8" standalone="yes"?>
<svg width="25" height="25" viewBox="0 0 25 25" fill="none" xmlns="http://www.w3.org/2000/svg">
  <path d="M14.2366 8.42444L18.1324 15.1722C18.1673 15.2325 18.1876 15.3002 18.1917 15.3698C18.1958 15.4395 18.1836 15.5093 18.156 15.5736C18.1285 15.638 18.0863 15.6953 18.0329 15.7408C17.9794 15.7864 17.9162 15.8191 17.8481 15.8362L7.76565 18.3273C7.6701 18.3514 7.56948 18.3439 7.47904 18.3059C7.3886 18.2679 7.31328 18.2015 7.26447 18.1168L6.25256 16.3641C6.20358 16.2795 6.18374 16.181 6.19607 16.0837C6.2084 15.9864 6.25221 15.8955 6.32087 15.8248L13.5194 8.33868C13.5683 8.28832 13.6282 8.24988 13.6944 8.22639C13.7606 8.2029 13.8312 8.195 13.9008 8.20331C13.9703 8.21163 14.0368 8.23593 14.0951 8.27431C14.1534 8.31268 14.2018 8.36408 14.2366 8.42444Z" stroke="#222222" stroke-linecap="round" stroke-linejoin="round"/>
  <path opacity="0.4" d="M10.337 18.4469L10.7485 19.2916C10.8979 19.595 11.1541 19.8226 11.4606 19.9244C11.7671 20.0261 12.099 19.9938 12.3831 19.8344C12.6672 19.6751 12.8803 19.4017 12.9755 19.0745C13.0708 18.7473 12.8323 18.398 12.6829 18.0946L9.82056 12.5696" stroke="#222222" stroke-linecap="round" stroke-linejoin="round"/>
  <path d="M12.6115 5.5804V4.01758" stroke="#222222" stroke-linecap="round" stroke-linejoin="round"/>
  <path d="M19.2337 11.5684H20.8029" stroke="#222222" stroke-linecap="round" stroke-linejoin="round"/>
  <path d="M5.03113 11.5684H6.60028" stroke="#222222" stroke-linecap="round" stroke-linejoin="round"/>
  <path d="M6.1925 6.01758L7.30207 7.12267" stroke="#222222" stroke-linecap="round" stroke-linejoin="round"/>
  <path d="M17.4783 7.37926L18.5878 6.27417" stroke="#222222" stroke-linecap="round" stroke-linejoin="round"/>
</svg>