<?xml version="1.0" encoding="UTF-8" standalone="yes"?>
<svg width="25" height="25" viewBox="0 0 25 25" fill="none" xmlns="http://www.w3.org/2000/svg">
  <path d="M15.7631 19.1401C15.7631 19.8425 14.9228 20.2039 14.413 19.7209L11.3903 16.8573C11.0817 16.5649 10.5984 16.565 10.2899 16.8573L7.26719 19.7209C6.75732 20.2039 5.91699 19.8424 5.91699 19.1401V7.00809C5.91699 6.69885 6.04667 6.40228 6.27747 6.18361C6.50829 5.96495 6.82134 5.8421 7.14776 5.8421H14.5324C14.8588 5.8421 15.1719 5.96495 15.4027 6.18361C15.6334 6.40228 15.7631 6.69885 15.7631 7.00809V19.1401Z" stroke="#222222" stroke-linecap="round" stroke-linejoin="round"/>
  <path opacity="0.4" d="M10.5837 3.67895C10.5837 3.49888 10.6539 3.32619 10.7789 3.19886C10.904 3.07153 11.0735 3 11.2503 3H19.2503C19.4272 3 19.5967 3.07153 19.7218 3.19886C19.8468 3.32619 19.917 3.49888 19.917 3.67895V15.1068C19.917 15.7411 19.214 16.1231 18.6818 15.778L17.7028 15.1432" stroke="#222222" stroke-linecap="round" stroke-linejoin="round"/>
</svg>