<?xml version="1.0" encoding="UTF-8" standalone="yes"?>
<svg width="25" height="25" viewBox="0 0 25 25" fill="none" xmlns="http://www.w3.org/2000/svg">
  <path d="M12.917 19C12.917 19 4.91699 14.5455 4.91699 9.13637C4.91699 8.18014 5.25019 7.25345 5.85989 6.51396C6.46959 5.77447 7.31813 5.26786 8.26115 5.08033C9.20416 4.8928 10.1834 5.03593 11.0322 5.48537C11.8811 5.93481 12.5471 6.66279 12.917 7.54546V7.54546C13.2869 6.66279 13.9529 5.93481 14.8017 5.48537C15.6506 5.03593 16.6298 4.8928 17.5728 5.08033C18.5159 5.26786 19.3644 5.77447 19.9741 6.51396C20.5838 7.25345 20.917 8.18014 20.917 9.13637C20.917 14.5455 12.917 19 12.917 19Z" stroke="#222222" stroke-linecap="round" stroke-linejoin="round"/>
</svg>