<?xml version="1.0" encoding="UTF-8" standalone="yes"?>
<svg width="25" height="25" viewBox="0 0 25 25" fill="none" xmlns="http://www.w3.org/2000/svg">
  <path d="M17.4093 17.225L20.917 12L17.4093 6.77502C17.3536 6.68982 17.2772 6.61995 17.1871 6.57188C17.097 6.52381 16.9962 6.49909 16.8939 6.50003H5.53238C5.36917 6.50003 5.21264 6.56441 5.09723 6.67902C4.98183 6.79362 4.91699 6.94906 4.91699 7.11113V16.8889C4.91699 17.0509 4.98183 17.2064 5.09723 17.321C5.21264 17.4356 5.36917 17.5 5.53238 17.5H16.8939C16.9962 17.5009 17.097 17.4762 17.1871 17.4281C17.2772 17.3801 17.3536 17.3102 17.4093 17.225V17.225Z" stroke="#222222" stroke-linecap="round" stroke-linejoin="round"/>
</svg>