<?xml version="1.0" encoding="UTF-8" standalone="yes"?>
<svg width="25" height="25" viewBox="0 0 25 25" fill="none" xmlns="http://www.w3.org/2000/svg">
  <path d="M20.917 5.66182V17.1157C20.9171 17.2182 20.8932 17.3192 20.8472 17.4109C20.8012 17.5026 20.7344 17.5824 20.652 17.6441C20.5696 17.7058 20.4738 17.7477 20.3723 17.7664C20.2708 17.7851 20.1663 17.7802 20.067 17.7521L5.40033 13.5126C5.26095 13.4731 5.13837 13.3896 5.05116 13.2748C4.96394 13.16 4.91684 13.0201 4.91699 12.8763V9.90126C4.91684 9.75751 4.96394 9.61762 5.05116 9.50279C5.13837 9.38797 5.26095 9.30446 5.40033 9.26493L20.067 5.02549C20.1663 4.99733 20.2708 4.99242 20.3723 5.01116C20.4738 5.0299 20.5696 5.07177 20.652 5.13347C20.7344 5.19517 20.8012 5.27501 20.8472 5.3667C20.8932 5.45839 20.9171 5.55942 20.917 5.66182Z" stroke="#222222" stroke-linecap="round" stroke-linejoin="round"/>
  <path opacity="0.4" d="M8.54409 14.8605L8.48865 16.1663C8.47082 16.6365 8.64081 17.0951 8.96125 17.4413C9.28174 17.7874 9.72632 17.9929 10.1973 18.0124C10.6683 18.032 11.127 17.8639 11.4727 17.5452C11.8183 17.2267 11.7543 16.6365 11.7722 16.1663L11.917 7.5" stroke="#222222" stroke-linecap="round" stroke-linejoin="round"/>
</svg>