<?xml version="1.0" encoding="UTF-8" standalone="yes"?>
<svg width="25" height="25" viewBox="0 0 25 25" fill="none" xmlns="http://www.w3.org/2000/svg">
  <path d="M13.5382 4.37756L15.4997 8.24894C15.5444 8.34721 15.6145 8.43232 15.7033 8.49581C15.792 8.55928 15.8962 8.59892 16.0055 8.61075L20.3357 9.23789C20.4612 9.25364 20.5794 9.30395 20.6766 9.38293C20.7738 9.4619 20.8461 9.56629 20.8848 9.6839C20.9237 9.80151 20.9274 9.92749 20.8957 10.0471C20.8641 10.1668 20.7982 10.2751 20.7058 10.3595L17.5846 13.3867C17.505 13.4594 17.4452 13.5505 17.4108 13.6516C17.3762 13.7527 17.3682 13.8606 17.3872 13.9656L18.1398 18.2228C18.1616 18.3452 18.1478 18.471 18.1 18.5861C18.0523 18.7011 17.9725 18.8007 17.8696 18.8737C17.7668 18.9466 17.6451 18.9897 17.5184 18.9984C17.3917 19.007 17.265 18.9807 17.1528 18.9223L13.2544 16.9082C13.1546 16.8604 13.0449 16.8355 12.9337 16.8355C12.8225 16.8355 12.7128 16.8604 12.6129 16.9082L8.7145 18.9223C8.60235 18.9807 8.47571 19.007 8.349 18.9984C8.22229 18.9897 8.10058 18.9466 7.99776 18.8737C7.89492 18.8007 7.81507 18.7011 7.76731 18.5861C7.71955 18.471 7.70577 18.3452 7.72756 18.2228L8.4801 13.9173C8.49917 13.8124 8.4911 13.7045 8.45664 13.6034C8.42217 13.5022 8.36237 13.4112 8.28271 13.3384L5.1245 10.3595C5.03106 10.2728 4.96535 10.1614 4.93533 10.039C4.90531 9.91648 4.91226 9.78811 4.95535 9.66941C4.99843 9.55071 5.0758 9.44678 5.17808 9.37018C5.28036 9.2936 5.40316 9.24764 5.53161 9.23789L9.86182 8.61075C9.97112 8.59892 10.0753 8.55928 10.1641 8.49581C10.2528 8.43232 10.323 8.34721 10.3676 8.24894L12.3292 4.37756C12.3826 4.26481 12.4679 4.16935 12.575 4.10245C12.6821 4.03555 12.8066 4 12.9337 4C13.0608 4 13.1852 4.03555 13.2924 4.10245C13.3995 4.16935 13.4848 4.26481 13.5382 4.37756Z" stroke="#222222" stroke-linecap="round" stroke-linejoin="round"/>
</svg>