<?xml version="1.0" encoding="UTF-8" standalone="yes"?>
<svg width="25" height="25" viewBox="0 0 25 25" fill="none" xmlns="http://www.w3.org/2000/svg">
  <path d="M10.7053 10.7691C12.4047 10.7691 13.7823 9.39149 13.7823 7.69216C13.7823 5.99282 12.4047 4.61523 10.7053 4.61523C9.00601 4.61523 7.62842 5.99282 7.62842 7.69216C7.62842 9.39149 9.00601 10.7691 10.7053 10.7691Z" stroke="#222222" stroke-linecap="round" stroke-linejoin="round"/>
  <path d="M13.5516 19.3846H5.16699V18.7174C5.17679 17.7793 5.42419 16.859 5.88609 16.0424C6.348 15.2259 7.00933 14.5397 7.80831 14.048C8.6073 13.5563 9.51787 13.2752 10.455 13.2308C11.3921 13.1865 12.3251 13.3803 13.167 13.7943" stroke="#222222" stroke-linecap="round" stroke-linejoin="round"/>
  <path opacity="0.4" d="M18.567 15.4259C18.567 15.205 18.3879 15.0259 18.167 15.0259C17.9461 15.0259 17.767 15.205 17.767 15.4259H18.567ZM18.167 16.8843H17.767C17.767 17.1052 17.9461 17.2843 18.167 17.2843V16.8843ZM19.6253 17.2843C19.8462 17.2843 20.0253 17.1052 20.0253 16.8843C20.0253 16.6634 19.8462 16.4843 19.6253 16.4843V17.2843ZM20.267 16.8843C20.267 18.0441 19.3268 18.9843 18.167 18.9843V19.7843C19.7686 19.7843 21.067 18.4859 21.067 16.8843H20.267ZM18.167 18.9843C17.0072 18.9843 16.067 18.0441 16.067 16.8843H15.267C15.267 18.4859 16.5654 19.7843 18.167 19.7843V18.9843ZM16.067 16.8843C16.067 15.7245 17.0072 14.7843 18.167 14.7843V13.9843C16.5654 13.9843 15.267 15.2827 15.267 16.8843H16.067ZM18.167 14.7843C19.3268 14.7843 20.267 15.7245 20.267 16.8843H21.067C21.067 15.2827 19.7686 13.9843 18.167 13.9843V14.7843ZM17.767 15.4259V16.8843H18.567V15.4259H17.767ZM18.167 17.2843H19.6253V16.4843H18.167V17.2843Z" fill="#222222"/>
</svg>