<svg width="25" height="24" viewBox="0 0 25 24" fill="none" xmlns="http://www.w3.org/2000/svg">
<path d="M12.917 10.6667C14.7579 10.6667 16.2503 9.17428 16.2503 7.33333C16.2503 5.49239 14.7579 4 12.917 4C11.076 4 9.58365 5.49239 9.58365 7.33333C9.58365 9.17428 11.076 10.6667 12.917 10.6667Z" stroke="#222222" stroke-linecap="round" stroke-linejoin="round"/>
<path d="M6.91699 20H12.917H18.917V19.2772C18.9064 18.2609 18.6384 17.2639 18.138 16.3793C17.6376 15.4947 16.9211 14.7513 16.0556 14.2187C15.19 13.686 14.2035 13.3814 13.1884 13.3334C13.0978 13.3291 13.0074 13.3268 12.917 13.3267C12.8266 13.3268 12.7361 13.3291 12.6456 13.3334C11.6304 13.3814 10.644 13.686 9.77842 14.2187C8.91286 14.7513 8.19642 15.4947 7.69602 16.3793C7.19563 17.2639 6.92761 18.2609 6.91699 19.2772V20Z" stroke="#222222" stroke-linecap="round" stroke-linejoin="round"/>
</svg>
