<svg width="25" height="24" viewBox="0 0 25 24" fill="none" xmlns="http://www.w3.org/2000/svg">
<path d="M10.3305 10.4038C12.0298 10.4038 13.4074 9.02626 13.4074 7.32692C13.4074 5.62759 12.0298 4.25 10.3305 4.25C8.63113 4.25 7.25354 5.62759 7.25354 7.32692C7.25354 9.02626 8.63113 10.4038 10.3305 10.4038Z" stroke="#222222" stroke-linecap="round" stroke-linejoin="round"/>
<path d="M13.1766 19.0193H4.79199V18.3521C4.80179 17.414 5.04919 16.4936 5.51109 15.6771C5.973 14.8605 6.63433 14.1744 7.43331 13.6827C8.2323 13.191 9.14287 12.9098 10.08 12.8655C11.0171 12.8211 11.9501 13.015 12.792 13.429" stroke="#222222" stroke-linecap="round" stroke-linejoin="round"/>
<path d="M14.542 17.75L16.0353 19.5919C16.0726 19.6404 16.1204 19.6799 16.1752 19.7073C16.2299 19.7346 16.2901 19.7492 16.3513 19.75C16.4115 19.7507 16.4711 19.7379 16.5258 19.7127C16.5805 19.6875 16.6289 19.6504 16.6674 19.6041L21.042 14.75" stroke="#222222" stroke-width="0.8" stroke-linecap="round" stroke-linejoin="round"/>
</svg>
