<svg width="25" height="24" viewBox="0 0 25 24" fill="none" xmlns="http://www.w3.org/2000/svg">
<path d="M10.4554 10.2499C12.1548 10.2499 13.5324 8.85085 13.5324 7.12497C13.5324 5.3991 12.1548 4 10.4554 4C8.75611 4 7.37852 5.3991 7.37852 7.12497C7.37852 8.85085 8.75611 10.2499 10.4554 10.2499Z" stroke="#222222" stroke-linecap="round" stroke-linejoin="round"/>
<path d="M4.91699 18.9998H10.4555H15.9939V18.3222C15.9841 17.3695 15.7367 16.4347 15.2748 15.6055C14.8129 14.7761 14.1516 14.0793 13.3526 13.5799C12.5536 13.0805 11.643 12.795 10.7059 12.7499C10.6224 12.7459 10.5389 12.7438 10.4555 12.7437C10.372 12.7438 10.2885 12.7459 10.205 12.7499C9.26787 12.795 8.3573 13.0805 7.55831 13.5799C6.75933 14.0793 6.098 14.7761 5.63609 15.6055C5.17419 16.4347 4.92679 17.3695 4.91699 18.3222V18.9998Z" stroke="#222222" stroke-linecap="round" stroke-linejoin="round"/>
<path d="M15.3785 10.2499C17.0779 10.2499 18.4555 8.85085 18.4555 7.12497C18.4555 5.3991 17.0779 4 15.3785 4" stroke="#222222" stroke-linecap="round" stroke-linejoin="round"/>
<path d="M18.4555 19H20.917V18.3223C20.9071 17.3696 20.6598 16.4348 20.1979 15.6056C19.7359 14.7762 19.0747 14.0794 18.2756 13.58C17.7592 13.2572 17.196 13.0237 16.6093 12.8868" stroke="#222222" stroke-linecap="round" stroke-linejoin="round"/>
</svg>
