<svg width="25" height="24" viewBox="0 0 25 24" fill="none" xmlns="http://www.w3.org/2000/svg">
<path d="M10.4555 10.7693C12.1548 10.7693 13.5324 9.39174 13.5324 7.6924C13.5324 5.99307 12.1548 4.61548 10.4555 4.61548C8.75613 4.61548 7.37854 5.99307 7.37854 7.6924C7.37854 9.39174 8.75613 10.7693 10.4555 10.7693Z" stroke="#222222" stroke-linecap="round" stroke-linejoin="round"/>
<path d="M13.3016 19.3847H4.91699V18.7175C4.92679 17.7794 5.17419 16.8591 5.63609 16.0426C6.098 15.226 6.75933 14.5398 7.55831 14.0481C8.3573 13.5565 9.26787 13.2753 10.205 13.2309C11.1421 13.1866 12.0751 13.3805 12.917 13.7945" stroke="#222222" stroke-linecap="round" stroke-linejoin="round"/>
<path d="M16.917 15.3848L20.917 19.3848" stroke="#222222" stroke-width="0.8" stroke-linecap="round" stroke-linejoin="round"/>
<path d="M20.917 15.3848L16.917 19.3848" stroke="#222222" stroke-width="0.8" stroke-linecap="round" stroke-linejoin="round"/>
</svg>
