<svg width="25" height="24" viewBox="0 0 25 24" fill="none" xmlns="http://www.w3.org/2000/svg">
<path d="M12.917 10.8546C14.474 10.8546 15.7362 9.57272 15.7362 7.99141C15.7362 6.41009 14.474 5.12817 12.917 5.12817C11.36 5.12817 10.0978 6.41009 10.0978 7.99141C10.0978 9.57272 11.36 10.8546 12.917 10.8546Z" stroke="#222222" stroke-linecap="round" stroke-linejoin="round"/>
<path d="M7.84241 18.8717H12.917H17.9915V18.2509C17.9826 17.3779 17.7559 16.5215 17.3327 15.7617C16.9095 15.0018 16.3035 14.3633 15.5715 13.9057C14.8394 13.4482 14.0051 13.1866 13.1465 13.1453C13.0699 13.1416 12.9934 13.1397 12.917 13.1395C12.8405 13.1397 12.764 13.1416 12.6875 13.1453C11.8289 13.1866 10.9946 13.4482 10.2625 13.9057C9.53044 14.3633 8.9245 15.0018 8.50128 15.7617C8.07807 16.5215 7.85138 17.3779 7.84241 18.2509V18.8717Z" stroke="#222222" stroke-linecap="round" stroke-linejoin="round"/>
<path d="M16.3016 10.7145C17.7177 10.7145 18.8657 9.5486 18.8657 8.11037C18.8657 6.67214 17.7177 5.50623 16.3016 5.50623" stroke="#222222" stroke-linecap="round" stroke-linejoin="round"/>
<path d="M19.8657 18.0062H20.917V17.4414C20.9088 16.6475 20.7026 15.8685 20.3177 15.1775C19.9328 14.4863 19.3817 13.9056 18.7159 13.4895C18.2855 13.2205 17.8162 13.0259 17.3272 12.9119" stroke="#222222" stroke-linecap="round" stroke-linejoin="round"/>
<path d="M9.53699 10.7103C8.11947 10.7103 6.97032 9.54324 6.97032 8.10358C6.97032 6.66391 8.11947 5.49683 9.53699 5.49683" stroke="#222222" stroke-linecap="round" stroke-linejoin="round"/>
<path d="M5.97031 18.0093H4.91698V17.444C4.92519 16.6492 5.13155 15.8695 5.51686 15.1778C5.90217 14.486 6.4538 13.9047 7.12031 13.4881C7.5511 13.2188 8.0209 13.0241 8.51031 12.9099" stroke="#222222" stroke-linecap="round" stroke-linejoin="round"/>
</svg>
