<svg width="25" height="24" viewBox="0 0 25 24" fill="none" xmlns="http://www.w3.org/2000/svg">
<path d="M10.4554 10.1538C12.1548 10.1538 13.5324 8.77626 13.5324 7.07692C13.5324 5.37759 12.1548 4 10.4554 4C8.75611 4 7.37852 5.37759 7.37852 7.07692C7.37852 8.77626 8.75611 10.1538 10.4554 10.1538Z" stroke="#222222" stroke-linecap="round" stroke-linejoin="round"/>
<path d="M13.3016 18.7693H4.91699V18.1021C4.92679 17.164 5.17419 16.2436 5.63609 15.4271C6.098 14.6105 6.75933 13.9244 7.55831 13.4327C8.3573 12.941 9.26787 12.6598 10.205 12.6155C11.1421 12.5711 12.0751 12.765 12.917 13.179" stroke="#222222" stroke-linecap="round" stroke-linejoin="round"/>
<path d="M17.917 13V19" stroke="#222222" stroke-linecap="round" stroke-linejoin="round"/>
<path d="M14.917 16H20.917" stroke="#222222" stroke-linecap="round" stroke-linejoin="round"/>
</svg>
