<svg width="25" height="24" viewBox="0 0 25 24" fill="none" xmlns="http://www.w3.org/2000/svg">
<path d="M12.917 13.2308C14.6163 13.2308 15.9939 11.8532 15.9939 10.1538C15.9939 8.45449 14.6163 7.0769 12.917 7.0769C11.2177 7.0769 9.84007 8.45449 9.84007 10.1538C9.84007 11.8532 11.2177 13.2308 12.917 13.2308Z" stroke="#222222" stroke-linecap="round" stroke-linejoin="round"/>
<path d="M7.66158 18.0308C8.2108 17.1293 8.9827 16.3842 9.90307 15.8672C10.8234 15.3502 11.8613 15.0786 12.917 15.0786C13.9726 15.0786 15.0105 15.3502 15.9309 15.8672C16.8513 16.3842 17.6231 17.1293 18.1724 18.0308" stroke="#222222" stroke-linecap="round" stroke-linejoin="round"/>
<path d="M12.917 20C17.3353 20 20.917 16.4183 20.917 12C20.917 7.58172 17.3353 4 12.917 4C8.49872 4 4.91699 7.58172 4.91699 12C4.91699 16.4183 8.49872 20 12.917 20Z" stroke="#222222" stroke-linecap="round" stroke-linejoin="round"/>
</svg>
