<svg width="25" height="24" viewBox="0 0 25 24" fill="none" xmlns="http://www.w3.org/2000/svg">
<path d="M18.417 5H8.91699C8.38656 5 7.87785 5.21071 7.50278 5.58579C7.12771 5.96086 6.91699 6.46957 6.91699 7V16.587C6.91699 17.2089 7.59537 17.593 8.12859 17.273L9.0054 16.747C9.25874 16.595 9.57524 16.595 9.82859 16.747L11.5054 17.753C11.7587 17.905 12.0752 17.905 12.3286 17.753L14.0054 16.747C14.2587 16.595 14.5752 16.595 14.8286 16.747L15.7054 17.273C16.2386 17.593 16.917 17.2089 16.917 16.587V6.5C16.917 6.10218 17.075 5.72064 17.3563 5.43934C17.6376 5.15804 18.0192 5 18.417 5ZM18.417 5C18.8148 5 19.1964 5.15804 19.4777 5.43934C19.759 5.72064 19.917 6.10218 19.917 6.5V9.2C19.917 9.64183 19.5588 10 19.117 10H16.917" stroke="#222222" stroke-linecap="round" stroke-linejoin="round"/>
</svg>
