<svg width="25" height="25" viewBox="0 0 25 25" fill="none" xmlns="http://www.w3.org/2000/svg">
<path d="M17.4883 5.77789H7.98828C7.45785 5.77789 6.94914 5.98861 6.57407 6.36368C6.199 6.73875 5.98828 7.24746 5.98828 7.77789V17.3649C5.98828 17.9868 6.66666 18.3709 7.19988 18.0509L8.07668 17.5249C8.33003 17.3728 8.64653 17.3728 8.89988 17.5249L10.5767 18.5309C10.83 18.6829 11.1465 18.6829 11.3999 18.5309L13.0767 17.5249C13.33 17.3728 13.6465 17.3728 13.8999 17.5249L14.7767 18.0509C15.3099 18.3709 15.9883 17.9868 15.9883 17.3649V7.27789C15.9883 6.88007 16.1463 6.49853 16.4276 6.21723C16.7089 5.93593 17.0905 5.77789 17.4883 5.77789ZM17.4883 5.77789C17.8861 5.77789 18.2677 5.93593 18.549 6.21723C18.8303 6.49853 18.9883 6.88007 18.9883 7.27789V9.97789C18.9883 10.4197 18.6301 10.7779 18.1883 10.7779H15.9883" stroke="#222222" stroke-linecap="round" stroke-linejoin="round"/>
</svg>
