<svg width="25" height="24" viewBox="0 0 25 24" fill="none" xmlns="http://www.w3.org/2000/svg">
    <path
        d="M17.917 5.5H8.41699C7.88656 5.5 7.37785 5.71071 7.00278 6.08579C6.62771 6.46086 6.41699 6.96957 6.41699 7.5V17.087C6.41699 17.7089 7.09537 18.093 7.62859 17.773L8.5054 17.247C8.75874 17.095 9.07524 17.095 9.32859 17.247L11.0054 18.253C11.2587 18.405 11.5752 18.405 11.8286 18.253L13.5054 17.247C13.7587 17.095 14.0752 17.095 14.3286 17.247L15.2054 17.773C15.7386 18.093 16.417 17.7089 16.417 17.087V7C16.417 6.60218 16.575 6.22064 16.8563 5.93934C17.1376 5.65804 17.5192 5.5 17.917 5.5ZM17.917 5.5C18.3148 5.5 18.6964 5.65804 18.9777 5.93934C19.259 6.22064 19.417 6.60218 19.417 7V9.7C19.417 10.1418 19.0588 10.5 18.617 10.5H16.417"
        stroke="#222222" stroke-linecap="round" stroke-linejoin="round" />
    <path
        d="M12.5687 10.6668C12.5248 10.5426 12.4571 10.4296 12.371 10.3335C12.1879 10.1289 11.9218 10.0001 11.6256 10.0001H10.8516C10.3586 10.0001 9.95892 10.3998 9.95892 10.8928C9.95892 11.3123 10.251 11.6752 10.6608 11.7648L11.8393 12.0226C12.2984 12.123 12.6257 12.5299 12.6257 12.9998C12.6257 13.5521 12.1779 14.0002 11.6256 14.0002H10.9589C10.5235 14.0002 10.1531 13.7219 10.0158 13.3335"
        stroke="#222222" stroke-width="0.6" stroke-linecap="round" stroke-linejoin="round" />
    <path d="M11.2924 10V9" stroke="#222222" stroke-width="0.6" stroke-linecap="round" stroke-linejoin="round" />
    <path d="M11.2924 15V14" stroke="#222222" stroke-width="0.6" stroke-linecap="round" stroke-linejoin="round" />
</svg>