<svg width="25" height="24" viewBox="0 0 25 24" fill="none" xmlns="http://www.w3.org/2000/svg">
<path d="M16.423 8.50688C16.367 8.3484 16.2806 8.20428 16.1707 8.08156C15.9371 7.82052 15.5976 7.65625 15.2197 7.65625H14.2321C13.6031 7.65625 13.0931 8.16618 13.0931 8.79519C13.0931 9.33043 13.4658 9.79345 13.9887 9.90782L15.4924 10.2368C16.0781 10.3649 16.4956 10.884 16.4956 11.4836C16.4956 12.1883 15.9244 12.76 15.2197 12.76H14.3691C13.8135 12.76 13.3409 12.4049 13.1657 11.9094" stroke="#222222" stroke-linecap="round" stroke-linejoin="round"/>
<path d="M14.7944 7.65632V6.38037" stroke="#222222" stroke-linecap="round" stroke-linejoin="round"/>
<path d="M14.7944 14.0359V12.76" stroke="#222222" stroke-linecap="round" stroke-linejoin="round"/>
<path d="M14.7945 16.3304C18.1758 16.3304 20.917 13.5893 20.917 10.2079C20.917 6.82658 18.1758 4.08545 14.7945 4.08545C11.4131 4.08545 8.672 6.82658 8.672 10.2079C8.672 13.5893 11.4131 16.3304 14.7945 16.3304Z" stroke="#222222" stroke-linecap="round" stroke-linejoin="round"/>
<path d="M5.65391 10.8787C5.18391 11.7452 4.91699 12.738 4.91699 13.7931C4.91699 17.1743 7.65792 19.9152 11.039 19.9152C11.9972 19.9152 12.904 19.695 13.7116 19.3026" stroke="#222222" stroke-linecap="round" stroke-linejoin="round"/>
</svg>
