<svg width="25" height="24" viewBox="0 0 25 24" fill="none" xmlns="http://www.w3.org/2000/svg">
<path d="M17.395 5.26965H8.43898C8.23251 5.27533 8.03027 5.32953 7.84861 5.42788C7.66694 5.52623 7.51098 5.66597 7.3933 5.83581L5.1543 8.93734C4.98805 9.17238 4.90502 9.45624 4.91839 9.74387C4.93176 10.0315 5.04077 10.3064 5.22811 10.525L11.9451 18.2665C12.0601 18.4148 12.2075 18.5348 12.3759 18.6173C12.5443 18.6999 12.7294 18.7427 12.917 18.7427C13.1045 18.7427 13.2896 18.6999 13.4581 18.6173C13.6265 18.5348 13.7739 18.4148 13.8889 18.2665L20.6058 10.525C20.7931 10.3064 20.9022 10.0315 20.9156 9.74387C20.9289 9.45624 20.8459 9.17238 20.6797 8.93734L18.4407 5.83581C18.323 5.66597 18.1671 5.52623 17.9854 5.42788C17.8037 5.32953 17.6014 5.27533 17.395 5.26965Z" stroke="#222222" stroke-linecap="round" stroke-linejoin="round"/>
<path d="M12.2771 5.25732L9.27399 9.90962L12.9171 18.7096" stroke="#222222" stroke-linecap="round" stroke-linejoin="round"/>
<path d="M13.5939 5.25732L16.5847 9.90962L12.917 18.7096" stroke="#222222" stroke-linecap="round" stroke-linejoin="round"/>
<path d="M4.94165 9.90967H20.8924" stroke="#222222" stroke-linecap="round" stroke-linejoin="round"/>
</svg>
