<svg width="25" height="24" viewBox="0 0 25 24" fill="none" xmlns="http://www.w3.org/2000/svg">
<path d="M19.3316 15.3849V17.8464C19.3316 18.1728 19.2019 18.4859 18.9711 18.7167C18.7403 18.9475 18.4272 19.0772 18.1008 19.0772H6.4085C6.08208 19.0772 5.76903 18.9475 5.53822 18.7167C5.3074 18.4859 5.17773 18.1728 5.17773 17.8464V8.61565C5.17773 6.57645 6.83084 4.92334 8.87004 4.92334H16.87V8.00026" stroke="#222222" stroke-linecap="round" stroke-linejoin="round"/>
<path d="M20.5624 11.6926H16.2547C15.9148 11.6926 15.6393 11.9681 15.6393 12.308V14.7696C15.6393 15.1094 15.9148 15.3849 16.2547 15.3849H20.5624C20.9022 15.3849 21.1777 15.1094 21.1777 14.7696V12.308C21.1777 11.9681 20.9022 11.6926 20.5624 11.6926Z" stroke="#222222" stroke-linecap="round" stroke-linejoin="round"/>
<path d="M19.3316 11.6926V9.23101C19.3316 8.90459 19.2018 8.59154 18.9711 8.36072C18.7403 8.12992 18.4272 8.00024 18.1008 8.00024H16.87H5.53442" stroke="#222222" stroke-linecap="round" stroke-linejoin="round"/>
</svg>
