<?xml version="1.0" encoding="UTF-8" standalone="yes"?>
<svg width="25" height="25" viewBox="0 0 25 25" fill="none" xmlns="http://www.w3.org/2000/svg">
  <path opacity="0.4" d="M20.917 3.99976V19.9998" stroke="#222222" stroke-linecap="round" stroke-linejoin="round"/>
  <path d="M4.94161 17.735C4.94101 17.9564 5.00014 18.1739 5.11277 18.3645C5.22541 18.5552 5.38738 18.7119 5.58161 18.8181C5.76871 18.9261 5.98095 18.983 6.19699 18.983C6.41304 18.983 6.62527 18.9261 6.81238 18.8181L15.6616 13.0335C15.8343 12.9219 15.9764 12.7689 16.0747 12.5883C16.1731 12.4077 16.2246 12.2053 16.2246 11.9997C16.2246 11.794 16.1731 11.5917 16.0747 11.4111C15.9764 11.2305 15.8343 11.0774 15.6616 10.9658L6.78776 5.23044C6.60066 5.12241 6.38843 5.06555 6.17238 5.06555C5.95634 5.06555 5.74409 5.12241 5.55699 5.23044C5.36276 5.33671 5.20079 5.49342 5.08816 5.68403C4.97552 5.87465 4.91639 6.09211 4.917 6.31351L4.94161 17.735Z" stroke="#222222" stroke-linecap="round" stroke-linejoin="round"/>
</svg>