<?xml version="1.0" encoding="UTF-8" standalone="yes"?>
<svg width="25" height="25" viewBox="0 0 25 25" fill="none" xmlns="http://www.w3.org/2000/svg">
  <path d="M7.77412 19.337C9.03648 19.337 10.0598 18.3137 10.0598 17.0513C10.0598 15.789 9.03648 14.7656 7.77412 14.7656C6.51175 14.7656 5.4884 15.789 5.4884 17.0513C5.4884 18.3137 6.51175 19.337 7.77412 19.337Z" stroke="#222222" stroke-linecap="round" stroke-linejoin="round"/>
  <path d="M18.0598 16.4799C19.3222 16.4799 20.3455 15.4566 20.3455 14.1942C20.3455 12.9319 19.3222 11.9085 18.0598 11.9085C16.7974 11.9085 15.7741 12.9319 15.7741 14.1942C15.7741 15.4566 16.7974 16.4799 18.0598 16.4799Z" stroke="#222222" stroke-linecap="round" stroke-linejoin="round"/>
  <path opacity="0.4" d="M20.3455 14.1942V5.23424C20.3451 5.1468 20.3245 5.06064 20.2854 4.9824C20.2464 4.90415 20.19 4.8359 20.1204 4.78291C20.0509 4.72992 19.9701 4.6936 19.8843 4.67674C19.7984 4.65988 19.71 4.66293 19.6255 4.68567L10.4827 7.22281C10.3618 7.25535 10.255 7.32663 10.1787 7.42573C10.1023 7.52483 10.0605 7.64626 10.0598 7.77138V17.0514" stroke="#222222" stroke-linecap="round" stroke-linejoin="round"/>
  <path opacity="0.4" d="M10.0598 10.7657L20.3455 7.90851" stroke="#222222" stroke-linecap="round" stroke-linejoin="round"/>
</svg>