<?xml version="1.0" encoding="UTF-8" standalone="yes"?>
<svg width="25" height="25" viewBox="0 0 25 25" fill="none" xmlns="http://www.w3.org/2000/svg">
  <path d="M9.57084 20.0491H6.51699C6.09265 20.0491 5.68568 19.8805 5.38562 19.5804C5.08556 19.2803 4.91699 18.8734 4.91699 18.4491V5.64907C4.91699 5.22473 5.08556 4.81776 5.38562 4.5177C5.68568 4.21764 6.09265 4.04907 6.51699 4.04907H19.317C19.7414 4.04907 20.1483 4.21764 20.4483 4.5177C20.7484 4.81776 20.917 5.22473 20.917 5.64907V9.27984" stroke="#222222" stroke-linecap="round" stroke-linejoin="round"/>
  <path d="M15.3953 9.3351C16.245 9.3351 16.9338 8.64631 16.9338 7.79664C16.9338 6.94698 16.245 6.25818 15.3953 6.25818C14.5457 6.25818 13.8569 6.94698 13.8569 7.79664C13.8569 8.64631 14.5457 9.3351 15.3953 9.3351Z" stroke="#222222" stroke-linecap="round" stroke-linejoin="round"/>
  <path d="M4.91699 15.4556L8.46229 11.9103C8.51915 11.8629 8.5908 11.837 8.6648 11.837C8.7388 11.837 8.81045 11.8629 8.86731 11.9103L12.9686 13.4226" stroke="#222222" stroke-width="0.8" stroke-linecap="round" stroke-linejoin="round"/>
  <path opacity="0.4" d="M16.917 13.7277L16.917 18.1317" stroke="#222222" stroke-width="0.8" stroke-linecap="round" stroke-linejoin="round"/>
  <path opacity="0.4" d="M19.4339 16.2277L16.917 19.0491L14.4339 16.2277" stroke="#222222" stroke-width="0.8" stroke-linecap="round" stroke-linejoin="round"/>
</svg>