<?xml version="1.0" encoding="UTF-8" standalone="yes"?>
<svg width="25" height="25" viewBox="0 0 25 25" fill="none" xmlns="http://www.w3.org/2000/svg">
  <path d="M6.14776 20H19.6862C20.366 20 20.917 19.449 20.917 18.7692V5.23077C20.917 4.55103 20.366 4 19.6862 4H6.14776C5.46803 4 4.91699 4.55103 4.91699 5.23077V18.7692C4.91699 19.449 5.46803 20 6.14776 20Z" stroke="#222222" stroke-linecap="round" stroke-linejoin="round"/>
  <path opacity="0.4" d="M6.45544 20L15.4401 11.5322C15.5506 11.4401 15.69 11.3897 15.8339 11.3897C15.9778 11.3897 16.1172 11.4401 16.2277 11.5322L20.917 14.8922" stroke="#222222" stroke-width="0.8" stroke-linecap="round" stroke-linejoin="round"/>
  <path opacity="0.4" d="M5.11108 16.9248L8.65638 13.3795C8.71324 13.3321 8.78489 13.3062 8.85889 13.3062C8.93289 13.3062 9.00454 13.3321 9.0614 13.3795L11.4726 15.1072" stroke="#222222" stroke-linecap="round" stroke-linejoin="round"/>
  <path opacity="0.4" d="M9.84005 10.7692C10.8597 10.7692 11.6862 9.94266 11.6862 8.92306C11.6862 7.90345 10.8597 7.0769 9.84005 7.0769C8.82044 7.0769 7.9939 7.90345 7.9939 8.92306C7.9939 9.94266 8.82044 10.7692 9.84005 10.7692Z" stroke="#222222" stroke-linecap="round" stroke-linejoin="round"/>
</svg>