<?xml version="1.0" encoding="UTF-8" standalone="yes"?>
<svg width="25" height="25" viewBox="0 0 25 25" fill="none" xmlns="http://www.w3.org/2000/svg">
  <path d="M17.4435 9.58798H20.917V6.17889" stroke="#222222" stroke-linecap="round" stroke-linejoin="round"/>
  <path d="M17.9645 17.3011C16.896 18.3506 15.5344 19.0656 14.0519 19.3554C12.5693 19.6453 11.0325 19.4972 9.63581 18.9297C8.2391 18.3622 7.04525 17.4009 6.20529 16.1674C5.36533 14.9339 4.91699 13.4836 4.91699 12C4.91699 10.5164 5.36533 9.06609 6.20529 7.83259C7.04525 6.59909 8.2391 5.6378 9.63581 5.07032C11.0325 4.50284 12.5693 4.35468 14.0519 4.64456C15.5344 4.93445 16.896 5.64936 17.9645 6.69887L20.917 9.58807" stroke="#222222" stroke-linecap="round" stroke-linejoin="round"/>
  <path opacity="0.4" d="M11.08 9.27946C11.2055 9.27946 11.3441 9.41813 11.3441 9.54359V14.694C11.3441 14.8195 11.2055 14.9582 11.08 14.9582C10.9545 14.9582 10.8159 14.8195 10.8159 14.694V11.1482C10.598 11.3132 10.3338 11.4123 10.0565 11.4123H9.93106C9.8056 11.4123 9.66693 11.2736 9.66693 11.1482C9.66693 11.0227 9.8056 10.884 9.93106 10.884H10.0565C10.4791 10.884 10.8159 10.5473 10.8159 10.1247V9.54359C10.8159 9.41813 10.9545 9.27946 11.08 9.27946Z" fill="#222222"/>
  <path opacity="0.4" d="M14.4501 9.04175C14.8991 9.04175 15.3547 9.23324 15.6651 9.57C15.9886 9.90676 16.1669 10.3756 16.1669 10.8444V13.1489C16.1669 13.6243 15.9886 14.0866 15.6717 14.4233C15.3547 14.7601 14.8991 14.9582 14.4501 14.9582C13.9945 14.9582 13.5455 14.7601 13.2219 14.4233C12.9116 14.0866 12.7267 13.6243 12.7267 13.1489V10.8444C12.7267 10.3756 12.9116 9.90676 13.2285 9.57C13.5455 9.23324 13.9945 9.04175 14.4501 9.04175ZM14.4501 9.57C13.7898 9.57 13.2549 10.1379 13.2549 10.8444V13.1489C13.2549 13.862 13.7898 14.4299 14.4501 14.4299C15.1038 14.4299 15.6387 13.862 15.6387 13.1489V10.8444C15.6387 10.1379 15.1038 9.57 14.4501 9.57Z" fill="#222222"/>
</svg>