<svg width="25" height="25" viewBox="0 0 25 25" fill="none" xmlns="http://www.w3.org/2000/svg">
<path opacity="0.4" d="M16.1708 7.81775C15.94 7.58695 15.9785 6.81775 14.94 6.7793C13.9016 6.74084 5.70928 6.7793 5.70928 6.7793C5.38286 6.7793 5.06981 6.90897 4.839 7.13978C4.60819 7.3706 4.47852 7.68364 4.47852 8.01007V16.6254C4.47852 16.9518 4.60819 17.2649 4.839 17.4957C5.05217 17.6159 5.67852 17.8562 6.47852 17.8562" stroke="#222222" stroke-linecap="round" stroke-linejoin="round"/>
<path d="M16.9785 9.81775L19.6416 8.31776C19.7351 8.28165 19.8362 8.26896 19.9357 8.28078C20.0353 8.29262 20.1306 8.32861 20.213 8.38565C20.2955 8.44267 20.3628 8.519 20.4091 8.60798C20.4554 8.69697 20.4792 8.79592 20.4785 8.89622V15.7393C20.4792 15.8396 20.4554 15.9385 20.4091 16.0275C20.3628 16.1165 20.2955 16.1928 20.213 16.2498C20.1306 16.3069 20.0353 16.3429 19.9357 16.3547C19.8362 16.3666 19.7351 16.3538 19.6416 16.3177L16.1708 14.7793V16.6254C16.1708 16.9518 16.0411 17.2649 15.8103 17.4957C15.5795 17.7265 15.2665 17.8562 14.94 17.8562H9.97852" stroke="#222222" stroke-linecap="round" stroke-linejoin="round"/>
<path d="M20.4785 4.31787L4.47852 20.3179" stroke="#222222" stroke-linecap="round" stroke-linejoin="round"/>
</svg>
