<?xml version="1.0" encoding="UTF-8" standalone="yes"?>
<svg width="25" height="25" viewBox="0 0 25 25" fill="none" xmlns="http://www.w3.org/2000/svg">
  <path d="M20.0801 8.00001L16.6093 9.53847V7.69232C16.6093 7.36589 16.4796 7.05285 16.2488 6.82203C16.018 6.59122 15.7049 6.46155 15.3785 6.46155H6.14776C5.82134 6.46155 5.50829 6.59122 5.27748 6.82203C5.04666 7.05285 4.91699 7.36589 4.91699 7.69232V16.3077C4.91699 16.6341 5.04666 16.9472 5.27748 17.178C5.50829 17.4087 5.82134 17.5385 6.14776 17.5385H15.3785C15.7049 17.5385 16.018 17.4087 16.2488 17.178C16.4796 16.9472 16.6093 16.6341 16.6093 16.3077V14.4615L20.0801 16C20.1736 16.0361 20.2746 16.0489 20.3742 16.0369C20.4738 16.0251 20.569 15.9892 20.6515 15.9321C20.734 15.8751 20.8013 15.7988 20.8476 15.7098C20.8938 15.6208 20.9177 15.5218 20.917 15.4215V8.57847C20.9177 8.47817 20.8938 8.37922 20.8476 8.29024C20.8013 8.20125 20.734 8.12492 20.6515 8.0679C20.569 8.01086 20.4738 7.97488 20.3742 7.96304C20.2746 7.95121 20.1736 7.9639 20.0801 8.00001Z" stroke="#222222" stroke-linecap="round" stroke-linejoin="round"/>
</svg>