<svg width="25" height="24" viewBox="0 0 25 24" fill="none" xmlns="http://www.w3.org/2000/svg">
<path opacity="0.4" d="M16.3947 7.49988C16.1639 7.26908 16.2024 6.49988 15.1639 6.46143C14.1254 6.42297 5.93316 6.46143 5.93316 6.46143C5.60674 6.46143 5.29369 6.5911 5.06288 6.82191C4.83206 7.05273 4.70239 7.36577 4.70239 7.6922V16.3076C4.70239 16.634 4.83206 16.9471 5.06288 17.1778C5.27605 17.298 5.90239 17.5383 6.70239 17.5383" stroke="#222222" stroke-linecap="round" stroke-linejoin="round"/>
<path d="M17.2024 9.49988L19.8655 7.99989C19.959 7.96377 20.06 7.95109 20.1596 7.96291C20.2592 7.97475 20.3544 8.01074 20.4369 8.06777C20.5194 8.1248 20.5867 8.20113 20.633 8.29011C20.6792 8.3791 20.7031 8.47805 20.7024 8.57835V15.4214C20.7031 15.5217 20.6792 15.6207 20.633 15.7097C20.5867 15.7986 20.5194 15.875 20.4369 15.9319C20.3544 15.989 20.2592 16.025 20.1596 16.0368C20.06 16.0487 19.959 16.0359 19.8655 15.9999L16.3947 14.4614V16.3076C16.3947 16.634 16.265 16.9471 16.0342 17.1778C15.8034 17.4086 15.4903 17.5383 15.1639 17.5383H10.2024" stroke="#222222" stroke-linecap="round" stroke-linejoin="round"/>
<path d="M20.7024 4L4.70239 20" stroke="#222222" stroke-linecap="round" stroke-linejoin="round"/>
</svg>
