<?xml version="1.0" encoding="UTF-8" standalone="yes"?>
<svg width="25" height="25" viewBox="0 0 25 25" fill="none" xmlns="http://www.w3.org/2000/svg">
  <path opacity="0.4" d="M18.7519 6.16517C18.8656 6.05142 18.9162 5.88272 18.8448 5.73858C18.5037 5.05041 17.1366 4.55608 16.4507 5.07703L12.1438 8.34834C12.1022 8.37992 12.0531 8.4001 12.0013 8.40689L8.39979 8.87905C8.11454 8.88824 7.84084 9.00288 7.63511 9.20378C7.42006 9.4138 7.297 9.7012 7.297 10.0034L7.55773 14.8293C7.55773 15.1316 7.68079 15.419 7.89584 15.629C8.10334 15.8316 8.37998 15.9465 8.66789 15.9539L9.01125 15.99C9.16125 16.0057 9.31035 15.9529 9.417 15.8463C9.71445 15.5488 9.53401 15.0394 9.11564 14.9955L8.74993 14.9571C8.73259 14.9552 8.71516 14.9543 8.69773 14.9543C8.65682 14.9543 8.61991 14.9383 8.59452 14.9136C8.56953 14.8891 8.55773 14.8586 8.55773 14.8293L8.297 10.0034C8.297 9.97417 8.30879 9.94363 8.33379 9.91923C8.35918 9.89443 8.39609 9.87845 8.437 9.87845C8.45873 9.87845 8.48044 9.87703 8.50199 9.87421L12.1313 9.39841C12.3557 9.36899 12.5684 9.28153 12.7486 9.14467L17.0555 5.87337C17.2531 5.72333 17.978 6.07012 17.978 6.31818C17.978 6.5473 18.255 6.66204 18.417 6.50003L18.7519 6.16517Z" fill="#222222"/>
  <path d="M11.317 14.973C11.4236 14.8664 11.5727 14.8136 11.7227 14.8293L12.4149 14.902C12.6513 14.9268 12.8763 15.0159 13.0655 15.1597L17.0555 18.1267C17.2531 18.2767 17.537 18.1358 17.537 17.8878V9.14467C17.537 9.01206 17.5897 8.88489 17.6834 8.79112C17.9984 8.47614 18.537 8.69922 18.537 9.14467V17.8878C18.537 18.9627 17.3067 19.5732 16.4507 18.923L12.4607 15.956C12.417 15.9228 12.3651 15.9023 12.3105 15.8965L11.6183 15.8239C11.1999 15.7799 11.0195 15.2705 11.317 14.973Z" fill="#222222"/>
  <path d="M20.917 4L4.91699 20" stroke="#222222" stroke-linecap="round"/>
</svg>