<?xml version="1.0" encoding="UTF-8" standalone="yes"?>
<svg width="25" height="25" viewBox="0 0 25 25" fill="none" xmlns="http://www.w3.org/2000/svg">
  <path d="M12.575 14.7602C12.4586 14.6718 12.3201 14.6169 12.1747 14.6017L8.55699 14.2219C8.38725 14.2219 8.22447 14.1561 8.10444 14.0389C7.98442 13.9216 7.91699 13.7627 7.91699 13.5969L7.91699 9.50342C7.91699 9.33766 7.98442 9.17869 8.10444 9.06148C8.22447 8.94427 8.38725 8.87842 8.55699 8.87842L12.1863 8.40262C12.3244 8.38452 12.4553 8.3307 12.5662 8.24648L16.8731 4.97517C17.3999 4.57507 18.157 4.95076 18.157 5.61224V17.3878C18.157 18.0492 17.3999 18.4249 16.8731 18.0248L12.575 14.7602Z" stroke="#222222" stroke-linecap="round" stroke-linejoin="round"/>
</svg>