<svg width="25" height="24" viewBox="0 0 25 24" fill="none" xmlns="http://www.w3.org/2000/svg">
<path d="M12.7173 19.5C17.1356 19.5 20.7173 15.9183 20.7173 11.5C20.7173 7.08172 17.1356 3.5 12.7173 3.5C8.29901 3.5 4.71729 7.08172 4.71729 11.5C4.71729 15.9183 8.29901 19.5 12.7173 19.5Z" stroke="#222222" stroke-miterlimit="10"/>
<path d="M5.17563 8.83334H20.259" stroke="#222222" stroke-linecap="round" stroke-linejoin="round"/>
<path d="M5.17563 14.1667H20.259" stroke="#222222" stroke-linecap="round" stroke-linejoin="round"/>
<path d="M12.7173 19.2833C14.5582 19.2833 16.0506 15.7986 16.0506 11.5C16.0506 7.20136 14.5582 3.71664 12.7173 3.71664C10.8763 3.71664 9.38394 7.20136 9.38394 11.5C9.38394 15.7986 10.8763 19.2833 12.7173 19.2833Z" stroke="#222222" stroke-miterlimit="10"/>
</svg>
