<svg width="25" height="24" viewBox="0 0 25 24" fill="none" xmlns="http://www.w3.org/2000/svg">
<path d="M18.6312 15.7143L20.917 18L18.6312 20.2857" stroke="#222222" stroke-linecap="round" stroke-linejoin="round"/>
<path d="M5.91699 8C7.02156 8 7.91699 7.10457 7.91699 6C7.91699 4.89543 7.02156 4 5.91699 4C4.81242 4 3.91699 4.89543 3.91699 6C3.91699 7.10457 4.81242 8 5.91699 8Z" stroke="#222222" stroke-linecap="round" stroke-linejoin="round"/>
<path d="M8.25033 6H16.2503C16.9576 6 17.6358 6.28095 18.1359 6.78105C18.636 7.28115 18.917 7.95942 18.917 8.66667C18.917 9.37391 18.636 10.0522 18.1359 10.5523C17.6358 11.0524 16.9576 11.3333 16.2503 11.3333H8.25033C7.36627 11.3333 6.51842 11.6845 5.8933 12.3096C5.26818 12.9348 4.91699 13.7826 4.91699 14.6667C4.91699 15.5507 5.26818 16.3986 5.8933 17.0237C6.51842 17.6488 7.36627 18 8.25033 18H19.917" stroke="#222222" stroke-linecap="round" stroke-linejoin="round"/>
</svg>
