<svg width="25" height="24" viewBox="0 0 25 24" fill="none" xmlns="http://www.w3.org/2000/svg">
<path d="M7.16461 10.075H3.69109V6.66595" stroke="#222222" stroke-linecap="round" stroke-linejoin="round"/>
<path d="M6.64361 17.7882C7.71208 18.8377 9.0737 19.5526 10.5562 19.8425C12.0387 20.1324 13.5756 19.9842 14.9723 19.4167C16.369 18.8493 17.5628 17.888 18.4028 16.6545C19.2428 15.421 19.6911 13.9707 19.6911 12.4871C19.6911 11.0034 19.2428 9.55315 18.4028 8.31965C17.5628 7.08615 16.369 6.12486 14.9723 5.55738C13.5756 4.9899 12.0387 4.84174 10.5562 5.13162C9.0737 5.42151 7.71208 6.13642 6.64361 7.18593L3.69112 10.0751" stroke="#222222" stroke-linecap="round" stroke-linejoin="round"/>
<path d="M10.1965 9.46782C10.3219 9.46782 10.4606 9.60648 10.4606 9.73194V14.8824C10.4606 15.0079 10.3219 15.1465 10.1965 15.1465C10.071 15.1465 9.93233 15.0079 9.93233 14.8824V11.3365C9.71443 11.5016 9.4503 11.6006 9.17297 11.6006H9.04751C8.92205 11.6006 8.78339 11.462 8.78339 11.3365C8.78339 11.211 8.92205 11.0724 9.04751 11.0724H9.17297C9.59557 11.0724 9.93233 10.7356 9.93233 10.313V9.73194C9.93233 9.60648 10.071 9.46782 10.1965 9.46782Z" fill="#222222"/>
<path d="M13.5666 9.2301C14.0156 9.2301 14.4712 9.42159 14.7815 9.75835C15.1051 10.0951 15.2834 10.5639 15.2834 11.0328V13.3373C15.2834 13.8127 15.1051 14.2749 14.7882 14.6117C14.4712 14.9484 14.0156 15.1465 13.5666 15.1465C13.111 15.1465 12.6619 14.9484 12.3384 14.6117C12.028 14.2749 11.8431 13.8127 11.8431 13.3373V11.0328C11.8431 10.5639 12.028 10.0951 12.345 9.75835C12.6619 9.42159 13.111 9.2301 13.5666 9.2301ZM13.5666 9.75835C12.9063 9.75835 12.3714 10.3262 12.3714 11.0328V13.3373C12.3714 14.0504 12.9063 14.6183 13.5666 14.6183C14.2203 14.6183 14.7551 14.0504 14.7551 13.3373V11.0328C14.7551 10.3262 14.2203 9.75835 13.5666 9.75835Z" fill="#222222"/>
</svg>
