<svg width="25" height="24" viewBox="0 0 25 24" fill="none" xmlns="http://www.w3.org/2000/svg">
<path d="M20.917 9.6C20.917 9.28174 20.7873 8.97652 20.5565 8.75147C20.3257 8.52643 20.0126 8.4 19.6862 8.4H17.7171C17.4066 8.4 17.1138 8.2558 16.9245 8.00971L15.6788 6.39029C15.4895 6.1442 15.1966 6 14.8861 6H10.9479C10.6374 6 10.3445 6.1442 10.1552 6.39029L8.90952 8.00971C8.72023 8.2558 8.42737 8.4 8.1169 8.4H6.14776C5.82134 8.4 5.50829 8.52643 5.27748 8.75147C5.04666 8.97652 4.91699 9.28174 4.91699 9.6V16.8C4.91699 17.1182 5.04666 17.4235 5.27748 17.6485C5.50829 17.8735 5.82134 18 6.14776 18H19.6862C20.0126 18 20.3257 17.8735 20.5565 17.6485C20.7873 17.4235 20.917 17.1182 20.917 16.8V9.6Z" stroke="#222222" stroke-linecap="round" stroke-linejoin="round"/>
<path d="M12.917 15.3C14.4464 15.3 15.6862 14.0912 15.6862 12.6C15.6862 11.1089 14.4464 9.90002 12.917 9.90002C11.3876 9.90002 10.1478 11.1089 10.1478 12.6C10.1478 14.0912 11.3876 15.3 12.917 15.3Z" stroke="#222222" stroke-linecap="round" stroke-linejoin="round"/>
</svg>
