<svg width="25" height="24" viewBox="0 0 25 24" fill="none" xmlns="http://www.w3.org/2000/svg">
<path d="M19.6862 8.30768C20.0126 8.30768 20.3257 8.43735 20.5565 8.66816C20.7873 8.89898 20.917 9.21202 20.917 9.53845V16.9231C20.917 17.2495 20.7873 17.5626 20.5565 17.7933C20.3257 18.0241 20.0126 18.1538 19.6862 18.1538H9.57084" stroke="#222222" stroke-linecap="round" stroke-linejoin="round"/>
<path d="M14.5433 10.3737C14.0866 10.0419 13.5247 9.84613 12.917 9.84613C11.3876 9.84613 10.1478 11.086 10.1478 12.6154C10.1478 13.223 10.3435 13.785 10.6754 14.2416" stroke="#222222" stroke-linecap="round" stroke-linejoin="round"/>
<path d="M16.9609 7.95603L15.6785 6.24613C15.4897 5.99432 15.1933 5.84613 14.8785 5.84613H10.9554C10.6407 5.84613 10.3443 5.99433 10.1554 6.24613L8.90929 7.90767C8.72044 8.15947 8.42405 8.30767 8.10929 8.30767H6.14776C5.82136 8.30767 5.50825 8.43734 5.27748 8.66815C5.04659 8.89897 4.91699 9.21201 4.91699 9.53844V16.9231C4.91699 17.2495 5.04659 17.5626 5.27748 17.7933C5.50825 18.0241 5.82136 18.1538 6.14776 18.1538H6.76314" stroke="#222222" stroke-linecap="round" stroke-linejoin="round"/>
<path d="M15.652 12.1785C15.6745 12.3208 15.6862 12.4667 15.6862 12.6153C15.6862 14.1447 14.4464 15.3846 12.917 15.3846C12.7683 15.3846 12.6224 15.3729 12.4801 15.3503" stroke="#222222" stroke-linecap="round" stroke-linejoin="round"/>
<path d="M4.91699 20L20.917 4" stroke="#222222" stroke-linecap="round" stroke-linejoin="round"/>
</svg>
