<svg width="25" height="24" viewBox="0 0 25 24" fill="none" xmlns="http://www.w3.org/2000/svg">
<path d="M4.91699 20L20.917 4" stroke="#222222" stroke-linecap="round" stroke-linejoin="round"/>
<path d="M11.0709 13.8462C10.688 13.5602 10.3773 13.1887 10.1636 12.7613C9.94995 12.3339 9.83915 11.8625 9.84011 11.3846V7.07692C9.84011 6.26087 10.1643 5.47824 10.7413 4.90121C11.3184 4.32417 12.101 4 12.917 4C13.7331 4 14.5157 4.32417 15.0927 4.90121C15.6698 5.47824 15.994 6.26087 15.994 7.07692V8.92308" stroke="#222222" stroke-linecap="round" stroke-linejoin="round"/>
<path d="M15.7108 12.6647C15.3965 13.3521 14.84 13.8997 14.1477 14.2031" stroke="#222222" stroke-linecap="round" stroke-linejoin="round"/>
<path d="M8.70776 16.2092C8.09619 15.692 7.60512 15.0472 7.26924 14.32C6.93324 13.5929 6.76056 12.801 6.76315 12" stroke="#222222" stroke-linecap="round" stroke-linejoin="round"/>
<path d="M19.0708 12C19.0725 12.7278 18.9303 13.4487 18.6526 14.1214C18.3748 14.7941 17.9669 15.4053 17.4523 15.9199C16.9377 16.4345 16.3265 16.8425 15.6538 17.1201C14.9811 17.3979 14.2602 17.5401 13.5324 17.5385H12.3016C12.072 17.5508 11.842 17.5508 11.6124 17.5385" stroke="#222222" stroke-linecap="round" stroke-linejoin="round"/>
<path d="M12.917 17.5385V20" stroke="#222222" stroke-linecap="round" stroke-linejoin="round"/>
</svg>
