<svg width="25" height="24" viewBox="0 0 25 24" fill="none" xmlns="http://www.w3.org/2000/svg">
<path d="M16.4585 11.3846C16.4585 12.2007 16.1343 12.9833 15.5573 13.5603C14.9802 14.1374 14.1976 14.4615 13.3815 14.4615C12.5655 14.4615 11.7829 14.1374 11.2058 13.5603C10.6288 12.9833 10.3046 12.2007 10.3046 11.3846V7.07692C10.3046 6.26087 10.6288 5.47824 11.2058 4.90121C11.7829 4.32417 12.5655 4 13.3815 4C14.1976 4 14.9802 4.32417 15.5573 4.90121C16.1343 5.47824 16.4585 6.26087 16.4585 7.07692V11.3846Z" stroke="#222222" stroke-linecap="round" stroke-linejoin="round"/>
<path d="M19.5354 12C19.537 12.7278 19.3949 13.4487 19.1172 14.1214C18.8394 14.7941 18.4315 15.4053 17.9168 15.9199C17.4022 16.4345 16.7911 16.8425 16.1184 17.1201C15.4457 17.3979 14.7247 17.5401 13.997 17.5385H12.7662C12.0384 17.5401 11.3175 17.3979 10.6448 17.1201C9.97212 16.8425 9.36092 16.4345 8.8463 15.9199C8.33167 15.4053 7.92379 14.7941 7.64603 14.1214C7.36827 13.4487 7.22611 12.7278 7.22774 12" stroke="#222222" stroke-linecap="round" stroke-linejoin="round"/>
<path d="M13.3816 17.5385V20" stroke="#222222" stroke-linecap="round" stroke-linejoin="round"/>
</svg>
