<svg width="25" height="24" viewBox="0 0 25 24" fill="none" xmlns="http://www.w3.org/2000/svg">
<path d="M9.57511 4H6.79733C6.18368 4 5.68622 4.55103 5.68622 5.23077V18.7692C5.68622 19.449 6.18368 20 6.79733 20H9.57511C10.1888 20 10.6862 19.449 10.6862 18.7692V5.23077C10.6862 4.55103 10.1888 4 9.57511 4Z" stroke="#222222" stroke-linecap="round" stroke-linejoin="round"/>
<path d="M19.0367 4H16.2589C15.6452 4 15.1478 4.55103 15.1478 5.23077V18.7692C15.1478 19.449 15.6452 20 16.2589 20H19.0367C19.6503 20 20.1478 19.449 20.1478 18.7692V5.23077C20.1478 4.55103 19.6503 4 19.0367 4Z" stroke="#222222" stroke-linecap="round" stroke-linejoin="round"/>
</svg>
