<svg width="25" height="24" viewBox="0 0 25 24" fill="none" xmlns="http://www.w3.org/2000/svg">
<path d="M9.57084 20H6.51699C6.09265 20 5.68568 19.8314 5.38562 19.5313C5.08556 19.2313 4.91699 18.8244 4.91699 18.4V5.6C4.91699 5.17566 5.08556 4.76869 5.38562 4.46863C5.68568 4.16857 6.09265 4 6.51699 4H19.317C19.7414 4 20.1483 4.16857 20.4483 4.46863C20.7484 4.76869 20.917 5.17566 20.917 5.6V9.23077" stroke="#222222" stroke-linecap="round" stroke-linejoin="round"/>
<path d="M15.3953 9.28603C16.245 9.28603 16.9338 8.59724 16.9338 7.74757C16.9338 6.89791 16.245 6.20911 15.3953 6.20911C14.5457 6.20911 13.8569 6.89791 13.8569 7.74757C13.8569 8.59724 14.5457 9.28603 15.3953 9.28603Z" stroke="#222222" stroke-linecap="round" stroke-linejoin="round"/>
<path d="M4.91699 15.4065L8.46229 11.8612C8.51915 11.8138 8.5908 11.7879 8.6648 11.7879C8.7388 11.7879 8.81045 11.8138 8.86731 11.8612L12.9686 13.3735" stroke="#222222" stroke-width="0.8" stroke-linecap="round" stroke-linejoin="round"/>
<path d="M20.7454 17H15.0886" stroke="#222222" stroke-width="0.8" stroke-linecap="round" stroke-linejoin="round"/>
</svg>
