<svg width="25" height="24" viewBox="0 0 25 24" fill="none" xmlns="http://www.w3.org/2000/svg">
<path d="M5.91699 18.5696C5.92151 18.8265 5.99779 19.0772 6.13752 19.2945C6.27725 19.5118 6.47511 19.6874 6.70957 19.8022C6.94371 19.9318 7.20807 20 7.47699 20C7.74592 20 8.01029 19.9318 8.24441 19.8022L19.1267 13.2079C19.3634 13.0961 19.5632 12.9212 19.7031 12.7031C19.8429 12.4851 19.917 12.2328 19.917 11.9753C19.917 11.7178 19.8429 11.4656 19.7031 11.2475C19.5632 11.0295 19.3634 10.8545 19.1267 10.7427L8.24441 4.19773C8.01029 4.06811 7.74592 4 7.47699 4C7.20807 4 6.94371 4.06811 6.70957 4.19773C6.47511 4.31259 6.27725 4.48822 6.13752 4.70553C5.99779 4.92283 5.92151 5.17352 5.91699 5.43031V18.5696Z" stroke="#222222" stroke-linecap="round" stroke-linejoin="round"/>
</svg>
