<svg width="25" height="24" viewBox="0 0 25 24" fill="none" xmlns="http://www.w3.org/2000/svg">
<path d="M4.91699 19.9999V3.99988" stroke="#222222" stroke-linecap="round" stroke-linejoin="round"/>
<path d="M20.8924 6.26463C20.893 6.04322 20.8338 5.82574 20.7212 5.63509C20.6086 5.44445 20.4466 5.28777 20.2524 5.18155C20.0653 5.07349 19.853 5.01663 19.637 5.01663C19.4209 5.01663 19.2087 5.07349 19.0216 5.18155L10.1724 10.9661C9.99964 11.0777 9.85761 11.2308 9.75927 11.4114C9.66093 11.592 9.6094 11.7943 9.6094 12C9.6094 12.2056 9.66093 12.408 9.75927 12.5886C9.85761 12.7692 9.99964 12.9222 10.1724 13.0338L19.0462 18.7692C19.2333 18.8772 19.4456 18.9341 19.6616 18.9341C19.8776 18.9341 20.0899 18.8772 20.277 18.7692C20.4712 18.6629 20.6332 18.5062 20.7458 18.3156C20.8585 18.125 20.9176 17.9075 20.917 17.6861L20.8924 6.26463Z" stroke="#222222" stroke-linecap="round" stroke-linejoin="round"/>
</svg>
