<svg width="25" height="24" viewBox="0 0 25 24" fill="none" xmlns="http://www.w3.org/2000/svg">
<path d="M5.69483 9.51795C7.01933 10.2827 8.71297 9.82885 9.47767 8.50434C10.2424 7.17984 9.78856 5.48621 8.46406 4.72151C7.13956 3.9568 5.44592 4.41061 4.68122 5.73511C3.91652 7.05962 4.37033 8.75325 5.69483 9.51795Z" stroke="#222222" stroke-linecap="round" stroke-linejoin="round"/>
<path d="M12.1394 19.2787C13.4639 20.0434 15.1576 19.5895 15.9222 18.2651C16.6869 16.9406 16.2331 15.2469 14.9086 14.4822C13.5842 13.7176 11.8905 14.1714 11.1258 15.4958C10.3611 16.8203 10.8149 18.514 12.1394 19.2787Z" stroke="#222222" stroke-linecap="round" stroke-linejoin="round"/>
<path d="M17.3702 10.2187C18.6946 10.9834 20.3883 10.5296 21.153 9.20514C21.9177 7.88064 21.4639 6.18698 20.1394 5.4223C18.8149 4.65762 17.1213 5.11141 16.3566 6.43591C15.5919 7.76041 16.0457 9.45407 17.3702 10.2187Z" stroke="#222222" stroke-linecap="round" stroke-linejoin="round"/>
<path d="M9.83728 7.29077L15.997 7.64947" stroke="#222222" stroke-linecap="round" stroke-linejoin="round"/>
<path d="M8.60651 9.42255L11.997 14.5777" stroke="#222222" stroke-linecap="round" stroke-linejoin="round"/>
</svg>
