<svg width="25" height="24" viewBox="0 0 25 24" fill="none" xmlns="http://www.w3.org/2000/svg">
<path d="M17.0171 8.99988L19.6802 7.49989C19.7737 7.46378 19.8747 7.45109 19.9743 7.46291C20.0739 7.47475 20.1691 7.51074 20.2516 7.56778C20.3341 7.6248 20.4014 7.70113 20.4477 7.79011C20.4939 7.8791 20.5178 7.97805 20.5171 8.07835V14.9214C20.5178 15.0217 20.4939 15.1207 20.4477 15.2097C20.4014 15.2986 20.3341 15.375 20.2516 15.4319C20.1691 15.489 20.0739 15.525 19.9743 15.5368C19.8747 15.5487 19.7737 15.5359 19.6802 15.4999L16.2094 13.9614V15.8076C16.2094 16.134 16.0797 16.4471 15.8489 16.6778C15.6181 16.9086 15.305 17.0383 14.9786 17.0383H10.0171M16.2094 6.99988C15.9786 6.76908 16.0171 5.99988 14.9786 5.96143C13.9401 5.92297 5.74786 5.96143 5.74786 5.96143C5.42143 5.96143 5.10839 6.0911 4.87757 6.32191C4.64676 6.55273 4.51709 6.86577 4.51709 7.1922V15.8076C4.51709 16.134 4.64676 16.4471 4.87757 16.6778C5.09075 16.798 5.71709 17.0383 6.51709 17.0383" stroke="#222222" stroke-linecap="round" stroke-linejoin="round"/>
<path d="M20.5171 3.5L4.51709 19.5" stroke="#222222" stroke-linecap="round" stroke-linejoin="round"/>
</svg>
