<svg width="25" height="24" viewBox="0 0 25 24" fill="none" xmlns="http://www.w3.org/2000/svg">
<path d="M17.1611 9.49988L19.8242 7.99989C19.9177 7.96378 20.0188 7.95109 20.1183 7.96291C20.2179 7.97475 20.3132 8.01074 20.3956 8.06778C20.4781 8.1248 20.5454 8.20113 20.5917 8.29011C20.638 8.3791 20.6619 8.47805 20.6611 8.57835V15.4214C20.6619 15.5217 20.638 15.6207 20.5917 15.7097C20.5454 15.7986 20.4781 15.875 20.3956 15.9319C20.3132 15.989 20.2179 16.025 20.1183 16.0368C20.0188 16.0487 19.9177 16.0359 19.8242 15.9999L16.3534 14.4614V16.3076C16.3534 16.634 16.2238 16.9471 15.9929 17.1778C15.7621 17.4086 15.4491 17.5383 15.1227 17.5383H10.1611M16.3534 7.49988C16.1226 7.26908 16.1611 6.49988 15.1227 6.46143C14.0842 6.42297 5.8919 6.46143 5.8919 6.46143C5.56548 6.46143 5.25243 6.5911 5.02162 6.82191C4.7908 7.05273 4.66113 7.36577 4.66113 7.6922V16.3076C4.66113 16.634 4.7908 16.9471 5.02162 17.1778C5.23479 17.298 5.86113 17.5383 6.66113 17.5383" stroke="#222222" stroke-linecap="round" stroke-linejoin="round"/>
<path d="M20.6611 4L4.66113 20" stroke="#222222" stroke-linecap="round" stroke-linejoin="round"/>
</svg>
