<svg width="25" height="24" viewBox="0 0 25 24" fill="none" xmlns="http://www.w3.org/2000/svg">
<path d="M9.57502 14.7602C9.45857 14.6718 9.32009 14.6169 9.17465 14.6017L5.55699 14.2219C5.38725 14.2219 5.22447 14.1561 5.10444 14.0389C4.98442 13.9216 4.91699 13.7627 4.91699 13.5969L4.91699 9.50342C4.91699 9.33766 4.98442 9.17869 5.10444 9.06148C5.22447 8.94427 5.38725 8.87842 5.55699 8.87842L9.18631 8.40262C9.32437 8.38452 9.45532 8.3307 9.5662 8.24648L13.8731 4.97517C14.3999 4.57507 15.157 4.95076 15.157 5.61224V17.3878C15.157 18.0492 14.3999 18.4249 13.8731 18.0248L9.57502 14.7602Z" stroke="#222222" stroke-linecap="round" stroke-linejoin="round"/>
<path d="M18.3569 9.40503L18.3569 14.4258" stroke="#222222" stroke-linecap="round" stroke-linejoin="round"/>
<path d="M20.917 7L20.917 16.8309" stroke="#222222" stroke-linecap="round" stroke-linejoin="round"/>
</svg>
