<svg width="25" height="24" viewBox="0 0 25 24" fill="none" xmlns="http://www.w3.org/2000/svg">
<path d="M10.575 14.7602C10.4586 14.6718 10.3201 14.6169 10.1747 14.6017L6.55699 14.2219C6.38725 14.2219 6.22447 14.1561 6.10444 14.0389C5.98442 13.9216 5.91699 13.7627 5.91699 13.5969L5.91699 9.50342C5.91699 9.33766 5.98442 9.17869 6.10444 9.06148C6.22447 8.94427 6.38725 8.87842 6.55699 8.87842L10.1863 8.40262C10.3244 8.38452 10.4553 8.3307 10.5662 8.24648L14.8731 4.97517C15.3999 4.57507 16.157 4.95076 16.157 5.61224V17.3878C16.157 18.0492 15.3999 18.4249 14.8731 18.0248L10.575 14.7602Z" stroke="#222222" stroke-linecap="round" stroke-linejoin="round"/>
<path d="M19.3569 9.40503L19.3569 14.4258" stroke="#222222" stroke-linecap="round" stroke-linejoin="round"/>
</svg>
