<svg width="25" height="24" viewBox="0 0 25 24" fill="none" xmlns="http://www.w3.org/2000/svg">
<path d="M6.76447 19.998V16.9219H9.84063" stroke="#222222" stroke-linecap="round" stroke-linejoin="round"/>
<path d="M20.7792 10.5301C21.5446 14.6004 19.0538 18.6357 14.987 19.7254C11.8745 20.5594 8.69869 19.4375 6.76447 17.1132" stroke="#222222" stroke-linecap="round" stroke-linejoin="round"/>
<path d="M5.05479 13.4698C4.28938 9.39945 6.78024 5.36419 10.847 4.27451C13.9593 3.44057 17.1349 4.56222 19.0692 6.88625" stroke="#222222" stroke-linecap="round" stroke-linejoin="round"/>
<path d="M19.0691 4.00211V7.07828H15.9929" stroke="#222222" stroke-linecap="round" stroke-linejoin="round"/>
<path d="M9.30716 12.4138C8.8719 12.338 8.8719 11.7132 9.30716 11.6375C10.884 11.3631 12.1382 10.162 12.4805 8.59851L12.5067 8.47865C12.6009 8.04848 13.2134 8.0458 13.3114 8.47513L13.3432 8.6148C13.6981 10.171 14.9527 11.3619 16.5252 11.6355C16.9626 11.7116 16.9626 12.3396 16.5252 12.4157C14.9527 12.6893 13.6981 13.8802 13.3432 15.4364L13.3114 15.5761C13.2134 16.0054 12.6009 16.0027 12.5067 15.5726L12.4805 15.4527C12.1382 13.8892 10.884 12.6881 9.30716 12.4138Z" stroke="#222222" stroke-linecap="round" stroke-linejoin="round"/>
</svg>
