<svg width="25" height="24" viewBox="0 0 25 24" fill="none" xmlns="http://www.w3.org/2000/svg">
<path d="M15.0804 13.5492H20.3026C20.6419 13.5492 20.917 13.8242 20.917 14.1635V19.3857C20.917 19.725 20.6419 20.0001 20.3026 20.0001H15.0804C14.7411 20.0001 14.4661 19.725 14.4661 19.3857V14.1635C14.4661 13.8242 14.7411 13.5492 15.0804 13.5492Z" stroke="#222222" stroke-linecap="round" stroke-linejoin="round"/>
<path d="M5.53138 13.5492H10.7536C11.0929 13.5492 11.368 13.8242 11.368 14.1635V19.3857C11.368 19.725 11.0929 20.0001 10.7536 20.0001H5.53138C5.19209 20.0001 4.91711 19.725 4.91711 19.3857V14.1635C4.91711 13.8242 5.19209 13.5492 5.53138 13.5492Z" stroke="#222222" stroke-linecap="round" stroke-linejoin="round"/>
<path d="M15.0804 3.99991H20.3026C20.6419 3.99991 20.917 4.27497 20.917 4.61428V9.83647C20.917 10.1758 20.6419 10.4509 20.3026 10.4509H15.0804C14.7411 10.4509 14.4661 10.1758 14.4661 9.83647V4.61428C14.4661 4.27497 14.7411 3.99991 15.0804 3.99991Z" stroke="#222222" stroke-linecap="round" stroke-linejoin="round"/>
<path d="M11.4753 7.70152C11.8536 7.63572 11.8536 7.09267 11.4753 7.02686C10.1048 6.78844 9.01484 5.74459 8.71734 4.38573L8.69456 4.28157C8.61276 3.9077 8.08042 3.90537 7.99534 4.27851L7.96766 4.3999C7.65908 5.75236 6.56885 6.78739 5.20213 7.02514C4.82195 7.09128 4.82195 7.6371 5.20213 7.70325C6.56885 7.94101 7.65908 8.97604 7.96766 10.3285L7.99534 10.4499C8.08042 10.823 8.61276 10.8207 8.69456 10.4468L8.71734 10.3427C9.01484 8.9838 10.1048 7.93996 11.4753 7.70152Z" stroke="#222222" stroke-linecap="round" stroke-linejoin="round"/>
</svg>
