<svg width="25" height="24" viewBox="0 0 25 24" fill="none" xmlns="http://www.w3.org/2000/svg">
<path d="M10.2191 11.4609L14.0813 10.0329L15.4857 6.30716C15.6322 5.89761 16.2018 5.89761 16.3483 6.30716L17.7527 10.0329L21.6149 11.4609C22.0177 11.6098 22.0177 12.189 21.6149 12.3379L17.7527 13.7659L16.3483 17.6928C16.2018 18.1024 15.6322 18.1024 15.4857 17.6928L14.0813 13.7659L10.2191 12.3379C9.81629 12.189 9.81629 11.6098 10.2191 11.4609Z" stroke="#222222" stroke-linecap="round" stroke-linejoin="round"/>
<path d="M5.06804 16.7844L6.99913 16.0821L7.70134 14.151C7.77458 13.9497 8.05941 13.9497 8.13264 14.151L8.83486 16.0821L10.7659 16.7844C10.9673 16.8576 10.9673 17.1424 10.7659 17.2156L8.83486 17.9179L8.13264 19.8489C8.05941 20.0504 7.77458 20.0504 7.70134 19.8489L6.99913 17.9179L5.06804 17.2156C4.86664 17.1424 4.86664 16.8576 5.06804 16.7844Z" stroke="#222222" stroke-width="0.8" stroke-linecap="round" stroke-linejoin="round"/>
<path d="M5.06804 6.78435L6.99913 6.08213L7.70134 4.15105C7.77458 3.94965 8.05941 3.94965 8.13264 4.15105L8.83486 6.08213L10.7659 6.78435C10.9673 6.85758 10.9673 7.14242 10.7659 7.21565L8.83486 7.91787L8.13264 9.84894C8.05941 10.0504 7.77458 10.0504 7.70134 9.84894L6.99913 7.91787L5.06804 7.21565C4.86664 7.14242 4.86664 6.85758 5.06804 6.78435Z" stroke="#222222" stroke-width="0.8" stroke-linecap="round" stroke-linejoin="round"/>
</svg>
