<svg width="25" height="24" viewBox="0 0 25 24" fill="none" xmlns="http://www.w3.org/2000/svg">
<path d="M12.8245 19.6781L9.08704 20L9.41095 16.2859L17.1848 8.61013C17.3009 8.49222 17.4394 8.39852 17.5924 8.33455C17.7453 8.27058 17.9096 8.23764 18.0756 8.23764C18.2415 8.23764 18.4058 8.27058 18.5588 8.33455C18.7118 8.39852 18.8503 8.49222 18.9663 8.61013L20.5485 10.1948C20.6652 10.3099 20.7579 10.4468 20.8212 10.5977C20.8845 10.7486 20.917 10.9104 20.917 11.0738C20.917 11.2372 20.8845 11.3991 20.8212 11.5499C20.7579 11.7008 20.6652 11.8377 20.5485 11.9528L12.8245 19.6781Z" stroke="#222222" stroke-linecap="round" stroke-linejoin="round"/>
<path d="M5.24489 8.25138C4.80769 8.17579 4.80769 7.5521 5.24489 7.47652C6.82877 7.20268 8.08851 6.00382 8.4323 4.44315L8.45865 4.32352C8.55323 3.89413 9.16848 3.89146 9.26684 4.32001L9.29883 4.45942C9.65534 6.01273 10.9154 7.20147 12.4949 7.47454C12.9343 7.55051 12.9343 8.17739 12.4949 8.25335C10.9154 8.52642 9.65534 9.71516 9.29883 11.2685L9.26684 11.4079C9.16848 11.8364 8.55323 11.8338 8.45865 11.4044L8.4323 11.2848C8.08851 9.72407 6.82877 8.52521 5.24489 8.25138Z" stroke="#222222" stroke-linecap="round" stroke-linejoin="round"/>
</svg>
