<svg width="25" height="24" viewBox="0 0 25 24" fill="none" xmlns="http://www.w3.org/2000/svg">
<path d="M11.1809 13.1942C11.6577 13.7347 12.2379 14.1792 12.8908 14.4998V16.346C12.8908 16.5092 12.9559 16.6657 13.0717 16.781C13.1874 16.8965 13.3445 16.9614 13.5082 16.9614H17.2127C17.3764 16.9614 17.5335 16.8965 17.6492 16.781C17.765 16.6657 17.8301 16.5092 17.8301 16.346V14.4998C18.7186 14.0604 19.4729 13.3919 20.0147 12.5638C20.5565 11.7357 20.8661 10.7782 20.9112 9.79058C20.9564 8.80298 20.7355 7.82134 20.2715 6.94756C19.8075 6.07378 19.1173 5.33972 18.2726 4.82159C17.4278 4.30345 16.4593 4.02013 15.4676 4.00103C14.6403 3.9851 13.822 4.15356 13.0717 4.49159" stroke="#222222" stroke-linecap="round" stroke-linejoin="round"/>
<path d="M17.8301 20H12.8909" stroke="#222222" stroke-linecap="round" stroke-linejoin="round"/>
<path d="M12.4297 8.2264C12.863 8.15126 12.863 7.53122 12.4297 7.45609C10.8598 7.18386 9.61115 5.99204 9.27041 4.44052L9.24428 4.32159C9.15058 3.89472 8.54071 3.89206 8.44328 4.3181L8.41155 4.4567C8.05814 6.00089 6.80925 7.18266 5.24363 7.45412C4.80811 7.52965 4.80811 8.15284 5.24363 8.22836C6.80925 8.49983 8.05814 9.6816 8.41155 11.2258L8.44328 11.3644C8.54071 11.7904 9.15058 11.7878 9.24428 11.3609L9.27041 11.242C9.61115 9.69046 10.8598 8.49862 12.4297 8.2264Z" stroke="#222222" stroke-linecap="round" stroke-linejoin="round"/>
</svg>
