<svg width="25" height="24" viewBox="0 0 25 24" fill="none" xmlns="http://www.w3.org/2000/svg">
<path d="M6.45544 20L15.4401 11.5322C15.5506 11.4401 15.69 11.3897 15.8339 11.3897C15.9778 11.3897 16.1172 11.4401 16.2277 11.5322L20.917 14.8922" stroke="#222222" stroke-width="0.8" stroke-linecap="round" stroke-linejoin="round"/>
<path d="M5.11108 16.9248L8.65638 13.3795C8.71324 13.3321 8.78489 13.3062 8.85889 13.3062C8.93289 13.3062 9.00454 13.3321 9.0614 13.3795L11.4726 15.1072" stroke="#222222" stroke-width="0.8" stroke-linecap="round" stroke-linejoin="round"/>
<path d="M12.417 4H19.917C20.4693 4 20.917 4.44772 20.917 5V19C20.917 19.5523 20.4693 20 19.917 20H5.91699C5.36471 20 4.91699 19.5523 4.91699 19V11.5" stroke="#222222" stroke-linecap="round" stroke-linejoin="round"/>
<path d="M4.66714 7.72831C4.23009 7.65221 4.23009 7.02478 4.66714 6.94881C6.25049 6.67331 7.50983 5.46732 7.8535 3.89735L7.87984 3.77701C7.9744 3.34507 8.58947 3.34238 8.68773 3.77348L8.71974 3.91373C9.07617 5.47627 10.3358 6.67209 11.9148 6.94682C12.3541 7.02316 12.3541 7.65383 11.9148 7.73017C10.3358 8.00491 9.07617 9.20074 8.71974 10.7633L8.68773 10.9036C8.58947 11.3346 7.9744 11.332 7.87984 10.9L7.8535 10.7797C7.50983 9.20971 6.25049 8.00366 4.66714 7.72831Z" stroke="#222222" stroke-linecap="round" stroke-linejoin="round"/>
</svg>
