<svg width="25" height="24" viewBox="0 0 25 24" fill="none" xmlns="http://www.w3.org/2000/svg">
<path d="M12.917 8H15.3785C15.7049 8 16.018 8.12967 16.2488 8.36048C16.4796 8.5913 16.6093 8.90434 16.6093 9.23077V11.0769L20.0801 9.53846C20.1736 9.50235 20.2746 9.48966 20.3742 9.50149C20.4738 9.51333 20.569 9.54932 20.6515 9.60635C20.734 9.66337 20.8013 9.7397 20.8476 9.82869C20.8938 9.91767 20.9177 10.0166 20.917 10.1169V16.96C20.9177 17.0603 20.8938 17.1592 20.8476 17.2482C20.8013 17.3372 20.734 17.4135 20.6515 17.4705C20.569 17.5276 20.4738 17.5636 20.3742 17.5754C20.2746 17.5873 20.1736 17.5745 20.0801 17.5385L16.6093 16V17.8461C16.6093 18.1725 16.4796 18.4857 16.2488 18.7164C16.018 18.9472 15.7049 19.0769 15.3785 19.0769H6.14776C5.82134 19.0769 5.50829 18.9472 5.27748 18.7164C5.04666 18.4857 4.91699 18.1725 4.91699 17.8461V15" stroke="#222222" stroke-linecap="round" stroke-linejoin="round"/>
<path d="M4.24478 10.2767C3.80773 10.2006 3.80773 9.57318 4.24478 9.49721C5.82813 9.22171 7.08747 8.01572 7.43114 6.44575L7.45748 6.32541C7.55204 5.89347 8.16711 5.89078 8.26537 6.32189L8.29738 6.46213C8.65381 8.02467 9.91341 9.22049 11.4925 9.49522C11.9317 9.57156 11.9317 10.2022 11.4925 10.2786C9.91341 10.5533 8.65381 11.7491 8.29738 13.3117L8.26537 13.452C8.16711 13.883 7.55204 13.8804 7.45748 13.4484L7.43114 13.3281C7.08747 11.7581 5.82813 10.5521 4.24478 10.2767Z" stroke="#222222" stroke-linecap="round" stroke-linejoin="round"/>
</svg>
