<?xml version="1.0" encoding="UTF-8" standalone="yes"?>
<svg width="24" height="25" viewBox="0 0 24 25" fill="none" xmlns="http://www.w3.org/2000/svg">
  <path d="M12.917 20C17.3353 20 20.917 16.4183 20.917 12C20.917 7.58172 17.3353 4 12.917 4C8.49871 4 4.91699 7.58172 4.91699 12C4.91699 16.4183 8.49871 20 12.917 20Z" stroke="#222222" stroke-miterlimit="10"/>
  <path opacity="0.4" d="M12.917 16.3334C13.4693 16.3334 13.917 15.8857 13.917 15.3334C13.917 14.7811 13.4693 14.3334 12.917 14.3334C12.3647 14.3334 11.917 14.7811 11.917 15.3334C11.917 15.8857 12.3647 16.3334 12.917 16.3334Z" fill="#222222"/>
  <path opacity="0.4" d="M10.917 9.6648C10.917 9.2696 11.0343 8.88327 11.2541 8.55467C11.4738 8.22608 11.7862 7.96997 12.1516 7.81872C12.5171 7.66749 12.9192 7.62792 13.3072 7.70502C13.6951 7.78212 14.0515 7.97242 14.3312 8.25188C14.6109 8.53133 14.8014 8.88737 14.8786 9.27497C14.9557 9.66259 14.9161 10.0643 14.7647 10.4295C14.6134 10.7946 14.357 11.1067 14.0281 11.3262C13.6992 11.5458 12.5107 11.7292 12.1152 11.7292L13.0438 13.4104" stroke="#222222" stroke-linecap="round" stroke-linejoin="round"/>
</svg>