<?xml version="1.0" encoding="UTF-8" standalone="yes"?>
<svg width="24" height="25" viewBox="0 0 24 25" fill="none" xmlns="http://www.w3.org/2000/svg">
  <path d="M12.917 19.6539C13.7454 19.6539 14.417 18.9824 14.417 18.1539C14.417 17.3255 13.7454 16.6539 12.917 16.6539C12.0886 16.6539 11.417 17.3255 11.417 18.1539C11.417 18.9824 12.0886 19.6539 12.917 19.6539Z" fill="#222222"/>
  <path d="M9.22467 8.03514C9.22467 7.30553 9.44122 6.59232 9.84694 5.98566C10.2526 5.37903 10.8293 4.90621 11.504 4.62698C12.1787 4.34778 12.9211 4.27474 13.6373 4.41707C14.3536 4.5594 15.0115 4.91074 15.5279 5.42667C16.0442 5.94257 16.3959 6.59988 16.5384 7.31546C16.6808 8.03105 16.6077 8.77276 16.3282 9.44683C16.0488 10.1209 15.5755 10.697 14.9683 11.1024C14.3611 11.5077 12.476 11.8658 11.7457 11.8658L13.0749 15.1466" stroke="#222222" stroke-linecap="round" stroke-linejoin="round"/>
</svg>