<?xml version="1.0" encoding="UTF-8" standalone="yes"?>
<svg width="24" height="25" viewBox="0 0 24 25" fill="none" xmlns="http://www.w3.org/2000/svg">
  <path d="M17.2247 4H8.6093C6.5701 4 4.91699 5.65311 4.91699 7.69231V16.3077C4.91699 18.347 6.5701 20 8.6093 20H17.2247C19.2639 20 20.917 18.347 20.917 16.3077V7.69231C20.917 5.65311 19.2639 4 17.2247 4Z" stroke="#222222" stroke-linecap="round" stroke-linejoin="round"/>
  <path opacity="0.4" d="M12.917 8V12.6667" stroke="#222222" stroke-linecap="round" stroke-linejoin="round"/>
  <path opacity="0.4" d="M12.917 16.6666C13.4693 16.6666 13.917 16.2189 13.917 15.6666C13.917 15.1143 13.4693 14.6666 12.917 14.6666C12.3647 14.6666 11.917 15.1143 11.917 15.6666C11.917 16.2189 12.3647 16.6666 12.917 16.6666Z" fill="#222222"/>
</svg>