<?xml version="1.0" encoding="UTF-8" standalone="yes"?>
<svg width="25" height="25" viewBox="0 0 25 25" fill="none" xmlns="http://www.w3.org/2000/svg">
  <path d="M18.747 12V8.91051C18.747 8.64749 18.6434 8.39505 18.4586 8.20789L14.5973 4.29739C14.4094 4.1071 14.1531 4 13.8857 4H6.41699C5.86471 4 5.41699 4.44772 5.41699 5V19C5.41699 19.5523 5.86471 20 6.41699 20H11.417" stroke="#222222" stroke-linecap="round" stroke-linejoin="round"/>
  <path d="M9.41699 12.6667H12.7412" stroke="#222222" stroke-linecap="round" stroke-linejoin="round"/>
  <path d="M9.41699 15.3333H12.6342" stroke="#222222" stroke-linecap="round" stroke-linejoin="round"/>
  <path opacity="0.4" d="M14.8016 20H19.0324C19.2448 20 19.417 19.8278 19.417 19.6154V15.3846C19.417 15.1722 19.2448 15 19.0324 15H14.8016C14.5892 15 14.417 15.1722 14.417 15.3846V19.6154C14.417 19.8278 14.5892 20 14.8016 20Z" stroke="#222222" stroke-width="0.7" stroke-linecap="round" stroke-linejoin="round"/>
  <path opacity="0.4" d="M14.4776 19.039L16.8356 17.9311C16.8533 17.9163 16.8757 17.9082 16.8988 17.9082C16.922 17.9082 16.9621 17.9311 16.9621 17.9311L19.417 18.75" stroke="#222222" stroke-width="0.7" stroke-linecap="round" stroke-linejoin="round"/>
  <path opacity="0.4" d="M15.9554 17.1154C16.2741 17.1154 16.5324 16.8571 16.5324 16.5385C16.5324 16.2198 16.2741 15.9615 15.9554 15.9615C15.6368 15.9615 15.3785 16.2198 15.3785 16.5385C15.3785 16.8571 15.6368 17.1154 15.9554 17.1154Z" stroke="#222222" stroke-width="0.7" stroke-linecap="round" stroke-linejoin="round"/>
</svg>