<?xml version="1.0" encoding="UTF-8" standalone="yes"?>
<svg width="25" height="25" viewBox="0 0 25 25" fill="none" xmlns="http://www.w3.org/2000/svg">
  <path d="M18.747 12V8.91051C18.747 8.64749 18.6434 8.39505 18.4586 8.20789L14.5973 4.29739C14.4094 4.1071 14.1531 4 13.8857 4H6.41699C5.86471 4 5.41699 4.44772 5.41699 5V19C5.41699 19.5523 5.86471 20 6.41699 20H11.417" stroke="#222222" stroke-linecap="round" stroke-linejoin="round"/>
  <path d="M9.41699 12.6667H12.917" stroke="#222222" stroke-linecap="round" stroke-linejoin="round"/>
  <path d="M9.41699 15.3333H12.917" stroke="#222222" stroke-linecap="round" stroke-linejoin="round"/>
  <path opacity="0.4" d="M17.9725 16H14.8614C14.616 16 14.417 16.1919 14.417 16.4286V18.5714C14.417 18.8081 14.616 19 14.8614 19H17.9725C18.218 19 18.417 18.8081 18.417 18.5714V16.4286C18.417 16.1919 18.218 16 17.9725 16Z" stroke="#222222" stroke-width="0.8" stroke-linecap="round" stroke-linejoin="round"/>
  <path opacity="0.4" d="M18.417 16.9756L20.417 16V19L18.417 17.9512" stroke="#222222" stroke-width="0.8" stroke-linecap="round" stroke-linejoin="round"/>
</svg>