<?xml version="1.0" encoding="UTF-8" standalone="yes"?>
<svg width="25" height="25" viewBox="0 0 25 25" fill="none" xmlns="http://www.w3.org/2000/svg">
  <path d="M9.95724 18.4493L4.41699 20L5.96826 14.4619L16.1131 4.37028C16.2277 4.25307 16.3647 4.15993 16.5158 4.09634C16.667 4.03275 16.8294 4 16.9934 4C17.1574 4 17.3197 4.03275 17.4709 4.09634C17.622 4.15993 17.759 4.25307 17.8736 4.37028L20.0528 6.56091C20.1682 6.67531 20.2598 6.81144 20.3223 6.9614C20.3849 7.11137 20.417 7.27223 20.417 7.4347C20.417 7.59716 20.3849 7.75802 20.3223 7.90799C20.2598 8.05797 20.1682 8.19408 20.0528 8.30849L9.95724 18.4493Z" stroke="#222222" stroke-linecap="round" stroke-linejoin="round"/>
</svg>