<?xml version="1.0" encoding="UTF-8" standalone="yes"?>
<svg width="25" height="25" viewBox="0 0 25 25" fill="none" xmlns="http://www.w3.org/2000/svg">
  <path opacity="0.4" d="M14.7247 4H11.0324C10.3526 4 9.80161 4.55103 9.80161 5.23077V5.84615C9.80161 6.52588 10.3526 7.07692 11.0324 7.07692H14.7247C15.4044 7.07692 15.9555 6.52588 15.9555 5.84615V5.23077C15.9555 4.55103 15.4044 4 14.7247 4Z" stroke="#222222" stroke-linecap="round" stroke-linejoin="round"/>
  <path d="M16.2631 5.23077H18.1093C18.4357 5.23077 18.7488 5.36045 18.9796 5.59125C19.2103 5.82207 19.3401 6.13512 19.3401 6.46154V18.7692C19.3401 19.0956 19.2103 19.4087 18.9796 19.6395C18.7488 19.8703 18.4357 20 18.1093 20H7.64776C7.32134 20 7.00829 19.8703 6.77747 19.6395C6.54667 19.4087 6.41699 19.0956 6.41699 18.7692V6.46154C6.41699 6.13512 6.54667 5.82207 6.77747 5.59125C7.00829 5.36045 7.32134 5.23077 7.64776 5.23077H9.49392" stroke="#222222" stroke-linecap="round" stroke-linejoin="round"/>
</svg>